<svg xmlns="http://www.w3.org/2000/svg" viewBox="0 0 163.08 116.97"><defs><style>.a{fill:#fff;}.b{fill:#fea2b8;}.c{fill:#ea1d76;stroke:#fff;stroke-miterlimit:10;stroke-width:0.25px;}</style></defs><title>back</title><path class="a" d="M120,78.5a249.94,249.94,0,0,1-30.48-1.88A7.75,7.75,0,0,1,84,72.55c-1.42-2.68-4.56-31.74-.69-63a7.7,7.7,0,0,1,6.19-6.18,248.11,248.11,0,0,1,61,0,7.7,7.7,0,0,1,6.19,6.18c3.62,29.28,1,59.86-.69,63a7.75,7.75,0,0,1-5.5,4.07A249.93,249.93,0,0,1,120,78.5Z" transform="translate(-39.11)"/><path class="b" d="M120,3a248.4,248.4,0,0,1,30.29,1.87,6.26,6.26,0,0,1,4.88,4.88c3.69,29.85.79,59.17-.53,62.1a6.29,6.29,0,0,1-4.36,3.28A248.49,248.49,0,0,1,120,77a248.48,248.48,0,0,1-30.29-1.87,6.26,6.26,0,0,1-4.33-3.24C84,68.77,81.1,40,84.84,9.74a6.26,6.26,0,0,1,4.88-4.88A248.45,248.45,0,0,1,120,3h0m0-3A250.32,250.32,0,0,0,89.36,1.89a9.23,9.23,0,0,0-7.49,7.49c-3.8,30.74-.88,60.6.86,63.88a9.29,9.29,0,0,0,6.64,4.85A250.28,250.28,0,0,0,120,80a250.36,250.36,0,0,0,30.66-1.89,9.3,9.3,0,0,0,6.64-4.85c1.85-3.48,4.52-34.22.86-63.88a9.22,9.22,0,0,0-7.49-7.49A250.23,250.23,0,0,0,120,0Z" transform="translate(-39.11)"/><path class="c" d="M127.69,21.35a19.5,19.5,0,0,1,6.46,4.42l2.66-2.45a.63.63,0,0,1,.74,0,.92.92,0,0,1,.45.55l2.37,9.28a1.66,1.66,0,0,1,0,1.1,1.21,1.21,0,0,1-.61.63,1.24,1.24,0,0,1-.86.06l-10.1-2c-.33-.08-.5-.25-.53-.51a.93.93,0,0,1,.33-.76l2.37-2.33a15,15,0,0,0-5-3.56,15.46,15.46,0,0,0-19.22,6,15,15,0,0,0-2.37,7.4q0,.74-.78.74h-3.43l-.16,0a.62.62,0,0,1-.27-.27,1.05,1.05,0,0,1-.1-.51,19.51,19.51,0,0,1,3-9.77,20.17,20.17,0,0,1,17.17-9.53A19.7,19.7,0,0,1,127.69,21.35Zm12.23,19.14.16,0a.67.67,0,0,1,.27.25,1,1,0,0,1,.1.49A20.2,20.2,0,0,1,130.22,58a20.2,20.2,0,0,1-17.91,1,19.49,19.49,0,0,1-6.46-4.42L103.24,57a.7.7,0,0,1-.78,0,.92.92,0,0,1-.45-.55L99.64,47.2a1.66,1.66,0,0,1,0-1.1,1.21,1.21,0,0,1,.61-.63,1.23,1.23,0,0,1,.86-.06l10.14,2a.58.58,0,0,1,.49.51,1,1,0,0,1-.29.76L109.08,51a15.37,15.37,0,0,0,18.77,2.82,15.28,15.28,0,0,0,5.48-5.23,15,15,0,0,0,2.37-7.4q0-.74.78-.74Z" transform="translate(-39.11)"/><path class="a" d="M47.58,106.63a3.37,3.37,0,0,1-1.53,3,3.08,3.08,0,0,1,1.38,1.08,3.3,3.3,0,0,1,.55,2,3.61,3.61,0,0,1-1.39,3.08,5.93,5.93,0,0,1-3.66,1q-1.64,0-3-.06a1,1,0,0,1-.87-.93v-11.5a.85.85,0,0,1,.27-.63,1,1,0,0,1,.63-.28l1.69-.06,1.47,0a5.27,5.27,0,0,1,3.37.91,3,3,0,0,1,1.1,2.39Zm-4.48,2.05q1.41,0,1.41-1.3a1,1,0,0,0-.42-.9,1.67,1.67,0,0,0-1-.33l-.37,0-.58.06v2.43Zm-1,5.13a3.94,3.94,0,0,0,1,.11q1.77,0,1.77-1.41,0-1.2-1.62-1.2H42.11Z" transform="translate(-39.11)"/><path class="a" d="M49.86,110a6.66,6.66,0,0,1,2-4.9,6.91,6.91,0,0,1,5.11-2A7.13,7.13,0,0,1,62,105,7.18,7.18,0,0,1,62,115,7,7,0,0,1,57,116.91,7.13,7.13,0,0,1,51.9,115a6.55,6.55,0,0,1-2-5Zm3.23,0a4,4,0,0,0,1.12,2.88,3.91,3.91,0,0,0,5.55,0,4.29,4.29,0,0,0,1-2.91,4,4,0,0,0-1.1-2.91,3.94,3.94,0,0,0-5.49,0A4,4,0,0,0,53.09,110Z" transform="translate(-39.11)"/><path class="a" d="M70.19,103.25a4.45,4.45,0,0,1,3,1A3.42,3.42,0,0,1,74.31,107a3.36,3.36,0,0,1-1.67,2.85A3.06,3.06,0,0,1,74.83,113a3.4,3.4,0,0,1-1.44,2.85A5.45,5.45,0,0,1,70.06,117a6.22,6.22,0,0,1-4.37-1.8.85.85,0,0,1-.28-.67.91.91,0,0,1,.21-.57l.67-.76a.88.88,0,0,1,.68-.32.91.91,0,0,1,.57.21,4.08,4.08,0,0,0,2.39,1.06,2.51,2.51,0,0,0,1.31-.34,1.23,1.23,0,0,0,.06-2,2.68,2.68,0,0,0-1.56-.38h-.34a.88.88,0,0,1-.87-.89v-1.1a.91.91,0,0,1,.89-.89h.27a2,2,0,0,0,1.18-.32,1,1,0,0,0,.46-.91,1.11,1.11,0,0,0-.4-.91,1.69,1.69,0,0,0-1.06-.32,3.05,3.05,0,0,0-1.79.68,1.1,1.1,0,0,1-.59.21.88.88,0,0,1-.7-.34l-.59-.7a.74.74,0,0,1-.19-.55.8.8,0,0,1,.3-.68,6.12,6.12,0,0,1,3.93-1.46Z" transform="translate(-39.11)"/><path class="a" d="M86.15,106.63a3.37,3.37,0,0,1-1.53,3A3.08,3.08,0,0,1,86,110.7a3.3,3.3,0,0,1,.55,2,3.61,3.61,0,0,1-1.39,3.08,5.93,5.93,0,0,1-3.66,1q-1.64,0-3-.06a1,1,0,0,1-.87-.93v-11.5a.85.85,0,0,1,.27-.63,1,1,0,0,1,.63-.28l1.69-.06,1.47,0a5.27,5.27,0,0,1,3.37.91,3,3,0,0,1,1.1,2.39Zm-4.48,2.05q1.41,0,1.41-1.3a1,1,0,0,0-.42-.9,1.67,1.67,0,0,0-1-.33l-.37,0-.58.06v2.43Zm-1,5.13a3.94,3.94,0,0,0,1,.11q1.77,0,1.77-1.41,0-1.2-1.62-1.2H80.68Z" transform="translate(-39.11)"/><path class="a" d="M93.47,103.36a5.73,5.73,0,0,1,4.1,1.25,4.45,4.45,0,0,1-.08,6.31,4.91,4.91,0,0,1-3.57,1.31,13.71,13.71,0,0,1-1.48-.06v3.65a.85.85,0,0,1-.87.87H90.27a.88.88,0,0,1-.87-.89V104.27a.91.91,0,0,1,.89-.89l1.81,0h1.38Zm-1,5.93.7.07.67,0a2.15,2.15,0,0,0,1.25-.38,1.42,1.42,0,0,0,.53-1.26q0-1.55-1.84-1.55H93.4l-1,0Z" transform="translate(-39.11)"/><path class="a" d="M102.49,113.89l-.85,2.17a.93.93,0,0,1-.91.63H99.57a.74.74,0,0,1-.57-.25.81.81,0,0,1-.23-.57.91.91,0,0,1,.06-.32L103.61,104a1,1,0,0,1,.93-.63h1.39a1,1,0,0,1,.93.63l4.79,11.53a.91.91,0,0,1,.06.32.82.82,0,0,1-.23.57.74.74,0,0,1-.57.25h-1.35a.91.91,0,0,1-.91-.63l-.86-2.17Zm1.14-2.85h3l-1.48-3.76Z" transform="translate(-39.11)"/><path class="a" d="M116.1,116.74a.88.88,0,0,1-.87-.89v-9.58h-3.12a.88.88,0,0,1-.87-.89v-1.1a.91.91,0,0,1,.89-.89h9.27a.87.87,0,0,1,.89.87v1.1a.84.84,0,0,1-.87.87H118.3v9.58a.85.85,0,0,1-.87.87Z" transform="translate(-39.11)"/><path class="a" d="M131.3,116.74a.88.88,0,0,1-.87-.89v-9.58h-3.12a.88.88,0,0,1-.87-.89v-1.1a.91.91,0,0,1,.89-.89h9.27a.87.87,0,0,1,.89.87v1.1a.84.84,0,0,1-.87.87H133.5v9.58a.85.85,0,0,1-.87.87Z" transform="translate(-39.11)"/><path class="a" d="M137.83,110a6.66,6.66,0,0,1,2-4.9,6.91,6.91,0,0,1,5.11-2A7.13,7.13,0,0,1,150,105a7.18,7.18,0,0,1,0,9.94,7,7,0,0,1-5.05,1.94,7.13,7.13,0,0,1-5.09-1.88,6.55,6.55,0,0,1-2-5Zm3.23,0a4,4,0,0,0,1.12,2.88,3.91,3.91,0,0,0,5.55,0,4.29,4.29,0,0,0,1-2.91,4,4,0,0,0-1.1-2.91,3.94,3.94,0,0,0-5.49,0,4,4,0,0,0-1.08,2.91Z" transform="translate(-39.11)"/><path class="a" d="M162.93,106.63a3.37,3.37,0,0,1-1.53,3,3.08,3.08,0,0,1,1.38,1.08,3.3,3.3,0,0,1,.55,2,3.61,3.61,0,0,1-1.39,3.08,5.93,5.93,0,0,1-3.66,1q-1.64,0-3-.06a1,1,0,0,1-.87-.93v-11.5a.85.85,0,0,1,.27-.63,1,1,0,0,1,.63-.28l1.69-.06,1.47,0a5.27,5.27,0,0,1,3.37.91,3,3,0,0,1,1.1,2.39Zm-4.48,2.05q1.41,0,1.41-1.3a1,1,0,0,0-.42-.9,1.67,1.67,0,0,0-1-.33l-.37,0-.58.06v2.43Zm-1,5.13a3.94,3.94,0,0,0,1,.11q1.77,0,1.77-1.41,0-1.2-1.62-1.2h-1.18Z" transform="translate(-39.11)"/><path class="a" d="M168.57,113.89l-.85,2.17a.93.93,0,0,1-.91.63h-1.16a.74.74,0,0,1-.57-.25.81.81,0,0,1-.23-.57.91.91,0,0,1,.06-.32L169.69,104a1,1,0,0,1,.93-.63H172a1,1,0,0,1,.93.63l4.79,11.53a.91.91,0,0,1,.06.32.82.82,0,0,1-.23.57.74.74,0,0,1-.57.25h-1.35a.91.91,0,0,1-.91-.63l-.86-2.17Zm1.14-2.85h3l-1.48-3.76Z" transform="translate(-39.11)"/><path class="a" d="M183.94,103.36a5.73,5.73,0,0,1,4.1,1.25,4.45,4.45,0,0,1-.08,6.31,4.91,4.91,0,0,1-3.57,1.31,13.71,13.71,0,0,1-1.48-.06v3.65a.85.85,0,0,1-.87.87h-1.29a.88.88,0,0,1-.87-.89V104.27a.91.91,0,0,1,.89-.89l1.81,0H184Zm-1,5.93.7.07.67,0a2.15,2.15,0,0,0,1.25-.38,1.42,1.42,0,0,0,.53-1.26q0-1.55-1.84-1.55h-.37l-1,0Z" transform="translate(-39.11)"/><path class="a" d="M193,113.89l-.85,2.17a.93.93,0,0,1-.91.63H190a.74.74,0,0,1-.57-.25.81.81,0,0,1-.23-.57.91.91,0,0,1,.06-.32L194.09,104a1,1,0,0,1,.93-.63h1.39a1,1,0,0,1,.93.63l4.79,11.53a.91.91,0,0,1,.06.32.82.82,0,0,1-.23.57.74.74,0,0,1-.57.25H200a.91.91,0,0,1-.91-.63l-.86-2.17Zm1.14-2.85h3l-1.48-3.76Z" transform="translate(-39.11)"/></svg>