<svg xmlns="http://www.w3.org/2000/svg" viewBox="0 0 142.84 119.35"><defs><style>.a{fill:#fff;}.b{fill:#e7ea90;}.c,.e{fill:#c4d600;}.c{stroke:#fff;stroke-width:0.25px;}.c,.d{stroke-miterlimit:10;}.d{fill:none;stroke:#c4d600;stroke-width:3.48px;}</style></defs><title>buy1</title><path class="a" d="M120,80.88A249.94,249.94,0,0,1,89.54,79,7.75,7.75,0,0,1,84,74.94c-1.42-2.68-4.56-31.74-.69-63a7.7,7.7,0,0,1,6.19-6.18,248.11,248.11,0,0,1,61,0,7.7,7.7,0,0,1,6.19,6.18c3.62,29.28,1,59.86-.69,63a7.75,7.75,0,0,1-5.5,4.07A249.93,249.93,0,0,1,120,80.88Z" transform="translate(-48.33)"/><path class="b" d="M120,5.38a248.4,248.4,0,0,1,30.29,1.87,6.26,6.26,0,0,1,4.88,4.88c3.69,29.85.79,59.17-.53,62.1a6.29,6.29,0,0,1-4.36,3.28A248.49,248.49,0,0,1,120,79.38a248.48,248.48,0,0,1-30.29-1.87,6.26,6.26,0,0,1-4.33-3.24C84,71.16,81.1,42.39,84.84,12.13a6.26,6.26,0,0,1,4.88-4.88A248.45,248.45,0,0,1,120,5.38h0m0-3A250.32,250.32,0,0,0,89.36,4.27a9.23,9.23,0,0,0-7.49,7.49c-3.8,30.74-.88,60.6.86,63.88a9.29,9.29,0,0,0,6.64,4.85A250.28,250.28,0,0,0,120,82.38a250.36,250.36,0,0,0,30.66-1.89,9.3,9.3,0,0,0,6.64-4.85c1.85-3.48,4.52-34.22.86-63.88a9.22,9.22,0,0,0-7.49-7.49A250.23,250.23,0,0,0,120,2.38Z" transform="translate(-48.33)"/><path class="c" d="M107.36,24.63H138a3,3,0,0,1,2.23.76,2.65,2.65,0,0,1,.76,2V40a2.62,2.62,0,0,1-.71,1.85,2.73,2.73,0,0,1-1.79.87L111.11,45.8a1.89,1.89,0,0,0-1.55.9,1.37,1.37,0,0,0,0,1.52,1.86,1.86,0,0,0,1.71.73h26a2.1,2.1,0,0,1,1.63.65,2.37,2.37,0,0,1,0,3.15,2.1,2.1,0,0,1-1.63.65h-26.5A6.43,6.43,0,0,1,107,52.32a5.35,5.35,0,0,1-2-2.66,5.06,5.06,0,0,1,0-3.31,6.23,6.23,0,0,1,2.28-3l2.33-1.79-8.42-18.41H97a2.19,2.19,0,0,1-1.76-.73,2.66,2.66,0,0,1,0-3.42A2.19,2.19,0,0,1,97,18.27h4.83a3.6,3.6,0,0,1,2.55.81,6.72,6.72,0,0,1,1.3,2.12Zm-2.82,31.93a4.12,4.12,0,0,1,3.07,1.25,4.33,4.33,0,0,1,0,6,4.05,4.05,0,0,1-3,1.25,4.26,4.26,0,0,1-3-7.28A4.07,4.07,0,0,1,104.54,56.55Zm4.62-28.12L111.27,33h6.84l-1.52-4.62Zm5.92,13.08L120.5,41l-1.79-5.48h-6.46Zm11-13.08H119L120.5,33h6.68ZM122.84,40.7l6.14-.6-1.36-4.61h-6.46ZM137.34,33V28.43h-8.8l1,4.62Zm-4,23.51a4,4,0,0,1,3,1.25,4.24,4.24,0,0,1,1.19,3,4.14,4.14,0,0,1-1.19,3,4,4,0,0,1-3,1.22,4.26,4.26,0,1,1,0-8.52Zm4-17.43V35.49h-7.22l1.09,4.23Z" transform="translate(-48.33)"/><path class="a" d="M129,19.91a16.13,16.13,0,0,0,32.25,0V19.6a16.13,16.13,0,0,0-32.25,0Z" transform="translate(-48.33)"/><rect class="d" x="78.93" y="1.74" width="35.73" height="36.03" rx="17.58" ry="17.58"/><path class="e" d="M148.18,28.74h-3.62V15.11a12.47,12.47,0,0,1-4.67,2.74V14.56A10.47,10.47,0,0,0,143,12.81a6.68,6.68,0,0,0,2.28-3h2.94Z" transform="translate(-48.33)"/><path class="a" d="M53.12,105.63a4.45,4.45,0,0,1,3,1,3.42,3.42,0,0,1,1.14,2.75,3.36,3.36,0,0,1-1.67,2.85,3.06,3.06,0,0,1,2.19,3.21,3.4,3.4,0,0,1-1.44,2.85A5.45,5.45,0,0,1,53,119.35a6.22,6.22,0,0,1-4.37-1.8.85.85,0,0,1-.28-.67.91.91,0,0,1,.21-.57l.67-.76a.88.88,0,0,1,.68-.32.91.91,0,0,1,.57.21,4.08,4.08,0,0,0,2.39,1.06,2.51,2.51,0,0,0,1.31-.34,1.23,1.23,0,0,0,.06-2,2.68,2.68,0,0,0-1.56-.38h-.34a.88.88,0,0,1-.87-.89v-1.1a.91.91,0,0,1,.89-.89h.27a2,2,0,0,0,1.18-.32,1,1,0,0,0,.46-.91,1.11,1.11,0,0,0-.4-.91,1.69,1.69,0,0,0-1.06-.32,3.05,3.05,0,0,0-1.79.68,1.1,1.1,0,0,1-.59.21.88.88,0,0,1-.7-.34l-.59-.7a.74.74,0,0,1-.19-.55.8.8,0,0,1,.3-.68,6.12,6.12,0,0,1,3.93-1.46Z" transform="translate(-48.33)"/><path class="a" d="M63,116.27l-.85,2.17a.93.93,0,0,1-.91.63H60.07a.74.74,0,0,1-.57-.25.81.81,0,0,1-.23-.57.91.91,0,0,1,.06-.32l4.79-11.53a1,1,0,0,1,.93-.63h1.39a1,1,0,0,1,.93.63l4.79,11.53a.91.91,0,0,1,.06.32.82.82,0,0,1-.23.57.74.74,0,0,1-.57.25H70.07a.91.91,0,0,1-.91-.63l-.86-2.17Zm1.14-2.85h3l-1.48-3.76Z" transform="translate(-48.33)"/><path class="a" d="M77.33,118.25a.85.85,0,0,1-.87.87H75.16a.86.86,0,0,1-.63-.27.85.85,0,0,1-.25-.63V106.68a.91.91,0,0,1,.89-.89h1.29a.87.87,0,0,1,.89.87v4.92l4-5.26a1.26,1.26,0,0,1,1.06-.53h1.25a.79.79,0,0,1,.61.25.83.83,0,0,1,0,1.1l-3.91,4.79,4.35,5.78a.86.86,0,0,1,.19.53.8.8,0,0,1-.25.59.85.85,0,0,1-.63.25H82.57a1.25,1.25,0,0,1-1.06-.55l-4.14-5.78Z" transform="translate(-48.33)"/><path class="a" d="M89.77,116.27l-.85,2.17a.93.93,0,0,1-.91.63H86.85a.74.74,0,0,1-.57-.25.81.81,0,0,1-.23-.57.91.91,0,0,1,.06-.32l4.79-11.53a1,1,0,0,1,.93-.63h1.39a1,1,0,0,1,.93.63l4.79,11.53a.91.91,0,0,1,.06.32.82.82,0,0,1-.23.57.74.74,0,0,1-.57.25H96.84a.91.91,0,0,1-.91-.63l-.86-2.17Zm1.14-2.85h3l-1.48-3.76Z" transform="translate(-48.33)"/><path class="a" d="M104.78,105.63a4.45,4.45,0,0,1,3,1,3.42,3.42,0,0,1,1.14,2.75,3.36,3.36,0,0,1-1.67,2.85,3.06,3.06,0,0,1,2.19,3.21,3.4,3.4,0,0,1-1.44,2.85,5.45,5.45,0,0,1-3.33,1.08,6.22,6.22,0,0,1-4.37-1.8.85.85,0,0,1-.28-.67.91.91,0,0,1,.21-.57l.67-.76a.88.88,0,0,1,.68-.32.91.91,0,0,1,.57.21,4.08,4.08,0,0,0,2.39,1.06,2.51,2.51,0,0,0,1.31-.34,1.23,1.23,0,0,0,.06-2,2.68,2.68,0,0,0-1.56-.38H104a.88.88,0,0,1-.87-.89v-1.1a.91.91,0,0,1,.89-.89h.27a2,2,0,0,0,1.18-.32,1,1,0,0,0,.46-.91,1.11,1.11,0,0,0-.4-.91,1.69,1.69,0,0,0-1.06-.32,3.05,3.05,0,0,0-1.79.68,1.1,1.1,0,0,1-.59.21.88.88,0,0,1-.7-.34l-.59-.7a.74.74,0,0,1-.19-.55.8.8,0,0,1,.3-.68,6.12,6.12,0,0,1,3.93-1.46Z" transform="translate(-48.33)"/><path class="a" d="M115.1,112.42a6.66,6.66,0,0,1,2-4.9,6.91,6.91,0,0,1,5.11-2,7.13,7.13,0,0,1,5.09,1.88,7.18,7.18,0,0,1,0,9.94,7,7,0,0,1-5.05,1.94,7.13,7.13,0,0,1-5.09-1.88,6.55,6.55,0,0,1-2-5Zm3.23,0a4,4,0,0,0,1.12,2.88,3.91,3.91,0,0,0,5.55,0,4.29,4.29,0,0,0,1-2.91,4,4,0,0,0-1.1-2.91,3.94,3.94,0,0,0-5.49,0,4,4,0,0,0-1.08,2.91Z" transform="translate(-48.33)"/><path class="a" d="M134.48,119.12a.88.88,0,0,1-.87-.89v-9.58h-3.12a.88.88,0,0,1-.87-.89v-1.1a.91.91,0,0,1,.89-.89h9.27a.87.87,0,0,1,.89.87v1.1a.84.84,0,0,1-.87.87h-3.12v9.58a.85.85,0,0,1-.87.87Z" transform="translate(-48.33)"/><path class="a" d="M147,110.25a.87.87,0,0,1-1.24-.21l-.59-.82a.87.87,0,0,1,.21-1.24l2.51-1.82a1.71,1.71,0,0,1,1-.38h.72a.88.88,0,0,1,.89.87v11.55a.85.85,0,0,1-.87.87h-1.1a.86.86,0,0,1-.63-.27.85.85,0,0,1-.25-.63v-8.38Z" transform="translate(-48.33)"/><path class="a" d="M173.16,118.27a.85.85,0,0,1-.87.87H158.45a.88.88,0,0,1-.87-.89V106.7a.91.91,0,0,1,.89-.89h1.29a.85.85,0,0,1,.63.25.86.86,0,0,1,.27.63v9.58h3.23v-9.58a.91.91,0,0,1,.89-.89h1.29a.88.88,0,0,1,.89.87v9.58h3.23v-9.58a.91.91,0,0,1,.89-.89h1.29a.87.87,0,0,1,.89.87Z" transform="translate(-48.33)"/><path class="a" d="M180,119.12a.88.88,0,0,1-.87-.89v-9.58H176a.88.88,0,0,1-.87-.89v-1.1a.91.91,0,0,1,.89-.89h9.27a.87.87,0,0,1,.89.87v1.1a.84.84,0,0,1-.87.87H182.2v9.58a.85.85,0,0,1-.87.87Z" transform="translate(-48.33)"/><path class="a" d="M187.43,117.3a1.7,1.7,0,0,1,.53-1.23,1.93,1.93,0,0,1,1.42-.55,1.67,1.67,0,0,1,1.27.55,1.77,1.77,0,0,1,.51,1.23,2,2,0,0,1-.51,1.35,1.65,1.65,0,0,1-1.27.57,1.85,1.85,0,0,1-1.42-.57,1.89,1.89,0,0,1-.53-1.37Zm3.38-4.2a.85.85,0,0,1-.87.87h-1.29a.86.86,0,0,1-.63-.27.85.85,0,0,1-.25-.63v-6.42a.91.91,0,0,1,.89-.89H190a.87.87,0,0,1,.89.87Z" transform="translate(-48.33)"/></svg>