<svg xmlns="http://www.w3.org/2000/svg" viewBox="0 0 164.03 119.06"><defs><style>.a{fill:#fff;}.b{fill:#80d4f9;}.c,.d{fill:none;stroke:#00aaf2;stroke-miterlimit:10;stroke-width:3px;}.d{stroke-linecap:round;}</style></defs><title>DropShipping</title><path class="a" d="M120,78.5a249.94,249.94,0,0,1-30.48-1.88A7.75,7.75,0,0,1,84,72.55c-1.42-2.68-4.56-31.74-.69-63a7.7,7.7,0,0,1,6.19-6.18,248.11,248.11,0,0,1,61,0,7.7,7.7,0,0,1,6.19,6.18c3.62,29.28,1,59.86-.69,63a7.75,7.75,0,0,1-5.5,4.07A249.93,249.93,0,0,1,120,78.5Z" transform="translate(-37.85)"/><path class="b" d="M120,3a248.4,248.4,0,0,1,30.29,1.87,6.26,6.26,0,0,1,4.88,4.88c3.69,29.85.79,59.17-.53,62.1a6.29,6.29,0,0,1-4.36,3.28A248.49,248.49,0,0,1,120,77a248.48,248.48,0,0,1-30.29-1.87,6.26,6.26,0,0,1-4.33-3.24C84,68.77,81.1,40,84.84,9.74a6.26,6.26,0,0,1,4.88-4.88A248.45,248.45,0,0,1,120,3h0m0-3A250.32,250.32,0,0,0,89.36,1.89a9.23,9.23,0,0,0-7.49,7.49c-3.8,30.74-.88,60.6.86,63.88a9.29,9.29,0,0,0,6.64,4.85A250.28,250.28,0,0,0,120,80a250.36,250.36,0,0,0,30.66-1.89,9.3,9.3,0,0,0,6.64-4.85c1.85-3.48,4.52-34.22.86-63.88a9.22,9.22,0,0,0-7.49-7.49A250.23,250.23,0,0,0,120,0Z" transform="translate(-37.85)"/><line class="c" x1="81.23" y1="35.66" x2="58.56" y2="24.95"/><line class="c" x1="81.23" y1="35.66" x2="104.23" y2="24.95"/><line class="c" x1="81.23" y1="35.66" x2="81.23" y2="65.95"/><polyline class="d" points="67.23 21.28 58.56 24.95 58.56 34.45"/><polyline class="d" points="95.56 21.28 104.23 24.95 104.23 34.45"/><polyline class="d" points="74.56 18.38 81.23 15.8 88.64 18.38"/><polyline class="d" points="90.23 59.95 81.39 65.95 72.12 59.95"/><polyline class="d" points="104.23 43.2 104.23 51.03 97.31 55.56"/><polyline class="d" points="58.56 43.2 58.56 51.03 65.07 55.56"/><line class="d" x1="81.23" y1="25.95" x2="81.23" y2="15.8"/><line class="d" x1="104.23" y1="51.03" x2="92.56" y2="43.2"/><line class="d" x1="58.56" y1="51.03" x2="70.23" y2="43.2"/><path class="a" d="M40.7,118.18a.85.85,0,0,1-.87.87h-1.1a.86.86,0,0,1-.63-.27.85.85,0,0,1-.25-.63v-3.38a.91.91,0,0,1,.89-.89h.55a9.38,9.38,0,0,0,1.18-2.81,22,22,0,0,0,.76-5l.08-1.79a.93.93,0,0,1,.28-.63.86.86,0,0,1,.63-.27h6.92a.85.85,0,0,1,.63.25.86.86,0,0,1,.27.63v9.58H51a.85.85,0,0,1,.63.25.86.86,0,0,1,.27.63v3.38A.85.85,0,0,1,51,119h-1.1a.88.88,0,0,1-.87-.89v-1.41H40.78ZM47,106.33h-2.7L44,108.57a17.14,17.14,0,0,1-.61,3.25,7,7,0,0,1-.82,2.11H47Z" transform="translate(-37.85)"/><path class="a" d="M58,103.36a5.73,5.73,0,0,1,4.1,1.25,4.45,4.45,0,0,1-.08,6.31,4.91,4.91,0,0,1-3.57,1.31,13.71,13.71,0,0,1-1.48-.06v3.65a.85.85,0,0,1-.87.87H54.82a.88.88,0,0,1-.87-.89V104.27a.91.91,0,0,1,.89-.89l1.81,0H58Zm-1,5.93.7.07.67,0a2.15,2.15,0,0,0,1.25-.38,1.42,1.42,0,0,0,.53-1.26q0-1.55-1.84-1.55h-.37l-1,0Z" transform="translate(-37.85)"/><path class="a" d="M64.89,110a6.66,6.66,0,0,1,2-4.9,6.91,6.91,0,0,1,5.11-2A7.13,7.13,0,0,1,77.07,105a7.18,7.18,0,0,1,0,9.94A7,7,0,0,1,72,116.91,7.13,7.13,0,0,1,66.92,115a6.55,6.55,0,0,1-2-5Zm3.23,0a4,4,0,0,0,1.12,2.88,3.91,3.91,0,0,0,5.55,0,4.29,4.29,0,0,0,1-2.91,4,4,0,0,0-1.1-2.91,3.94,3.94,0,0,0-5.49,0A4,4,0,0,0,68.12,110Z" transform="translate(-37.85)"/><path class="a" d="M92.23,115.87a.85.85,0,0,1-.87.87H90.07a.88.88,0,0,1-.87-.89v-9.58H84.54v9.58a.85.85,0,0,1-.87.87H82.37a.86.86,0,0,1-.63-.27.85.85,0,0,1-.25-.63V104.27a.91.91,0,0,1,.89-.89h9a.85.85,0,0,1,.63.25.86.86,0,0,1,.27.63Z" transform="translate(-37.85)"/><path class="a" d="M99.95,111.88a1,1,0,0,1-.27.65.83.83,0,0,1-.63.29H95.86a.79.79,0,0,1-.63-.29,1,1,0,0,1-.27-.65V111a1,1,0,0,1,.27-.65.79.79,0,0,1,.63-.29h3.19a.83.83,0,0,1,.63.29,1,1,0,0,1,.27.65Z" transform="translate(-37.85)"/><path class="a" d="M118.07,115.88a.85.85,0,0,1-.87.87H103.37a.88.88,0,0,1-.87-.89V104.31a.91.91,0,0,1,.89-.89h1.29a.85.85,0,0,1,.63.25.86.86,0,0,1,.27.63v9.58h3.23v-9.58a.91.91,0,0,1,.89-.89H111a.88.88,0,0,1,.89.87v9.58h3.23v-9.58a.91.91,0,0,1,.89-.89h1.29a.87.87,0,0,1,.89.87Z" transform="translate(-37.85)"/><path class="a" d="M131,116.74a.87.87,0,0,1-.87-.89v-7.39l-5.51,7.71a1.15,1.15,0,0,1-1,.55h-1.18a.88.88,0,0,1-.87-.89V104.27a.91.91,0,0,1,.89-.89h1.29a.88.88,0,0,1,.89.87v7.39l5.51-7.71a1.14,1.14,0,0,1,1-.55h1.17a.84.84,0,0,1,.62.25.86.86,0,0,1,.26.63v11.55a.85.85,0,0,1-.25.63.84.84,0,0,1-.62.25Z" transform="translate(-37.85)"/><path class="a" d="M147.31,115.87a.85.85,0,0,1-.87.87h-1.29a.88.88,0,0,1-.87-.89v-9.58h-4.66v9.58a.85.85,0,0,1-.87.87h-1.29a.86.86,0,0,1-.63-.27.85.85,0,0,1-.25-.63V104.27a.91.91,0,0,1,.89-.89h9a.85.85,0,0,1,.63.25.86.86,0,0,1,.27.63Z" transform="translate(-37.85)"/><path class="a" d="M161.47,115.87a.85.85,0,0,1-.87.87H159.3a.88.88,0,0,1-.87-.89v-9.58h-4.66v9.58a.85.85,0,0,1-.87.87h-1.29a.86.86,0,0,1-.63-.27.85.85,0,0,1-.25-.63V104.27a.91.91,0,0,1,.89-.89h9a.85.85,0,0,1,.63.25.86.86,0,0,1,.27.63Z" transform="translate(-37.85)"/><path class="a" d="M174.29,116.74a.87.87,0,0,1-.87-.89v-7.39l-5.51,7.71a1.15,1.15,0,0,1-1,.55h-1.18a.88.88,0,0,1-.87-.89V104.27a.91.91,0,0,1,.89-.89h1.29a.88.88,0,0,1,.89.87v7.39l5.51-7.71a1.14,1.14,0,0,1,1-.55h1.17a.84.84,0,0,1,.62.25.86.86,0,0,1,.26.63v11.55a.85.85,0,0,1-.25.63.84.84,0,0,1-.62.25Z" transform="translate(-37.85)"/><path class="a" d="M190.79,115.88a.85.85,0,0,1-.87.87h-1.29a.88.88,0,0,1-.87-.89v-4.48H182.9v4.48a.85.85,0,0,1-.87.87h-1.29a.86.86,0,0,1-.63-.27.85.85,0,0,1-.25-.63V104.29a.91.91,0,0,1,.89-.89H182a.87.87,0,0,1,.89.87v4.22h4.84v-4.22a.91.91,0,0,1,.89-.89H190a.87.87,0,0,1,.89.87Z" transform="translate(-37.85)"/><path class="a" d="M197.28,115.85a.85.85,0,0,1-.87.87h-1.29a.86.86,0,0,1-.63-.27.85.85,0,0,1-.25-.63V104.27a.91.91,0,0,1,.89-.89H201a.87.87,0,0,1,.89.87v1.1a.84.84,0,0,1-.87.87h-3.69Z" transform="translate(-37.85)"/></svg>