<svg xmlns="http://www.w3.org/2000/svg" viewBox="0 0 691.01 120.84"><defs><style>.a{fill:#969696;}.b{fill:none;stroke:#c9c9c9;stroke-miterlimit:10;}.c{fill:#979797;}.d{fill:#5ccdff;}</style></defs><title>footer</title><path class="a" d="M492.31,2.34h6.26v7.87H497V3.66H493.9v6.55h-1.59Z" transform="translate(0)"/><path class="a" d="M499.83,7.28a3.08,3.08,0,0,1,.37-1.46,2.54,2.54,0,0,1,1-1.07,3.12,3.12,0,0,1,1.52-.37,2.85,2.85,0,0,1,2.12.84,2.9,2.9,0,0,1,.83,2.12,2.94,2.94,0,0,1-.83,2.15,2.82,2.82,0,0,1-2.1.85,3.31,3.31,0,0,1-1.5-.35,2.43,2.43,0,0,1-1.08-1A3.45,3.45,0,0,1,499.83,7.28Zm1.55.08a1.89,1.89,0,0,0,.4,1.3,1.32,1.32,0,0,0,2,0,1.92,1.92,0,0,0,.4-1.31,1.88,1.88,0,0,0-.4-1.29,1.32,1.32,0,0,0-2,0A1.9,1.9,0,0,0,501.38,7.36Z" transform="translate(0)"/><path class="a" d="M506.8,4.51h1.87l1.42,4,1.43-4h1.86v5.7h-1.28V6.46l-1.39,3.75h-1.29l-1.33-3.75v3.75H506.8Z" transform="translate(0)"/><path class="a" d="M514.4,7.28a3.08,3.08,0,0,1,.37-1.46,2.54,2.54,0,0,1,1-1.07,3.12,3.12,0,0,1,1.52-.37,2.85,2.85,0,0,1,2.12.84,2.9,2.9,0,0,1,.83,2.12,2.94,2.94,0,0,1-.83,2.15,2.82,2.82,0,0,1-2.1.85,3.31,3.31,0,0,1-1.5-.35,2.43,2.43,0,0,1-1.08-1A3.45,3.45,0,0,1,514.4,7.28Zm1.55.08a1.89,1.89,0,0,0,.4,1.3,1.32,1.32,0,0,0,2,0,1.92,1.92,0,0,0,.4-1.31,1.88,1.88,0,0,0-.4-1.29,1.32,1.32,0,0,0-2,0A1.9,1.9,0,0,0,515.95,7.36Z" transform="translate(0)"/><path class="a" d="M521.43,4.51h1.39V9h1.73V4.51H526V9h1.76V4.51h1.39V9h.62v2.72H528.5v-1.5h-7.06Z" transform="translate(0)"/><path class="a" d="M530.78,4.51h1.51V6.88h1.52a5.56,5.56,0,0,1,1.37.13,1.44,1.44,0,0,1,.79.56,1.62,1.62,0,0,1,.32,1,1.44,1.44,0,0,1-.57,1.24,2.86,2.86,0,0,1-1.7.42h-3.24Zm1.51,4.75h1.41a1.15,1.15,0,0,0,.85-.21.76.76,0,0,0,.19-.51.58.58,0,0,0-.32-.57,2.85,2.85,0,0,0-1.14-.16h-1Z" transform="translate(0)"/><path class="a" d="M492.33,32.21V24.34h3a7.2,7.2,0,0,1,1.2.08,2.38,2.38,0,0,1,1,.37,1.94,1.94,0,0,1,.63.76,2.57,2.57,0,0,1-.4,2.77,3.06,3.06,0,0,1-2.31.7h-2v3.2Zm1-4.13h2a2.16,2.16,0,0,0,1.43-.37,1.34,1.34,0,0,0,.42-1.06,1.43,1.43,0,0,0-.25-.85,1.17,1.17,0,0,0-.66-.46,4.41,4.41,0,0,0-1-.07h-2Z" transform="translate(0)"/><path class="a" d="M503,30.37l1,.12a2.43,2.43,0,0,1-.88,1.36,3,3,0,0,1-3.62-.29,3,3,0,0,1-.73-2.16,3.15,3.15,0,0,1,.74-2.23,2.51,2.51,0,0,1,1.92-.79,2.44,2.44,0,0,1,1.87.78,3.1,3.1,0,0,1,.72,2.19q0,.09,0,.26h-4.25a2.19,2.19,0,0,0,.53,1.44,1.58,1.58,0,0,0,1.19.5,1.48,1.48,0,0,0,.91-.28A1.86,1.86,0,0,0,503,30.37Zm-3.17-1.56H503a1.93,1.93,0,0,0-.37-1.08,1.48,1.48,0,0,0-1.2-.56,1.53,1.53,0,0,0-1.12.45A1.76,1.76,0,0,0,499.79,28.81Z" transform="translate(0)"/><path class="a" d="M505.19,26.51h3.28v.8h-2.31v4.9h-1Z" transform="translate(0)"/><path class="a" d="M509.19,26.51h1v4.35l2.68-4.35h1v5.7h-1V27.89l-2.68,4.32h-1Z" transform="translate(0)"/><path class="a" d="M519.06,30.12l1,.12a2.47,2.47,0,0,1-.8,1.54,2.33,2.33,0,0,1-1.58.56,2.45,2.45,0,0,1-1.88-.77,3.1,3.1,0,0,1-.71-2.19,4,4,0,0,1,.31-1.62,2.12,2.12,0,0,1,.93-1,2.76,2.76,0,0,1,1.36-.35,2.36,2.36,0,0,1,1.52.47,2.16,2.16,0,0,1,.76,1.33l-.94.15a1.56,1.56,0,0,0-.48-.87,1.23,1.23,0,0,0-.83-.29,1.5,1.5,0,0,0-1.19.52,2.49,2.49,0,0,0-.46,1.66,2.57,2.57,0,0,0,.44,1.67,1.44,1.44,0,0,0,1.15.52,1.35,1.35,0,0,0,1-.35A1.73,1.73,0,0,0,519.06,30.12Z" transform="translate(0)"/><path class="a" d="M520.32,26.51H525v.8h-1.84v4.9h-1v-4.9h-1.84Z" transform="translate(0)"/><path class="a" d="M525.88,34.4V26.51h.88v.74a2.15,2.15,0,0,1,.7-.65,1.93,1.93,0,0,1,1-.22,2.25,2.25,0,0,1,1.29.38,2.32,2.32,0,0,1,.84,1.06,3.86,3.86,0,0,1,.28,1.5,3.82,3.82,0,0,1-.31,1.58A2.38,2.38,0,0,1,529.6,32a2.34,2.34,0,0,1-1.26.37,1.82,1.82,0,0,1-.87-.2,2,2,0,0,1-.63-.52V34.4Zm.88-5A2.48,2.48,0,0,0,527.2,31a1.37,1.37,0,0,0,1.08.53,1.4,1.4,0,0,0,1.1-.54,2.58,2.58,0,0,0,.46-1.69,2.52,2.52,0,0,0-.45-1.63,1.35,1.35,0,0,0-1.07-.54,1.39,1.39,0,0,0-1.09.58A2.58,2.58,0,0,0,526.75,29.39Z" transform="translate(0)"/><path class="a" d="M535.72,31.51a3.63,3.63,0,0,1-1,.64,3,3,0,0,1-1.07.19,2.07,2.07,0,0,1-1.44-.46,1.52,1.52,0,0,1-.51-1.17,1.59,1.59,0,0,1,.69-1.32,2.36,2.36,0,0,1,.7-.32,7,7,0,0,1,.86-.14,8.8,8.8,0,0,0,1.72-.33c0-.13,0-.22,0-.25a1.07,1.07,0,0,0-.27-.83,1.62,1.62,0,0,0-1.1-.33,1.7,1.7,0,0,0-1,.24,1.46,1.46,0,0,0-.48.85l-.95-.13a2.34,2.34,0,0,1,.42-1,1.85,1.85,0,0,1,.85-.58,3.82,3.82,0,0,1,1.29-.2,3.43,3.43,0,0,1,1.19.17,1.56,1.56,0,0,1,.67.43,1.51,1.51,0,0,1,.3.66,5.3,5.3,0,0,1,0,.89v1.29a13.47,13.47,0,0,0,.06,1.71,2.14,2.14,0,0,0,.24.68h-1A2,2,0,0,1,535.72,31.51Zm-.08-2.16a7,7,0,0,1-1.58.37,3.7,3.7,0,0,0-.84.19.85.85,0,0,0-.38.31.85.85,0,0,0,.16,1.1,1.26,1.26,0,0,0,.86.26,2,2,0,0,0,1-.24,1.51,1.51,0,0,0,.64-.67,2.34,2.34,0,0,0,.16-1Z" transform="translate(0)"/><path class="a" d="M538.13,26.51h1v4.91h2.67V26.51h1v4.91h.62v2.41h-.79V32.21h-4.44Z" transform="translate(0)"/><path class="a" d="M544.41,26.51h1v4.35l2.68-4.35h1v5.7h-1V27.89l-2.68,4.32h-1Z" transform="translate(0)"/><path class="a" d="M555,26.51v5.7h-1V30h-.56a1.68,1.68,0,0,0-.76.13A2.8,2.8,0,0,0,552,31l-.84,1.25H550l1-1.54a1.67,1.67,0,0,1,1-.79,1.84,1.84,0,0,1-1.23-.6,1.69,1.69,0,0,1-.4-1.11,1.53,1.53,0,0,1,.52-1.2,2.23,2.23,0,0,1,1.52-.46Zm-1,.8h-1.37a1.59,1.59,0,0,0-1.12.27.89.89,0,0,0-.25.63.83.83,0,0,0,.37.75,2.54,2.54,0,0,0,1.3.24h1.07Z" transform="translate(0)"/><path class="a" d="M492.33,54.21V46.34h3a7.2,7.2,0,0,1,1.2.08,2.38,2.38,0,0,1,1,.37,1.94,1.94,0,0,1,.63.76,2.57,2.57,0,0,1-.4,2.77,3.06,3.06,0,0,1-2.31.7h-2v3.2Zm1-4.13h2a2.16,2.16,0,0,0,1.43-.37,1.34,1.34,0,0,0,.42-1.06,1.43,1.43,0,0,0-.25-.85,1.17,1.17,0,0,0-.66-.46,4.41,4.41,0,0,0-1-.07h-2Z" transform="translate(0)"/><path class="a" d="M502.9,53.51a3.62,3.62,0,0,1-1,.64,3,3,0,0,1-1.07.19,2.08,2.08,0,0,1-1.45-.46,1.52,1.52,0,0,1-.5-1.17,1.59,1.59,0,0,1,.69-1.32,2.36,2.36,0,0,1,.7-.32,7.05,7.05,0,0,1,.86-.14,8.81,8.81,0,0,0,1.72-.33c0-.13,0-.22,0-.25a1.06,1.06,0,0,0-.27-.83,1.61,1.61,0,0,0-1.1-.33,1.71,1.71,0,0,0-1,.24,1.46,1.46,0,0,0-.48.85l-.95-.13a2.34,2.34,0,0,1,.42-1,1.86,1.86,0,0,1,.85-.58,3.83,3.83,0,0,1,1.29-.2,3.44,3.44,0,0,1,1.19.17,1.56,1.56,0,0,1,.67.43,1.52,1.52,0,0,1,.3.66,5.44,5.44,0,0,1,0,.89v1.29a13.67,13.67,0,0,0,.06,1.71,2.16,2.16,0,0,0,.24.68h-1A2.08,2.08,0,0,1,502.9,53.51Zm-.08-2.16a7.05,7.05,0,0,1-1.58.37,3.7,3.7,0,0,0-.84.19.85.85,0,0,0-.38.31.85.85,0,0,0,.16,1.1,1.26,1.26,0,0,0,.86.26,2,2,0,0,0,1-.24,1.52,1.52,0,0,0,.64-.67,2.34,2.34,0,0,0,.16-1Z" transform="translate(0)"/><path class="a" d="M509.48,46.15h.85a1.48,1.48,0,0,1-.25.8.89.89,0,0,1-.51.29,7.22,7.22,0,0,1-1.21.06,3.92,3.92,0,0,0-1.63.23,1.33,1.33,0,0,0-.62.74,4,4,0,0,0-.21,1.31,2.51,2.51,0,0,1,.85-.81,2.24,2.24,0,0,1,1.1-.27,2.46,2.46,0,0,1,1.86.77,2.89,2.89,0,0,1,.74,2.09,3.23,3.23,0,0,1-.37,1.64,3,3,0,0,1-.88,1,2.91,2.91,0,0,1-3-.12,3,3,0,0,1-.86-1.19,7.35,7.35,0,0,1-.3-2.52,4.45,4.45,0,0,1,.76-3,3.16,3.16,0,0,1,2.36-.78,9.41,9.41,0,0,0,1.12,0A.22.22,0,0,0,509.48,46.15Zm0,5.19a2.39,2.39,0,0,0-.42-1.46,1.39,1.39,0,0,0-1.19-.57,1.43,1.43,0,0,0-1.23.6,2.68,2.68,0,0,0-.44,1.61,2.18,2.18,0,0,0,.48,1.52,1.54,1.54,0,0,0,1.18.53A1.39,1.39,0,0,0,509,53,2.66,2.66,0,0,0,509.43,51.34Z" transform="translate(0)"/><path class="a" d="M511.24,51.36a2.94,2.94,0,0,1,.88-2.35,2.65,2.65,0,0,1,1.79-.63,2.56,2.56,0,0,1,1.92.77,2.93,2.93,0,0,1,.75,2.13,3.77,3.77,0,0,1-.33,1.73,2.33,2.33,0,0,1-1,1,2.8,2.8,0,0,1-1.38.35,2.57,2.57,0,0,1-1.94-.77A3.07,3.07,0,0,1,511.24,51.36Zm1,0a2.43,2.43,0,0,0,.48,1.64,1.59,1.59,0,0,0,2.4,0,2.49,2.49,0,0,0,.48-1.67,2.36,2.36,0,0,0-.48-1.6,1.59,1.59,0,0,0-2.4,0A2.42,2.42,0,0,0,512.23,51.36Z" transform="translate(0)"/><path class="a" d="M517,48.51h4.63v.8h-1.84v4.9h-1v-4.9H517Z" transform="translate(0)"/><path class="a" d="M526.11,53.51a3.63,3.63,0,0,1-1,.64,3,3,0,0,1-1.07.19,2.07,2.07,0,0,1-1.44-.46,1.52,1.52,0,0,1-.51-1.17,1.59,1.59,0,0,1,.69-1.32,2.36,2.36,0,0,1,.7-.32,7,7,0,0,1,.86-.14,8.8,8.8,0,0,0,1.72-.33c0-.13,0-.22,0-.25a1.07,1.07,0,0,0-.27-.83,1.62,1.62,0,0,0-1.1-.33,1.7,1.7,0,0,0-1,.24,1.46,1.46,0,0,0-.48.85l-.95-.13a2.34,2.34,0,0,1,.42-1,1.85,1.85,0,0,1,.85-.58,3.82,3.82,0,0,1,1.29-.2,3.43,3.43,0,0,1,1.19.17,1.56,1.56,0,0,1,.67.43,1.51,1.51,0,0,1,.3.66,5.3,5.3,0,0,1,0,.89v1.29a13.47,13.47,0,0,0,.06,1.71,2.14,2.14,0,0,0,.24.68h-1A2,2,0,0,1,526.11,53.51ZM526,51.35a7,7,0,0,1-1.58.37,3.7,3.7,0,0,0-.84.19.85.85,0,0,0-.38.31.85.85,0,0,0,.16,1.1,1.26,1.26,0,0,0,.86.26,2,2,0,0,0,1-.24,1.51,1.51,0,0,0,.64-.67,2.34,2.34,0,0,0,.16-1Z" transform="translate(0)"/><path class="a" d="M535.29,52.12l1,.12a2.47,2.47,0,0,1-.8,1.54,2.32,2.32,0,0,1-1.58.56,2.45,2.45,0,0,1-1.88-.77,3.1,3.1,0,0,1-.71-2.19,4,4,0,0,1,.31-1.62,2.13,2.13,0,0,1,.93-1,2.75,2.75,0,0,1,1.36-.35,2.37,2.37,0,0,1,1.52.47,2.16,2.16,0,0,1,.76,1.33l-.94.15a1.56,1.56,0,0,0-.48-.87,1.23,1.23,0,0,0-.82-.29,1.5,1.5,0,0,0-1.19.52,2.49,2.49,0,0,0-.46,1.66A2.57,2.57,0,0,0,532.7,53a1.43,1.43,0,0,0,1.15.52,1.35,1.35,0,0,0,1-.35A1.73,1.73,0,0,0,535.29,52.12Z" transform="translate(0)"/><path class="a" d="M543.84,52.12l1,.12a2.47,2.47,0,0,1-.8,1.54,2.32,2.32,0,0,1-1.58.56,2.45,2.45,0,0,1-1.88-.77,3.1,3.1,0,0,1-.71-2.19,4,4,0,0,1,.31-1.62,2.14,2.14,0,0,1,.93-1,2.76,2.76,0,0,1,1.36-.35,2.37,2.37,0,0,1,1.52.47,2.15,2.15,0,0,1,.76,1.33l-.94.15a1.56,1.56,0,0,0-.47-.87,1.23,1.23,0,0,0-.82-.29,1.5,1.5,0,0,0-1.19.52,2.49,2.49,0,0,0-.46,1.66,2.56,2.56,0,0,0,.44,1.67,1.43,1.43,0,0,0,1.15.52,1.35,1.35,0,0,0,1-.35A1.73,1.73,0,0,0,543.84,52.12Z" transform="translate(0)"/><path class="a" d="M549.34,53.51a3.62,3.62,0,0,1-1,.64,3,3,0,0,1-1.07.19,2.08,2.08,0,0,1-1.44-.46,1.52,1.52,0,0,1-.5-1.17,1.56,1.56,0,0,1,.19-.77,1.59,1.59,0,0,1,.5-.56,2.37,2.37,0,0,1,.7-.32,7.05,7.05,0,0,1,.86-.14,8.8,8.8,0,0,0,1.72-.33c0-.13,0-.22,0-.25a1.07,1.07,0,0,0-.27-.83,1.62,1.62,0,0,0-1.1-.33,1.71,1.71,0,0,0-1,.24,1.46,1.46,0,0,0-.48.85l-.95-.13a2.35,2.35,0,0,1,.42-1,1.86,1.86,0,0,1,.85-.58,3.81,3.81,0,0,1,1.29-.2,3.43,3.43,0,0,1,1.19.17,1.56,1.56,0,0,1,.67.43,1.52,1.52,0,0,1,.3.66,5.41,5.41,0,0,1,0,.89v1.29a13.54,13.54,0,0,0,.06,1.71,2.14,2.14,0,0,0,.24.68h-1A2,2,0,0,1,549.34,53.51Zm-.08-2.16a7,7,0,0,1-1.58.37,3.67,3.67,0,0,0-.84.19.84.84,0,0,0-.38.31.85.85,0,0,0,.16,1.1,1.26,1.26,0,0,0,.86.26,2,2,0,0,0,1-.24,1.5,1.5,0,0,0,.64-.67,2.33,2.33,0,0,0,.16-1Z" transform="translate(0)"/><path class="a" d="M551.74,48.51h1v4.35l2.68-4.35h1v5.7h-1V49.89l-2.68,4.32h-1Zm3.36-2.16h.66a1.55,1.55,0,0,1-.49,1,1.59,1.59,0,0,1-1.09.36,1.62,1.62,0,0,1-1.1-.36,1.55,1.55,0,0,1-.49-1h.66a.91.91,0,0,0,.3.54.92.92,0,0,0,.6.18,1.05,1.05,0,0,0,.66-.17A.89.89,0,0,0,555.1,46.35Z" transform="translate(0)"/><path class="a" d="M557.36,48.51H562v.8h-1.84v4.9h-1v-4.9h-1.84Z" transform="translate(0)"/><path class="a" d="M562.44,51.36a2.94,2.94,0,0,1,.88-2.35,2.65,2.65,0,0,1,1.79-.63,2.56,2.56,0,0,1,1.92.77,2.93,2.93,0,0,1,.75,2.13,3.77,3.77,0,0,1-.33,1.73,2.33,2.33,0,0,1-1,1,2.8,2.8,0,0,1-1.38.35,2.57,2.57,0,0,1-1.94-.77A3.07,3.07,0,0,1,562.44,51.36Zm1,0a2.43,2.43,0,0,0,.48,1.64,1.59,1.59,0,0,0,2.4,0,2.49,2.49,0,0,0,.48-1.67,2.36,2.36,0,0,0-.48-1.6,1.59,1.59,0,0,0-2.4,0A2.42,2.42,0,0,0,563.43,51.36Z" transform="translate(0)"/><path class="a" d="M568.94,48.51h1.5l1.5,4.57,1.67-4.57H575v5.7h-1V49.62l-1.69,4.59h-.87l-1.6-4.81v4.81h-.95Z" transform="translate(0)"/><line class="b" x1="483.15" x2="483.15" y2="120.84"/><path class="a" d="M618.15,2.34h1.59V5.69a1.07,1.07,0,0,0,.72-.27A5.49,5.49,0,0,0,621,4.19a3.32,3.32,0,0,1,1-1.59,3.11,3.11,0,0,1,1.6-.31h.23V3.46h-.22a1.58,1.58,0,0,0-.71.12.91.91,0,0,0-.37.37,7.83,7.83,0,0,0-.41,1,3.6,3.6,0,0,1-.31.68,1.63,1.63,0,0,1-.6.52,1.64,1.64,0,0,1,.88.61,8.43,8.43,0,0,1,.76,1.29l1.07,2.16h-1.87l-.94-2L621,8l-.2-.37a2.37,2.37,0,0,0-.5-.73,1,1,0,0,0-.6-.15v3.45h-1.59Z" transform="translate(0)"/><path class="a" d="M626.08,6.25,624.71,6a2.14,2.14,0,0,1,.79-1.22,2.92,2.92,0,0,1,1.68-.4,3.61,3.61,0,0,1,1.5.24,1.49,1.49,0,0,1,.7.61,3.1,3.1,0,0,1,.2,1.35l0,1.76a6.26,6.26,0,0,0,.07,1.11,3.29,3.29,0,0,0,.27.77h-1.49c0-.1-.09-.25-.15-.45l-.05-.18a2.72,2.72,0,0,1-.83.56,2.37,2.37,0,0,1-.94.19,1.94,1.94,0,0,1-1.39-.48,1.59,1.59,0,0,1-.51-1.21,1.62,1.62,0,0,1,.23-.86,1.51,1.51,0,0,1,.65-.58,5.09,5.09,0,0,1,1.2-.35,8.19,8.19,0,0,0,1.47-.37V6.34a.78.78,0,0,0-.21-.62,1.29,1.29,0,0,0-.81-.18,1.08,1.08,0,0,0-.63.16A1.1,1.1,0,0,0,626.08,6.25Zm2,1.22a9.44,9.44,0,0,1-.92.23,2.76,2.76,0,0,0-.82.26.63.63,0,0,0-.3.53.74.74,0,0,0,.24.55.83.83,0,0,0,.6.23,1.31,1.31,0,0,0,.78-.27.94.94,0,0,0,.36-.5,2.94,2.94,0,0,0,.06-.74Z" transform="translate(0)"/><path class="a" d="M631,4.51h1.41v.84a2.1,2.1,0,0,1,.74-.7,2.05,2.05,0,0,1,1-.27,2.18,2.18,0,0,1,1.69.78,3.15,3.15,0,0,1,.69,2.17,3.25,3.25,0,0,1-.7,2.22,2.18,2.18,0,0,1-1.69.79,1.92,1.92,0,0,1-.86-.19,2.92,2.92,0,0,1-.81-.64v2.87H631Zm1.49,2.75a2.2,2.2,0,0,0,.38,1.42,1.17,1.17,0,0,0,.93.46,1.09,1.09,0,0,0,.88-.42,2.17,2.17,0,0,0,.35-1.38A2.06,2.06,0,0,0,634.7,6a1.11,1.11,0,0,0-.89-.44,1.16,1.16,0,0,0-.92.43A1.9,1.9,0,0,0,632.53,7.26Z" transform="translate(0)"/><path class="a" d="M637,4.51h5.16V5.73h-1.83v4.48H638.8V5.73H637Z" transform="translate(0)"/><path class="a" d="M644.16,6.25,642.79,6a2.12,2.12,0,0,1,.79-1.22,2.91,2.91,0,0,1,1.68-.4,3.62,3.62,0,0,1,1.5.24,1.5,1.5,0,0,1,.7.61,3.11,3.11,0,0,1,.2,1.35l0,1.76a6.08,6.08,0,0,0,.07,1.11,3.25,3.25,0,0,0,.27.77H646.5c0-.1-.09-.25-.14-.45l-.05-.18a2.74,2.74,0,0,1-.83.56,2.37,2.37,0,0,1-.94.19,1.94,1.94,0,0,1-1.39-.48,1.59,1.59,0,0,1-.51-1.21,1.63,1.63,0,0,1,.23-.86,1.52,1.52,0,0,1,.65-.58,5.09,5.09,0,0,1,1.2-.35,8.16,8.16,0,0,0,1.47-.37V6.34a.79.79,0,0,0-.21-.62,1.29,1.29,0,0,0-.81-.18,1.08,1.08,0,0,0-.63.16A1.11,1.11,0,0,0,644.16,6.25Zm2,1.22c-.19.06-.5.14-.92.23a2.74,2.74,0,0,0-.82.26.63.63,0,0,0-.29.53.74.74,0,0,0,.24.55.82.82,0,0,0,.6.23,1.31,1.31,0,0,0,.78-.27,1,1,0,0,0,.36-.5,3,3,0,0,0,.06-.74Z" transform="translate(0)"/><path class="a" d="M657.18,6.19l-1.49.27a1.08,1.08,0,0,0-.34-.67,1,1,0,0,0-.69-.23,1.12,1.12,0,0,0-.9.39,2,2,0,0,0-.34,1.3,2.32,2.32,0,0,0,.34,1.43,1.12,1.12,0,0,0,.92.42,1,1,0,0,0,.7-.24,1.47,1.47,0,0,0,.39-.84l1.48.25a2.62,2.62,0,0,1-.89,1.54,2.75,2.75,0,0,1-1.76.52,2.61,2.61,0,0,1-2-.79,3.06,3.06,0,0,1-.74-2.19,3.07,3.07,0,0,1,.75-2.2,2.65,2.65,0,0,1,2-.79,2.76,2.76,0,0,1,1.66.45A2.49,2.49,0,0,1,657.18,6.19Z" transform="translate(0)"/><path class="a" d="M659.59,6.25,658.22,6A2.12,2.12,0,0,1,659,4.78a2.91,2.91,0,0,1,1.68-.4,3.62,3.62,0,0,1,1.5.24,1.5,1.5,0,0,1,.7.61,3.11,3.11,0,0,1,.2,1.35l0,1.76a6.08,6.08,0,0,0,.07,1.11,3.25,3.25,0,0,0,.27.77h-1.49c0-.1-.09-.25-.14-.45l-.05-.18a2.74,2.74,0,0,1-.83.56,2.37,2.37,0,0,1-.94.19,1.94,1.94,0,0,1-1.39-.48,1.59,1.59,0,0,1-.51-1.21,1.63,1.63,0,0,1,.23-.86,1.52,1.52,0,0,1,.65-.58,5.09,5.09,0,0,1,1.2-.35,8.16,8.16,0,0,0,1.47-.37V6.34a.79.79,0,0,0-.21-.62,1.29,1.29,0,0,0-.81-.18,1.08,1.08,0,0,0-.63.16A1.11,1.11,0,0,0,659.59,6.25Zm2,1.22c-.19.06-.5.14-.92.23a2.74,2.74,0,0,0-.82.26.63.63,0,0,0-.29.53.74.74,0,0,0,.24.55.82.82,0,0,0,.6.23,1.31,1.31,0,0,0,.78-.27,1,1,0,0,0,.36-.5,3,3,0,0,0,.06-.74Z" transform="translate(0)"/><path class="a" d="M664.54,4.51H666V8.09l2.32-3.58h1.48v5.7h-1.45V6.56L666,10.21h-1.45Zm3.61-2.32h.74a1.7,1.7,0,0,1-.51,1.15,1.83,1.83,0,0,1-2.33,0,1.7,1.7,0,0,1-.51-1.15h.74a.83.83,0,0,0,.27.58,1.25,1.25,0,0,0,1.34,0A.83.83,0,0,0,668.16,2.19Z" transform="translate(0)"/><path class="a" d="M670.67,4.51h5.16V5.73H674v4.48h-1.51V5.73h-1.83Z" transform="translate(0)"/><path class="a" d="M677.86,6.25,676.49,6a2.13,2.13,0,0,1,.79-1.22,2.91,2.91,0,0,1,1.68-.4,3.61,3.61,0,0,1,1.5.24,1.5,1.5,0,0,1,.7.61,3.1,3.1,0,0,1,.2,1.35l0,1.76a6.17,6.17,0,0,0,.07,1.11,3.29,3.29,0,0,0,.27.77h-1.49c0-.1-.09-.25-.14-.45L680,9.59a2.73,2.73,0,0,1-.83.56,2.38,2.38,0,0,1-.94.19,1.94,1.94,0,0,1-1.39-.48,1.59,1.59,0,0,1-.51-1.21,1.62,1.62,0,0,1,.23-.86,1.51,1.51,0,0,1,.65-.58,5.08,5.08,0,0,1,1.2-.35,8.21,8.21,0,0,0,1.47-.37V6.34a.79.79,0,0,0-.21-.62,1.29,1.29,0,0,0-.81-.18,1.08,1.08,0,0,0-.63.16A1.1,1.1,0,0,0,677.86,6.25Zm2,1.22q-.29.1-.92.23a2.75,2.75,0,0,0-.82.26.63.63,0,0,0-.3.53.74.74,0,0,0,.24.55.82.82,0,0,0,.6.23,1.3,1.3,0,0,0,.78-.27.94.94,0,0,0,.36-.5,2.94,2.94,0,0,0,.06-.74Z" transform="translate(0)"/><path class="c" d="M617.32,30.41a6,6,0,0,1,6-6,5.9,5.9,0,0,1,4.25,1.75,5.64,5.64,0,0,1,1.75,4.25,5.89,5.89,0,0,1-1.75,4.25,5.79,5.79,0,0,1-4.25,1.75,5.63,5.63,0,0,1-4.24-1.75A6,6,0,0,1,617.32,30.41Zm1.42.47a4.25,4.25,0,0,0,.32,1.28,4.37,4.37,0,0,0,1,1.52,4.87,4.87,0,0,0,1.5,1l.06-.8q0-.6.1-.92a3.25,3.25,0,0,0-.26-.61,2.3,2.3,0,0,1-.25-.68c0-.15,0-.27,0-.35s0-.14,0-.19a.29.29,0,0,1-.12-.08L621,31a.73.73,0,0,0-.14-.12l-.41-.14-.4-.13a2,2,0,0,1-.35-.14,2.38,2.38,0,0,1-.36-.22l-.31-.26a1.93,1.93,0,0,1-.29-.34A5.24,5.24,0,0,0,618.74,30.88Zm1.7-4.08a1.78,1.78,0,0,1,.42,0,1.38,1.38,0,0,1,.46.37,2.11,2.11,0,0,0,.41.38.2.2,0,0,0,.14,0c0,.07.12.12.28.14a.76.76,0,0,1,.29.08,1.52,1.52,0,0,1,.44.4,1.55,1.55,0,0,1-.44.47s0,0,0,0a.09.09,0,0,1,0,.14l-.29.07a.46.46,0,0,0-.28.13,1,1,0,0,0-.12.29.14.14,0,0,1,0,.1,2.55,2.55,0,0,1,0,.59c0,.18-.07.27-.16.28l-.16,0-.21-.1a1.76,1.76,0,0,1-.29-.2.38.38,0,0,0,0,.17.39.39,0,0,1,0,.16h.07a.12.12,0,0,1,.13,0,.07.07,0,0,1,0,.11l0,.07,0,0,.1,0a.4.4,0,0,0,.23.08l.26,0,.37,0a.71.71,0,0,1,.32.11,1.33,1.33,0,0,1,.26.18,2.07,2.07,0,0,0,.26.2,2,2,0,0,1,.28.22l.26.16a1.76,1.76,0,0,1,.31.23.38.38,0,0,1,.11.25,1.75,1.75,0,0,1-.31,1.14,1.72,1.72,0,0,1-.26.23,1.44,1.44,0,0,0-.28.25,1.75,1.75,0,0,0-.17.27.71.71,0,0,0-.08.33l-.19.41a2.57,2.57,0,0,1-.18.35,4.59,4.59,0,0,0,2.33-.14,4.35,4.35,0,0,0,1.93-1.26,4.45,4.45,0,0,0,.91-1.45,5.24,5.24,0,0,0,.34-1.64l-.44.25c-.19,0-.29,0-.29.1l.19.07s0,0,0,0a.26.26,0,0,1,0,.25,2.15,2.15,0,0,1-.35.43,3.12,3.12,0,0,1,0,.4l-.12.25v.17a1.42,1.42,0,0,1-.11.26,1.11,1.11,0,0,0-.11.3,1.3,1.3,0,0,1-.28.61q-.35.32-.59.28a.31.31,0,0,1-.17-.12c0-.1-.08-.25-.16-.44a3.26,3.26,0,0,0-.14-.35.62.62,0,0,1,0-.24,1.78,1.78,0,0,1,0-.28,1.79,1.79,0,0,0,0-.25.76.76,0,0,0-.08-.28.71.71,0,0,1-.08-.25.36.36,0,0,1,0-.23l-.11,0a1.33,1.33,0,0,0-.38,0h-.14c-.35,0-.58-.22-.67-.66a1,1,0,0,1,.17-.77.46.46,0,0,0,0-.11v-.08c.08,0,.15-.09.21-.23l.43,0,.5-.06a1.27,1.27,0,0,1,.42.06l.19.12.28.16.38-.25a1.76,1.76,0,0,0-.24-.31.41.41,0,0,0-.68,0l-.82-.06a1.16,1.16,0,0,1-.47.13.84.84,0,0,0-.07-.23.81.81,0,0,1-.08-.23.15.15,0,0,1,0-.13l.1-.08a.36.36,0,0,0,.13-.2,2.49,2.49,0,0,0,.06-.29,2.24,2.24,0,0,1,0-.24,1.55,1.55,0,0,1,.2-.37.53.53,0,0,1,.28-.26,2.55,2.55,0,0,1,.42-.16,3.58,3.58,0,0,1,.47-.1l.46,0a6.17,6.17,0,0,0-.91-.64,1.68,1.68,0,0,1-.38-.06,1.64,1.64,0,0,0-.35-.06,1,1,0,0,0-.59.17,1,1,0,0,1-.6.19,2.75,2.75,0,0,1-.9-.16,4.29,4.29,0,0,1-.77-.34A4.36,4.36,0,0,0,620.44,26.8Z" transform="translate(0)"/><path class="a" d="M632.38,26.74h1.78L636,30.82l1.57-4.09h1.66l-2.66,6a5.83,5.83,0,0,1-.89,1.48,1.49,1.49,0,0,1-1.17.51,5.21,5.21,0,0,1-1.1-.09V33.43l.61,0a1.22,1.22,0,0,0,.79-.2,2,2,0,0,0,.46-.87Z" transform="translate(0)"/><path class="a" d="M639.53,28.91H641v2.33a.78.78,0,0,0,.53-.23,3,3,0,0,0,.38-.82,2.18,2.18,0,0,1,.63-1.08,1.57,1.57,0,0,1,.9-.24l.6,0v1a1.63,1.63,0,0,0-.76.11,1.56,1.56,0,0,0-.36.7,1.41,1.41,0,0,1-.76,1,2.08,2.08,0,0,1,1.21,1.24l.06.11.84,1.57h-1.62L641.94,33a2,2,0,0,0-.4-.64.76.76,0,0,0-.5-.14v2.43h-1.5Z" transform="translate(0)"/><path class="a" d="M645.05,28.91h1.41v.84a2.1,2.1,0,0,1,.74-.7,2.05,2.05,0,0,1,1-.27,2.18,2.18,0,0,1,1.69.78,3.15,3.15,0,0,1,.69,2.17,3.25,3.25,0,0,1-.7,2.22,2.18,2.18,0,0,1-1.69.79,1.92,1.92,0,0,1-.86-.19,2.92,2.92,0,0,1-.81-.64v2.87h-1.51Zm1.49,2.75a2.2,2.2,0,0,0,.38,1.42,1.17,1.17,0,0,0,.93.46,1.09,1.09,0,0,0,.88-.42,2.17,2.17,0,0,0,.35-1.38,2.06,2.06,0,0,0-.36-1.33,1.11,1.11,0,0,0-.89-.44,1.16,1.16,0,0,0-.92.43A1.9,1.9,0,0,0,646.54,31.66Z" transform="translate(0)"/><path class="a" d="M652.94,30.65l-1.37-.25a2.12,2.12,0,0,1,.79-1.22,2.91,2.91,0,0,1,1.68-.4,3.62,3.62,0,0,1,1.5.24,1.5,1.5,0,0,1,.7.61,3.11,3.11,0,0,1,.2,1.35l0,1.76a6.08,6.08,0,0,0,.07,1.11,3.25,3.25,0,0,0,.27.77h-1.49c0-.1-.09-.25-.14-.45l-.05-.18a2.74,2.74,0,0,1-.83.56,2.37,2.37,0,0,1-.94.19,1.94,1.94,0,0,1-1.39-.48,1.59,1.59,0,0,1-.51-1.21,1.63,1.63,0,0,1,.23-.86,1.52,1.52,0,0,1,.65-.58,5.09,5.09,0,0,1,1.2-.35,8.16,8.16,0,0,0,1.47-.37v-.15a.79.79,0,0,0-.21-.62,1.29,1.29,0,0,0-.81-.18,1.08,1.08,0,0,0-.63.16A1.11,1.11,0,0,0,652.94,30.65Zm2,1.22c-.19.06-.5.14-.92.23a2.74,2.74,0,0,0-.82.26.63.63,0,0,0-.29.53.74.74,0,0,0,.24.55.82.82,0,0,0,.6.23,1.31,1.31,0,0,0,.78-.27,1,1,0,0,0,.36-.5,3,3,0,0,0,.06-.74Z" transform="translate(0)"/><path class="a" d="M656.88,27.9V26.6h1.29V27.9Zm1,6.71v-5.7h1.51v5.7Zm1.26-6.71V26.6h1.3V27.9Z" transform="translate(0)"/><path class="a" d="M661,28.91h1.51V31h2.16V28.91h1.51v5.7h-1.51v-2.4h-2.16v2.4H661Z" transform="translate(0)"/><path class="a" d="M672.64,30.59l-1.49.27a1.08,1.08,0,0,0-.34-.67,1,1,0,0,0-.69-.23,1.12,1.12,0,0,0-.9.39,2,2,0,0,0-.34,1.3,2.32,2.32,0,0,0,.34,1.43,1.12,1.12,0,0,0,.92.42,1,1,0,0,0,.7-.24,1.47,1.47,0,0,0,.39-.84l1.48.25a2.62,2.62,0,0,1-.89,1.54,2.75,2.75,0,0,1-1.76.52,2.61,2.61,0,0,1-2-.79,3.06,3.06,0,0,1-.74-2.19,3.07,3.07,0,0,1,.75-2.2,2.65,2.65,0,0,1,2-.79,2.76,2.76,0,0,1,1.66.45A2.49,2.49,0,0,1,672.64,30.59Z" transform="translate(0)"/><path class="a" d="M673.82,28.91h1.51v2.37h1.51a5.57,5.57,0,0,1,1.37.13A1.44,1.44,0,0,1,679,32a1.62,1.62,0,0,1,.32,1,1.45,1.45,0,0,1-.57,1.24,2.87,2.87,0,0,1-1.7.42h-3.24Zm1.51,4.75h1.41a1.15,1.15,0,0,0,.85-.21.75.75,0,0,0,.19-.51.57.57,0,0,0-.32-.57,2.86,2.86,0,0,0-1.14-.16h-1Z" transform="translate(0)"/><path class="a" d="M680.49,28.91H682v2.33a.78.78,0,0,0,.53-.23,3.09,3.09,0,0,0,.38-.82,2.19,2.19,0,0,1,.63-1.08,1.56,1.56,0,0,1,.9-.24l.6,0v1a1.62,1.62,0,0,0-.76.11,1.57,1.57,0,0,0-.36.7,1.41,1.41,0,0,1-.76,1,2.08,2.08,0,0,1,1.21,1.24l.06.11.84,1.57h-1.62L682.9,33a2,2,0,0,0-.4-.64.77.77,0,0,0-.5-.14v2.43h-1.5Z" transform="translate(0)"/><path class="a" d="M687.18,30.65l-1.37-.25a2.13,2.13,0,0,1,.79-1.22,2.91,2.91,0,0,1,1.68-.4,3.61,3.61,0,0,1,1.5.24,1.49,1.49,0,0,1,.7.61,3.11,3.11,0,0,1,.2,1.35l0,1.76a6.17,6.17,0,0,0,.07,1.11,3.25,3.25,0,0,0,.27.77h-1.49c0-.1-.09-.25-.15-.45l-.05-.18a2.73,2.73,0,0,1-.83.56,2.37,2.37,0,0,1-.94.19,1.94,1.94,0,0,1-1.39-.48,1.59,1.59,0,0,1-.51-1.21,1.63,1.63,0,0,1,.23-.86,1.51,1.51,0,0,1,.65-.58,5.1,5.1,0,0,1,1.2-.35,8.14,8.14,0,0,0,1.47-.37v-.15a.78.78,0,0,0-.21-.62,1.29,1.29,0,0,0-.81-.18,1.08,1.08,0,0,0-.63.16A1.11,1.11,0,0,0,687.18,30.65Zm2,1.22q-.29.1-.92.23a2.76,2.76,0,0,0-.82.26.63.63,0,0,0-.29.53.74.74,0,0,0,.24.55.82.82,0,0,0,.6.23,1.31,1.31,0,0,0,.78-.27.94.94,0,0,0,.36-.5,3,3,0,0,0,.06-.74Z" transform="translate(0)"/><path class="a" d="M633.17,56.61V48.74h3a7.2,7.2,0,0,1,1.2.08,2.38,2.38,0,0,1,1,.37,1.94,1.94,0,0,1,.63.76,2.57,2.57,0,0,1-.4,2.77,3.06,3.06,0,0,1-2.31.7h-2v3.2Zm1-4.13h2a2.16,2.16,0,0,0,1.43-.37A1.34,1.34,0,0,0,638.1,51a1.43,1.43,0,0,0-.25-.85,1.17,1.17,0,0,0-.66-.46,4.41,4.41,0,0,0-1-.07h-2Z" transform="translate(0)"/><path class="a" d="M640.34,58.81l-.11-.91a2.15,2.15,0,0,0,.55.09,1.07,1.07,0,0,0,.52-.11.88.88,0,0,0,.32-.3,4.89,4.89,0,0,0,.29-.72l.09-.24-2.16-5.71h1l1.19,3.3c.15.42.29.86.41,1.32a13,13,0,0,1,.4-1.3l1.22-3.33h1l-2.17,5.8a11.49,11.49,0,0,1-.54,1.29,1.9,1.9,0,0,1-.59.7,1.39,1.39,0,0,1-.79.22A2,2,0,0,1,640.34,58.81Z" transform="translate(0)"/><path class="a" d="M649.48,54.52l1,.12a2.47,2.47,0,0,1-.8,1.54,2.32,2.32,0,0,1-1.58.56,2.45,2.45,0,0,1-1.88-.77,3.1,3.1,0,0,1-.71-2.19,4,4,0,0,1,.31-1.62,2.13,2.13,0,0,1,.93-1,2.75,2.75,0,0,1,1.36-.35,2.37,2.37,0,0,1,1.52.47,2.16,2.16,0,0,1,.76,1.33l-.94.15a1.56,1.56,0,0,0-.48-.87,1.23,1.23,0,0,0-.82-.29,1.5,1.5,0,0,0-1.19.52,2.49,2.49,0,0,0-.46,1.66,2.57,2.57,0,0,0,.44,1.67,1.43,1.43,0,0,0,1.15.52,1.35,1.35,0,0,0,1-.35A1.73,1.73,0,0,0,649.48,54.52Z" transform="translate(0)"/><path class="a" d="M655,54.52l1,.12a2.47,2.47,0,0,1-.8,1.54,2.32,2.32,0,0,1-1.58.56,2.45,2.45,0,0,1-1.88-.77,3.1,3.1,0,0,1-.71-2.19,4,4,0,0,1,.31-1.62,2.13,2.13,0,0,1,.93-1,2.75,2.75,0,0,1,1.36-.35,2.37,2.37,0,0,1,1.52.47,2.16,2.16,0,0,1,.76,1.33l-.94.15a1.56,1.56,0,0,0-.48-.87,1.23,1.23,0,0,0-.82-.29,1.5,1.5,0,0,0-1.19.52,2.49,2.49,0,0,0-.46,1.66,2.57,2.57,0,0,0,.44,1.67,1.43,1.43,0,0,0,1.15.52,1.35,1.35,0,0,0,1-.35A1.73,1.73,0,0,0,655,54.52Z" transform="translate(0)"/><path class="a" d="M656.75,50.91h1v2.47a.93.93,0,0,0,.65-.18,3.89,3.89,0,0,0,.54-1,4.14,4.14,0,0,1,.46-.89.89.89,0,0,1,.41-.29,2.64,2.64,0,0,1,.74-.08h.19v.8h-.27a.72.72,0,0,0-.49.11,2.85,2.85,0,0,0-.34.7,3,3,0,0,1-.4.77,1.63,1.63,0,0,1-.56.39,2.33,2.33,0,0,1,1.22,1.16l1.06,1.77h-1.06l-1-1.77a2.39,2.39,0,0,0-.55-.7.94.94,0,0,0-.56-.17v2.64h-1Z" transform="translate(0)"/><path class="a" d="M661.57,50.91h1v4.35l2.68-4.35h1v5.7h-1V52.29l-2.68,4.32h-1Z" transform="translate(0)"/><path class="a" d="M667.71,50.91h1v4.35l2.68-4.35h1v5.7h-1V52.29l-2.68,4.32h-1Zm3.36-2.16h.66a1.55,1.55,0,0,1-.49,1,1.59,1.59,0,0,1-1.09.36,1.62,1.62,0,0,1-1.1-.36,1.55,1.55,0,0,1-.49-1h.66a.91.91,0,0,0,.3.54.92.92,0,0,0,.6.18,1.05,1.05,0,0,0,.66-.17A.89.89,0,0,0,671.07,48.75Z" transform="translate(0)"/><path class="a" d="M633.19,78.61V70.74h5.69v.93h-4.65v2.41h4.36V75h-4.36v2.68h4.83v.93Z" transform="translate(0)"/><path class="a" d="M640.38,78.61v-5.7h.87v.81a2,2,0,0,1,1.81-.94A2.37,2.37,0,0,1,644,73a1.49,1.49,0,0,1,.65.49,1.87,1.87,0,0,1,.3.71,5.6,5.6,0,0,1,.05.94v3.51h-1V75.14a2.64,2.64,0,0,0-.11-.88.93.93,0,0,0-.4-.47,1.27,1.27,0,0,0-.67-.17,1.57,1.57,0,0,0-1.07.39,1.94,1.94,0,0,0-.45,1.49v3.12Z" transform="translate(0)"/><path class="a" d="M646.32,79.08l.94.14a.89.89,0,0,0,.33.63,1.61,1.61,0,0,0,1,.27,1.73,1.73,0,0,0,1-.27,1.32,1.32,0,0,0,.49-.75,6.26,6.26,0,0,0,.07-1.24,2,2,0,0,1-1.58.75,2.15,2.15,0,0,1-1.82-.85,3.27,3.27,0,0,1-.64-2,3.78,3.78,0,0,1,.29-1.51,2.36,2.36,0,0,1,.86-1.07,2.31,2.31,0,0,1,1.32-.38,2,2,0,0,1,1.66.82v-.69h.89v4.93a4.68,4.68,0,0,1-.27,1.89,2,2,0,0,1-.86.88,3,3,0,0,1-1.45.32,2.73,2.73,0,0,1-1.65-.46A1.55,1.55,0,0,1,646.32,79.08Zm.8-3.43a2.47,2.47,0,0,0,.45,1.64,1.41,1.41,0,0,0,1.12.52,1.43,1.43,0,0,0,1.12-.51,2.39,2.39,0,0,0,.45-1.61,2.34,2.34,0,0,0-.46-1.58,1.44,1.44,0,0,0-1.12-.53,1.39,1.39,0,0,0-1.1.52A2.32,2.32,0,0,0,647.12,75.66Z" transform="translate(0)"/><path class="a" d="M652.6,78.61V70.74h1v7.87Z" transform="translate(0)"/><path class="a" d="M655.07,71.85V70.74h1v1.11Zm0,6.76v-5.7h1v5.7Z" transform="translate(0)"/><path class="a" d="M657.12,76.91l1-.15a1.33,1.33,0,0,0,.45.88,1.56,1.56,0,0,0,1,.31,1.51,1.51,0,0,0,1-.27.81.81,0,0,0,.32-.64.59.59,0,0,0-.29-.52,4.19,4.19,0,0,0-1-.33,8.93,8.93,0,0,1-1.47-.46,1.41,1.41,0,0,1-.83-1.31,1.47,1.47,0,0,1,.17-.71,1.58,1.58,0,0,1,.48-.54,2,2,0,0,1,.62-.28,2.91,2.91,0,0,1,.83-.12,3.3,3.3,0,0,1,1.18.19,1.6,1.6,0,0,1,.75.52,2,2,0,0,1,.33.88l-.95.13a1,1,0,0,0-.37-.69,1.36,1.36,0,0,0-.87-.25,1.58,1.58,0,0,0-1,.22.64.64,0,0,0-.29.52.53.53,0,0,0,.12.34.85.85,0,0,0,.37.26l.85.25a11.94,11.94,0,0,1,1.43.45,1.45,1.45,0,0,1,.64.51,1.42,1.42,0,0,1,.23.83,1.63,1.63,0,0,1-.28.91,1.83,1.83,0,0,1-.81.66,3,3,0,0,1-1.2.23,2.68,2.68,0,0,1-1.7-.46A2.15,2.15,0,0,1,657.12,76.91Z" transform="translate(0)"/><path class="a" d="M663,78.61V70.74h1v2.83a2.16,2.16,0,0,1,1.71-.78,2.3,2.3,0,0,1,1.1.25,1.47,1.47,0,0,1,.67.69,3.18,3.18,0,0,1,.2,1.28v3.62h-1V75a1.49,1.49,0,0,0-.31-1.05,1.17,1.17,0,0,0-.89-.33,1.57,1.57,0,0,0-.81.22,1.26,1.26,0,0,0-.54.6,2.78,2.78,0,0,0-.16,1.05v3.12Z" transform="translate(0)"/><line class="b" x1="608.99" x2="608.99" y2="120.84"/><path class="a" d="M367.46,6.32a5,5,0,0,1,.36-2,3.69,3.69,0,0,1,.73-1.08,3.07,3.07,0,0,1,1-.71,4.33,4.33,0,0,1,1.7-.31,3.7,3.7,0,0,1,2.79,1.08,4.14,4.14,0,0,1,1,3,4.12,4.12,0,0,1-1,3,4.14,4.14,0,0,1-5.56,0A4.06,4.06,0,0,1,367.46,6.32Zm1.64-.05a3,3,0,0,0,.62,2,2.12,2.12,0,0,0,3.13,0,3,3,0,0,0,.61-2.05,3,3,0,0,0-.59-2,2.2,2.2,0,0,0-3.16,0A3,3,0,0,0,369.1,6.27Z" transform="translate(0)"/><path class="a" d="M379.33,4.51h5.06v5.7h-1.51V5.73h-2v4.48h-1.51Z" transform="translate(0)"/><path class="a" d="M386,4.51h1.41v.84a2.11,2.11,0,0,1,.74-.7,2,2,0,0,1,1-.27,2.17,2.17,0,0,1,1.69.78,3.15,3.15,0,0,1,.69,2.17,3.25,3.25,0,0,1-.7,2.22,2.18,2.18,0,0,1-1.69.79,1.92,1.92,0,0,1-.86-.19,2.89,2.89,0,0,1-.81-.64v2.87H386Zm1.49,2.75a2.19,2.19,0,0,0,.38,1.42,1.16,1.16,0,0,0,.93.46,1.09,1.09,0,0,0,.88-.42A2.17,2.17,0,0,0,390,7.34,2.06,2.06,0,0,0,389.66,6a1.11,1.11,0,0,0-.89-.44,1.16,1.16,0,0,0-.92.43A1.9,1.9,0,0,0,387.48,7.26Z" transform="translate(0)"/><path class="a" d="M392.4,7.28a3.1,3.1,0,0,1,.37-1.46,2.56,2.56,0,0,1,1.05-1.07,3.13,3.13,0,0,1,1.52-.37,2.85,2.85,0,0,1,2.12.84,2.91,2.91,0,0,1,.83,2.12,2.94,2.94,0,0,1-.83,2.15,2.82,2.82,0,0,1-2.1.85,3.31,3.31,0,0,1-1.5-.35,2.44,2.44,0,0,1-1.08-1A3.48,3.48,0,0,1,392.4,7.28Zm1.55.08a1.88,1.88,0,0,0,.4,1.3,1.32,1.32,0,0,0,2,0,1.92,1.92,0,0,0,.4-1.31,1.88,1.88,0,0,0-.4-1.29,1.32,1.32,0,0,0-2,0A1.89,1.89,0,0,0,393.95,7.36Z" transform="translate(0)"/><path class="a" d="M399.43,4.51h1.45V8.09l2.32-3.58h1.48v5.7h-1.45V6.57l-2.35,3.65h-1.45Z" transform="translate(0)"/><path class="a" d="M407.77,7.87v-1a2.26,2.26,0,0,0,.57-.05.76.76,0,0,0,.49-.7.75.75,0,0,0-.2-.5.73.73,0,0,0-.59-.23,1.11,1.11,0,0,0-.54.13,1.17,1.17,0,0,0-.43.61l-1.28-.27a1.77,1.77,0,0,1,.83-1.13,2.78,2.78,0,0,1,1.45-.38,2.42,2.42,0,0,1,1.6.47A1.48,1.48,0,0,1,410.24,6a1.11,1.11,0,0,1-.24.74,2.26,2.26,0,0,1-.77.54,1.92,1.92,0,0,1,.95.52,1.26,1.26,0,0,1,.31.87,1.42,1.42,0,0,1-.62,1.15,2.89,2.89,0,0,1-1.79.48,2.26,2.26,0,0,1-2.5-1.6L407,8.49a1.14,1.14,0,0,0,1.1.84,1,1,0,0,0,.68-.22.68.68,0,0,0,.25-.52.61.61,0,0,0-.27-.52,1.17,1.17,0,0,0-.7-.19Z" transform="translate(0)"/><path class="a" d="M411.72,4.51H415a2.57,2.57,0,0,1,1.52.37A1.3,1.3,0,0,1,417,6a1.34,1.34,0,0,1-1,1.31,1.48,1.48,0,0,1,.88.54,1.45,1.45,0,0,1,.29.87,1.35,1.35,0,0,1-.49,1.08,2.18,2.18,0,0,1-1.45.42h-3.59Zm1.52,2.37h1a2.17,2.17,0,0,0,1-.18.6.6,0,0,0,.31-.56.53.53,0,0,0-.29-.51,2.45,2.45,0,0,0-1-.15h-1Zm0,2.37h1.19a2.11,2.11,0,0,0,.94-.16.58.58,0,0,0,.3-.56.58.58,0,0,0-.34-.58A3.59,3.59,0,0,0,414,7.8h-.77Z" transform="translate(0)"/><path class="a" d="M418,7.28a3.1,3.1,0,0,1,.37-1.46,2.56,2.56,0,0,1,1.05-1.07,3.13,3.13,0,0,1,1.52-.37,2.85,2.85,0,0,1,2.12.84,2.91,2.91,0,0,1,.83,2.12A2.94,2.94,0,0,1,423,9.49a2.82,2.82,0,0,1-2.1.85,3.31,3.31,0,0,1-1.5-.35,2.44,2.44,0,0,1-1.08-1A3.48,3.48,0,0,1,418,7.28Zm1.55.08a1.88,1.88,0,0,0,.4,1.3,1.32,1.32,0,0,0,2,0,1.92,1.92,0,0,0,.4-1.31,1.88,1.88,0,0,0-.4-1.29,1.32,1.32,0,0,0-2,0A1.89,1.89,0,0,0,419.51,7.36Z" transform="translate(0)"/><path class="a" d="M429.61,10.21h-4.32v1.5h-1.22V9h.62a3.34,3.34,0,0,0,.64-1.34,14.36,14.36,0,0,0,.3-3.13h4.6V9h.61v2.74h-1.23ZM428.73,9V5.75h-1.83A6,6,0,0,1,426.16,9Z" transform="translate(0)"/><path class="a" d="M431.84,4.51h1.45V8.09l2.32-3.58h1.48v5.7h-1.45V6.57l-2.35,3.65h-1.45Z" transform="translate(0)"/><path class="a" d="M438,4.51h5.16V5.73h-1.83v4.48h-1.51V5.73H438Z" transform="translate(0)"/><path class="a" d="M447.33,8.4l1.5.25a2.46,2.46,0,0,1-.92,1.26,2.69,2.69,0,0,1-1.57.43,2.55,2.55,0,0,1-2.2-1,3.26,3.26,0,0,1-.56-2,3.15,3.15,0,0,1,.74-2.22,2.44,2.44,0,0,1,1.87-.8,2.53,2.53,0,0,1,2,.84,3.72,3.72,0,0,1,.7,2.58h-3.78a1.53,1.53,0,0,0,.37,1,1.14,1.14,0,0,0,.87.37A.92.92,0,0,0,447,9,1.19,1.19,0,0,0,447.33,8.4Zm.09-1.53a1.45,1.45,0,0,0-.34-1,1.09,1.09,0,0,0-1.6,0,1.39,1.39,0,0,0-.32,1Z" transform="translate(0)"/><path class="a" d="M450.55,4.51h5.05v5.7h-1.5V5.73H452V8.29a3,3,0,0,1-.23,1.37,1.17,1.17,0,0,1-.5.52,2.28,2.28,0,0,1-.88.12,6.18,6.18,0,0,1-1-.1V9.1h.25l.37,0c.2,0,.33-.07.38-.2a4.94,4.94,0,0,0,.07-1.12Z" transform="translate(0)"/><path class="a" d="M462,4.51v5.7h-1.5V7.84h-.14a1.54,1.54,0,0,0-.72.13,1.7,1.7,0,0,0-.51.53l-.09.11-1,1.6h-1.76l1.08-1.65a1.81,1.81,0,0,1,.84-.82,1.43,1.43,0,0,1-1-.48,1.64,1.64,0,0,1-.39-1.13,1.67,1.67,0,0,1,.26-.95,1.3,1.3,0,0,1,.69-.53A4.38,4.38,0,0,1,459,4.51Zm-1.5,1h-1.08a1.53,1.53,0,0,0-.84.17.64.64,0,0,0-.24.56.61.61,0,0,0,.27.56,1.76,1.76,0,0,0,.9.17h1Z" transform="translate(0)"/><path class="a" d="M462.82,10.21l2.06-2.94-2-2.77h1.84l1,1.57,1.06-1.57h1.77l-1.93,2.7,2.11,3h-1.85l-1.16-1.77-1.17,1.77Z" transform="translate(0)"/><path class="a" d="M371.52,29.13V28.2h3.33v2.92a5.88,5.88,0,0,1-1.58.92,4.7,4.7,0,0,1-1.68.31,4.47,4.47,0,0,1-2.11-.5,3.29,3.29,0,0,1-1.43-1.44,4.53,4.53,0,0,1-.48-2.1,4.86,4.86,0,0,1,.48-2.15,3.2,3.2,0,0,1,1.38-1.48,4.33,4.33,0,0,1,2.08-.48,4.12,4.12,0,0,1,1.54.28,2.56,2.56,0,0,1,1.08.77,3.43,3.43,0,0,1,.6,1.29l-.94.26a2.9,2.9,0,0,0-.44-.95,1.8,1.8,0,0,0-.75-.55,2.76,2.76,0,0,0-1.08-.21,3.21,3.21,0,0,0-1.24.22,2.32,2.32,0,0,0-.84.57,2.76,2.76,0,0,0-.5.78,4.13,4.13,0,0,0-.3,1.58A3.84,3.84,0,0,0,369,30a2.32,2.32,0,0,0,1.05,1.05,3.27,3.27,0,0,0,1.47.34,3.49,3.49,0,0,0,1.32-.26,3.42,3.42,0,0,0,1-.56V29.13Z" transform="translate(0)"/><path class="a" d="M376.27,25.45V24.34h1v1.11Zm0,6.76v-5.7h1v5.7Z" transform="translate(0)"/><path class="a" d="M378.53,32.69l.94.14a.9.9,0,0,0,.33.63,1.61,1.61,0,0,0,1,.27,1.73,1.73,0,0,0,1-.27,1.32,1.32,0,0,0,.49-.75,6.16,6.16,0,0,0,.07-1.24,2,2,0,0,1-1.58.75,2.15,2.15,0,0,1-1.82-.85,3.27,3.27,0,0,1-.64-2,3.8,3.8,0,0,1,.29-1.51,2.36,2.36,0,0,1,.86-1.07,2.31,2.31,0,0,1,1.32-.38,2,2,0,0,1,1.67.82v-.69h.89v4.93a4.66,4.66,0,0,1-.27,1.89,2,2,0,0,1-.86.88,3,3,0,0,1-1.45.32,2.72,2.72,0,0,1-1.65-.46A1.55,1.55,0,0,1,378.53,32.69Zm.8-3.43a2.48,2.48,0,0,0,.45,1.64,1.42,1.42,0,0,0,1.12.52A1.43,1.43,0,0,0,382,30.9a2.39,2.39,0,0,0,.45-1.61,2.33,2.33,0,0,0-.46-1.58,1.44,1.44,0,0,0-1.12-.53,1.39,1.39,0,0,0-1.1.52A2.32,2.32,0,0,0,379.33,29.26Z" transform="translate(0)"/><path class="a" d="M384.47,29.36a2.94,2.94,0,0,1,.88-2.35,2.65,2.65,0,0,1,1.79-.63,2.56,2.56,0,0,1,1.92.77,2.93,2.93,0,0,1,.75,2.13,3.77,3.77,0,0,1-.33,1.73,2.34,2.34,0,0,1-1,1,2.8,2.8,0,0,1-1.38.35,2.56,2.56,0,0,1-1.94-.77A3.07,3.07,0,0,1,384.47,29.36Zm1,0a2.43,2.43,0,0,0,.48,1.64,1.59,1.59,0,0,0,2.4,0,2.48,2.48,0,0,0,.48-1.67,2.36,2.36,0,0,0-.48-1.6,1.59,1.59,0,0,0-2.4,0A2.42,2.42,0,0,0,385.46,29.36Z" transform="translate(0)"/><path class="a" d="M367.86,54.21V46.34h5.69v.93H368.9v2.41h4.36v.92H368.9v2.68h4.83v.93Z" transform="translate(0)"/><path class="a" d="M377.16,53.35l.14.85a3.57,3.57,0,0,1-.73.09,1.65,1.65,0,0,1-.82-.17.93.93,0,0,1-.41-.44,3.45,3.45,0,0,1-.12-1.14V49.26h-.71v-.75h.71V47.1l1-.58v2h1v.75h-1V52.6a1.67,1.67,0,0,0,.05.53.4.4,0,0,0,.17.19.65.65,0,0,0,.33.07Z" transform="translate(0)"/><path class="a" d="M382,52.38l1,.12a2.44,2.44,0,0,1-.88,1.36,3,3,0,0,1-3.62-.29,3,3,0,0,1-.73-2.16,3.15,3.15,0,0,1,.74-2.23,2.51,2.51,0,0,1,1.92-.79,2.44,2.44,0,0,1,1.87.78,3.1,3.1,0,0,1,.72,2.19c0,.06,0,.14,0,.26h-4.25a2.19,2.19,0,0,0,.53,1.44,1.58,1.58,0,0,0,1.19.5,1.48,1.48,0,0,0,.91-.28A1.86,1.86,0,0,0,382,52.38Zm-3.17-1.56H382a1.93,1.93,0,0,0-.37-1.08,1.48,1.48,0,0,0-1.2-.56,1.53,1.53,0,0,0-1.12.45A1.76,1.76,0,0,0,378.83,50.81Z" transform="translate(0)"/><path class="a" d="M384.21,54.21v-5.7h.87v.86a2.37,2.37,0,0,1,.62-.8,1.07,1.07,0,0,1,.62-.19,1.88,1.88,0,0,1,1,.31l-.33.9a1.39,1.39,0,0,0-.71-.21.92.92,0,0,0-.57.19,1,1,0,0,0-.36.53,3.77,3.77,0,0,0-.16,1.13v3Z" transform="translate(0)"/><path class="a" d="M387.88,54.21v-5.7h.87v.81a2.05,2.05,0,0,1,1.82-.94,2.37,2.37,0,0,1,.95.19,1.49,1.49,0,0,1,.65.49,1.87,1.87,0,0,1,.3.71,5.49,5.49,0,0,1,.05.94v3.51h-1V50.74a2.58,2.58,0,0,0-.11-.88.92.92,0,0,0-.4-.47,1.28,1.28,0,0,0-.67-.17,1.57,1.57,0,0,0-1.07.39,1.93,1.93,0,0,0-.45,1.49v3.12Z" transform="translate(0)"/><path class="a" d="M397.72,53.51a3.63,3.63,0,0,1-1,.64,3,3,0,0,1-1.07.19,2.07,2.07,0,0,1-1.44-.46,1.52,1.52,0,0,1-.51-1.17,1.59,1.59,0,0,1,.69-1.32,2.36,2.36,0,0,1,.7-.32,7,7,0,0,1,.86-.14,8.8,8.8,0,0,0,1.72-.33c0-.13,0-.22,0-.25a1.07,1.07,0,0,0-.27-.83,1.62,1.62,0,0,0-1.1-.33,1.7,1.7,0,0,0-1,.24,1.46,1.46,0,0,0-.48.85l-.95-.13a2.34,2.34,0,0,1,.42-1,1.85,1.85,0,0,1,.85-.58,3.82,3.82,0,0,1,1.29-.2,3.43,3.43,0,0,1,1.19.17,1.56,1.56,0,0,1,.67.43,1.51,1.51,0,0,1,.3.66,5.3,5.3,0,0,1,0,.89v1.29a13.47,13.47,0,0,0,.06,1.71,2.14,2.14,0,0,0,.24.68h-1A2,2,0,0,1,397.72,53.51Zm-.08-2.16a7,7,0,0,1-1.58.37,3.7,3.7,0,0,0-.84.19.85.85,0,0,0-.38.31.85.85,0,0,0,.16,1.1,1.26,1.26,0,0,0,.86.26,2,2,0,0,0,1-.24,1.51,1.51,0,0,0,.64-.67,2.34,2.34,0,0,0,.16-1Z" transform="translate(0)"/><path class="a" d="M400.1,54.21V46.34h1v7.87Z" transform="translate(0)"/><path class="a" d="M405.39,51.68l1-.09a2.17,2.17,0,0,0,.33,1,1.77,1.77,0,0,0,.79.61,3,3,0,0,0,1.21.23,2.9,2.9,0,0,0,1.05-.18,1.46,1.46,0,0,0,.68-.49,1.13,1.13,0,0,0,.22-.67,1,1,0,0,0-.21-.65,1.59,1.59,0,0,0-.71-.46,14,14,0,0,0-1.4-.38,7.16,7.16,0,0,1-1.52-.49,2.13,2.13,0,0,1-.84-.73,1.79,1.79,0,0,1-.28-1,2,2,0,0,1,.34-1.12,2.11,2.11,0,0,1,1-.79,3.76,3.76,0,0,1,1.45-.27,4,4,0,0,1,1.54.28,2.22,2.22,0,0,1,1,.83,2.38,2.38,0,0,1,.39,1.24l-1,.08a1.62,1.62,0,0,0-.55-1.13,2.12,2.12,0,0,0-1.37-.38,2.2,2.2,0,0,0-1.38.35,1,1,0,0,0-.43.83.9.9,0,0,0,.31.7,4.15,4.15,0,0,0,1.57.56,10.37,10.37,0,0,1,1.74.5,2.38,2.38,0,0,1,1,.8,2,2,0,0,1,.33,1.12,2.14,2.14,0,0,1-.36,1.18,2.37,2.37,0,0,1-1,.86,3.6,3.6,0,0,1-1.52.31A4.53,4.53,0,0,1,407,54a2.5,2.5,0,0,1-1.13-.94A2.65,2.65,0,0,1,405.39,51.68Z" transform="translate(0)"/><path class="a" d="M413,54.21V46.34h1v2.83a2.16,2.16,0,0,1,1.71-.78,2.3,2.3,0,0,1,1.1.25,1.47,1.47,0,0,1,.67.69,3.18,3.18,0,0,1,.2,1.28v3.62h-1V50.6a1.49,1.49,0,0,0-.31-1.05,1.16,1.16,0,0,0-.89-.33,1.57,1.57,0,0,0-.81.22,1.26,1.26,0,0,0-.54.6,2.78,2.78,0,0,0-.16,1.05v3.12Z" transform="translate(0)"/><path class="a" d="M419.08,47.45V46.34h1v1.11Zm0,6.76v-5.7h1v5.7Z" transform="translate(0)"/><path class="a" d="M425.42,52.38l1,.12a2.44,2.44,0,0,1-.87,1.36,3,3,0,0,1-3.62-.29,3,3,0,0,1-.73-2.16,3.15,3.15,0,0,1,.74-2.23,2.51,2.51,0,0,1,1.92-.79,2.44,2.44,0,0,1,1.87.78,3.09,3.09,0,0,1,.73,2.19c0,.06,0,.14,0,.26H422.2a2.19,2.19,0,0,0,.53,1.44,1.58,1.58,0,0,0,1.19.5,1.47,1.47,0,0,0,.91-.28A1.86,1.86,0,0,0,425.42,52.38Zm-3.17-1.56h3.19a1.93,1.93,0,0,0-.37-1.08,1.48,1.48,0,0,0-1.2-.56,1.53,1.53,0,0,0-1.12.45A1.77,1.77,0,0,0,422.25,50.81Z" transform="translate(0)"/><path class="a" d="M427.61,54.21V46.34h1v7.87Z" transform="translate(0)"/><path class="a" d="M433.78,54.21v-.72a1.78,1.78,0,0,1-1.59.85,2.24,2.24,0,0,1-1.25-.38,2.47,2.47,0,0,1-.89-1,3.62,3.62,0,0,1-.31-1.55,4,4,0,0,1,.29-1.55,2.25,2.25,0,0,1,.85-1.07,2.29,2.29,0,0,1,1.27-.37,1.89,1.89,0,0,1,.92.22,1.92,1.92,0,0,1,.66.57V46.34h1v7.87Zm-3.06-2.85a2.48,2.48,0,0,0,.46,1.64,1.39,1.39,0,0,0,1.09.54,1.37,1.37,0,0,0,1.08-.52,2.39,2.39,0,0,0,.44-1.58,2.68,2.68,0,0,0-.45-1.72,1.39,1.39,0,0,0-1.11-.55,1.34,1.34,0,0,0-1.08.53A2.6,2.6,0,0,0,430.72,51.37Z" transform="translate(0)"/><path class="a" d="M367.87,76.21V68.34h1v3.23H373V68.34h1v7.87h-1V72.5h-4.09v3.71Z" transform="translate(0)"/><path class="a" d="M379.39,76.21v-.84a2.09,2.09,0,0,1-1.81,1,2.3,2.3,0,0,1-.94-.19,1.54,1.54,0,0,1-.65-.49,1.82,1.82,0,0,1-.3-.72,4.94,4.94,0,0,1-.06-.9V70.51h1v3.16a5.69,5.69,0,0,0,.06,1,1,1,0,0,0,.39.6,1.2,1.2,0,0,0,.73.22,1.59,1.59,0,0,0,.82-.22,1.24,1.24,0,0,0,.54-.61,3.05,3.05,0,0,0,.16-1.12V70.51h1v5.7Z" transform="translate(0)"/><path class="a" d="M381.78,69.45V68.34h1v1.11Zm0,6.76v-5.7h1v5.7Z" transform="translate(0)"/><path class="a" d="M384.19,76.21V68.34h1v7.87Z" transform="translate(0)"/><path class="a" d="M390.56,74.38l1,.12a2.43,2.43,0,0,1-.88,1.36,3,3,0,0,1-3.62-.29,3,3,0,0,1-.73-2.16,3.15,3.15,0,0,1,.74-2.23,2.51,2.51,0,0,1,1.92-.79,2.44,2.44,0,0,1,1.87.78,3.1,3.1,0,0,1,.72,2.19q0,.09,0,.26h-4.25a2.19,2.19,0,0,0,.53,1.44,1.58,1.58,0,0,0,1.19.5,1.48,1.48,0,0,0,.91-.28A1.86,1.86,0,0,0,390.56,74.38Zm-3.17-1.56h3.18a1.93,1.93,0,0,0-.37-1.08,1.48,1.48,0,0,0-1.2-.56,1.53,1.53,0,0,0-1.12.45A1.76,1.76,0,0,0,387.39,72.81Z" transform="translate(0)"/><path class="a" d="M397.76,76.21V69.27h-2.59v-.93h6.24v.93h-2.6v6.95Z" transform="translate(0)"/><path class="a" d="M400.78,73.36a2.94,2.94,0,0,1,.88-2.35,2.65,2.65,0,0,1,1.79-.63,2.56,2.56,0,0,1,1.92.77,2.93,2.93,0,0,1,.75,2.13,3.77,3.77,0,0,1-.33,1.73,2.34,2.34,0,0,1-1,1,2.8,2.8,0,0,1-1.38.35,2.56,2.56,0,0,1-1.94-.77A3.07,3.07,0,0,1,400.78,73.36Zm1,0a2.43,2.43,0,0,0,.48,1.64,1.59,1.59,0,0,0,2.4,0,2.48,2.48,0,0,0,.48-1.67,2.36,2.36,0,0,0-.48-1.6,1.59,1.59,0,0,0-2.4,0A2.42,2.42,0,0,0,401.77,73.36Z" transform="translate(0)"/><path class="a" d="M407.21,78.41l-.11-.91a2.15,2.15,0,0,0,.55.09,1.07,1.07,0,0,0,.52-.11.88.88,0,0,0,.32-.3,4.89,4.89,0,0,0,.29-.72l.09-.24-2.16-5.71h1l1.19,3.3c.15.42.29.86.41,1.32a13,13,0,0,1,.4-1.3L411,70.51h1l-2.17,5.8a11.49,11.49,0,0,1-.54,1.29,1.9,1.9,0,0,1-.59.7,1.39,1.39,0,0,1-.79.22A2,2,0,0,1,407.21,78.41Z" transform="translate(0)"/><path class="a" d="M412.37,74.51l1-.15a1.33,1.33,0,0,0,.45.88,1.56,1.56,0,0,0,1,.31,1.51,1.51,0,0,0,1-.27.81.81,0,0,0,.32-.64.59.59,0,0,0-.29-.52,4.19,4.19,0,0,0-1-.33,8.93,8.93,0,0,1-1.47-.46,1.41,1.41,0,0,1-.83-1.31,1.47,1.47,0,0,1,.17-.71,1.58,1.58,0,0,1,.48-.54,2,2,0,0,1,.62-.28,2.91,2.91,0,0,1,.83-.12,3.3,3.3,0,0,1,1.18.19,1.6,1.6,0,0,1,.75.52,2,2,0,0,1,.33.88l-.95.13a1,1,0,0,0-.37-.69,1.36,1.36,0,0,0-.87-.25,1.58,1.58,0,0,0-1,.22.64.64,0,0,0-.29.52.53.53,0,0,0,.12.34.85.85,0,0,0,.37.26l.85.25a11.94,11.94,0,0,1,1.43.45,1.45,1.45,0,0,1,.64.51,1.42,1.42,0,0,1,.23.83,1.63,1.63,0,0,1-.28.91,1.83,1.83,0,0,1-.81.66,3,3,0,0,1-1.2.23,2.68,2.68,0,0,1-1.7-.46A2.15,2.15,0,0,1,412.37,74.51Z" transform="translate(0)"/><path class="a" d="M370.08,98.21,367,90.34h1.13l2,5.72q.25.69.41,1.29.18-.64.42-1.29l2.13-5.72h1.06l-3.08,7.87Z" transform="translate(0)"/><path class="a" d="M374.85,91.45V90.34h1v1.11Zm0,6.76v-5.7h1v5.7Z" transform="translate(0)"/><path class="a" d="M377.12,98.69l.94.14a.9.9,0,0,0,.33.63,1.61,1.61,0,0,0,1,.27,1.73,1.73,0,0,0,1-.27,1.32,1.32,0,0,0,.49-.75,6.16,6.16,0,0,0,.07-1.24,2,2,0,0,1-1.58.75,2.15,2.15,0,0,1-1.82-.85,3.27,3.27,0,0,1-.64-2,3.8,3.8,0,0,1,.29-1.51,2.36,2.36,0,0,1,.86-1.07,2.31,2.31,0,0,1,1.32-.38,2,2,0,0,1,1.67.82v-.69h.89v4.93a4.66,4.66,0,0,1-.27,1.89,2,2,0,0,1-.86.88,3,3,0,0,1-1.45.32,2.72,2.72,0,0,1-1.65-.46A1.55,1.55,0,0,1,377.12,98.69Zm.8-3.43a2.48,2.48,0,0,0,.45,1.64,1.42,1.42,0,0,0,1.12.52,1.43,1.43,0,0,0,1.12-.51,2.39,2.39,0,0,0,.45-1.61,2.33,2.33,0,0,0-.46-1.58,1.44,1.44,0,0,0-1.12-.53,1.39,1.39,0,0,0-1.1.52A2.32,2.32,0,0,0,377.92,95.26Z" transform="translate(0)"/><path class="a" d="M387.13,97.51a3.63,3.63,0,0,1-1,.64,3,3,0,0,1-1.07.19,2.07,2.07,0,0,1-1.44-.46,1.52,1.52,0,0,1-.51-1.17,1.59,1.59,0,0,1,.69-1.32,2.36,2.36,0,0,1,.7-.32,7,7,0,0,1,.86-.14,8.8,8.8,0,0,0,1.72-.33c0-.13,0-.22,0-.25a1.07,1.07,0,0,0-.27-.83,1.62,1.62,0,0,0-1.1-.33,1.7,1.7,0,0,0-1,.24,1.46,1.46,0,0,0-.48.85l-.95-.13a2.34,2.34,0,0,1,.42-1,1.85,1.85,0,0,1,.85-.58,3.82,3.82,0,0,1,1.29-.2,3.43,3.43,0,0,1,1.19.17,1.56,1.56,0,0,1,.67.43,1.51,1.51,0,0,1,.3.66,5.3,5.3,0,0,1,0,.89v1.29a13.47,13.47,0,0,0,.06,1.71,2.14,2.14,0,0,0,.24.68h-1A2,2,0,0,1,387.13,97.51Zm-.08-2.16a7,7,0,0,1-1.58.37,3.7,3.7,0,0,0-.84.19.85.85,0,0,0-.38.31.85.85,0,0,0,.16,1.1,1.26,1.26,0,0,0,.86.26,2,2,0,0,0,1-.24,1.51,1.51,0,0,0,.64-.67,2.34,2.34,0,0,0,.16-1Z" transform="translate(0)"/><path class="a" d="M394.51,98.21V91.27h-2.59v-.93h6.24v.93h-2.6v6.95Z" transform="translate(0)"/><path class="a" d="M397.53,95.36a2.94,2.94,0,0,1,.88-2.35,2.65,2.65,0,0,1,1.79-.63,2.56,2.56,0,0,1,1.92.77,2.93,2.93,0,0,1,.75,2.13,3.77,3.77,0,0,1-.33,1.73,2.33,2.33,0,0,1-1,1,2.8,2.8,0,0,1-1.38.35,2.57,2.57,0,0,1-1.94-.77A3.07,3.07,0,0,1,397.53,95.36Zm1,0A2.43,2.43,0,0,0,399,97a1.59,1.59,0,0,0,2.4,0,2.49,2.49,0,0,0,.48-1.67,2.36,2.36,0,0,0-.48-1.6,1.59,1.59,0,0,0-2.4,0A2.42,2.42,0,0,0,398.52,95.36Z" transform="translate(0)"/><path class="a" d="M404,100.41l-.11-.91a2.14,2.14,0,0,0,.55.09,1.07,1.07,0,0,0,.52-.11.87.87,0,0,0,.32-.3,4.78,4.78,0,0,0,.29-.72l.09-.24-2.16-5.71h1l1.19,3.3c.15.42.29.86.41,1.32a13.25,13.25,0,0,1,.4-1.3l1.22-3.33h1l-2.17,5.8A11.44,11.44,0,0,1,406,99.6a1.91,1.91,0,0,1-.59.7,1.4,1.4,0,0,1-.79.22A2,2,0,0,1,404,100.41Z" transform="translate(0)"/><path class="a" d="M409.12,96.51l1-.15a1.33,1.33,0,0,0,.45.88,1.55,1.55,0,0,0,1,.31,1.51,1.51,0,0,0,1-.27.81.81,0,0,0,.32-.64.59.59,0,0,0-.28-.52,4.2,4.2,0,0,0-1-.33,8.93,8.93,0,0,1-1.47-.46,1.41,1.41,0,0,1-.84-1.31,1.48,1.48,0,0,1,.17-.71,1.57,1.57,0,0,1,.48-.54,2,2,0,0,1,.62-.28,2.91,2.91,0,0,1,.83-.12,3.3,3.3,0,0,1,1.18.19,1.61,1.61,0,0,1,.75.52,2,2,0,0,1,.33.88l-.95.13a1,1,0,0,0-.37-.69,1.36,1.36,0,0,0-.87-.25,1.59,1.59,0,0,0-1,.22.64.64,0,0,0-.28.52.54.54,0,0,0,.12.34.85.85,0,0,0,.37.26l.85.25a12,12,0,0,1,1.43.45,1.46,1.46,0,0,1,.64.51,1.42,1.42,0,0,1,.23.83,1.62,1.62,0,0,1-.28.91,1.83,1.83,0,0,1-.81.66,3,3,0,0,1-1.2.23,2.68,2.68,0,0,1-1.7-.46A2.15,2.15,0,0,1,409.12,96.51Z" transform="translate(0)"/><path class="a" d="M369.21,120.21l-2.09-7.87h1.07l1.2,5.16q.19.81.33,1.61.3-1.26.36-1.46l1.5-5.32h1.26l1.13,4a21.2,21.2,0,0,1,.61,2.79q.15-.75.39-1.71l1.24-5.06h1l-2.16,7.87h-1l-1.66-6q-.21-.75-.25-.92-.12.54-.23.92l-1.67,6Z" transform="translate(0)"/><path class="a" d="M377.53,117.36a2.94,2.94,0,0,1,.88-2.35,2.65,2.65,0,0,1,1.79-.63,2.56,2.56,0,0,1,1.92.77,2.94,2.94,0,0,1,.75,2.13,3.77,3.77,0,0,1-.33,1.73,2.33,2.33,0,0,1-1,1,2.79,2.79,0,0,1-1.38.35,2.57,2.57,0,0,1-1.94-.77A3.07,3.07,0,0,1,377.53,117.36Zm1,0A2.43,2.43,0,0,0,379,119a1.59,1.59,0,0,0,2.4,0,2.48,2.48,0,0,0,.48-1.67,2.36,2.36,0,0,0-.48-1.6,1.59,1.59,0,0,0-2.4,0A2.42,2.42,0,0,0,378.53,117.36Z" transform="translate(0)"/><path class="a" d="M384,120.21v-5.7h.87v.81a2.05,2.05,0,0,1,1.82-.94,2.37,2.37,0,0,1,.95.19,1.49,1.49,0,0,1,.65.49,1.89,1.89,0,0,1,.3.71,5.63,5.63,0,0,1,.05.94v3.51h-1v-3.47a2.61,2.61,0,0,0-.11-.88.93.93,0,0,0-.4-.47,1.28,1.28,0,0,0-.67-.17,1.57,1.57,0,0,0-1.07.39,1.93,1.93,0,0,0-.45,1.49v3.12Z" transform="translate(0)"/><path class="a" d="M393.83,120.21v-.72a1.77,1.77,0,0,1-1.6.85A2.24,2.24,0,0,1,391,120a2.47,2.47,0,0,1-.89-1,3.62,3.62,0,0,1-.31-1.55,4.06,4.06,0,0,1,.28-1.55,2.25,2.25,0,0,1,.85-1.07,2.29,2.29,0,0,1,1.27-.37,1.9,1.9,0,0,1,1.57.78v-2.83h1v7.87Zm-3.06-2.85a2.47,2.47,0,0,0,.46,1.64,1.39,1.39,0,0,0,1.09.54,1.37,1.37,0,0,0,1.08-.52,2.39,2.39,0,0,0,.44-1.58,2.68,2.68,0,0,0-.45-1.72,1.39,1.39,0,0,0-1.11-.55,1.34,1.34,0,0,0-1.08.53A2.6,2.6,0,0,0,390.77,117.37Z" transform="translate(0)"/><path class="a" d="M400.15,118.38l1,.12a2.44,2.44,0,0,1-.87,1.36,3,3,0,0,1-3.62-.29,3,3,0,0,1-.73-2.16,3.15,3.15,0,0,1,.74-2.23,2.51,2.51,0,0,1,1.92-.79,2.44,2.44,0,0,1,1.87.78,3.1,3.1,0,0,1,.73,2.19q0,.09,0,.26h-4.25a2.19,2.19,0,0,0,.53,1.44,1.58,1.58,0,0,0,1.19.5,1.48,1.48,0,0,0,.91-.28A1.86,1.86,0,0,0,400.15,118.38ZM397,116.81h3.18a1.93,1.93,0,0,0-.37-1.08,1.48,1.48,0,0,0-1.2-.56,1.53,1.53,0,0,0-1.12.45A1.76,1.76,0,0,0,397,116.81Z" transform="translate(0)"/><path class="a" d="M402.35,120.21v-5.7h.87v.86a2.36,2.36,0,0,1,.61-.8,1.08,1.08,0,0,1,.62-.19,1.88,1.88,0,0,1,1,.31l-.33.9a1.39,1.39,0,0,0-.71-.21.92.92,0,0,0-.57.19,1,1,0,0,0-.36.53,3.77,3.77,0,0,0-.16,1.13v3Z" transform="translate(0)"/><path class="a" d="M406.11,120.21v-7.87h1v3.91l3.91-3.91h1.41l-3.3,3.19,3.45,4.68h-1.37l-2.8-4-1.29,1.26v2.73Z" transform="translate(0)"/><path class="a" d="M413.37,113.45v-1.11h1v1.11Zm0,6.76v-5.7h1v5.7Z" transform="translate(0)"/><path class="a" d="M419.51,120.21v-.72a1.78,1.78,0,0,1-1.6.85,2.23,2.23,0,0,1-1.25-.38,2.48,2.48,0,0,1-.89-1,3.64,3.64,0,0,1-.31-1.55,4.06,4.06,0,0,1,.29-1.55,2.25,2.25,0,0,1,.85-1.07,2.29,2.29,0,0,1,1.27-.37,1.89,1.89,0,0,1,.92.22,1.92,1.92,0,0,1,.66.57v-2.83h1v7.87Zm-3.06-2.85a2.48,2.48,0,0,0,.46,1.64,1.39,1.39,0,0,0,1.09.54,1.37,1.37,0,0,0,1.08-.52,2.39,2.39,0,0,0,.44-1.58,2.68,2.68,0,0,0-.45-1.72,1.39,1.39,0,0,0-1.11-.55,1.34,1.34,0,0,0-1.08.53A2.6,2.6,0,0,0,416.45,117.37Z" transform="translate(0)"/><path class="a" d="M421.54,118.51l1-.15a1.33,1.33,0,0,0,.45.88,1.56,1.56,0,0,0,1,.31,1.51,1.51,0,0,0,1-.27.81.81,0,0,0,.32-.64.59.59,0,0,0-.29-.52,4.19,4.19,0,0,0-1-.33,8.93,8.93,0,0,1-1.47-.46,1.41,1.41,0,0,1-.83-1.31,1.47,1.47,0,0,1,.17-.71,1.58,1.58,0,0,1,.48-.54,2,2,0,0,1,.62-.28,2.91,2.91,0,0,1,.83-.12,3.3,3.3,0,0,1,1.18.19,1.6,1.6,0,0,1,.75.52,2,2,0,0,1,.33.88l-.95.13a1,1,0,0,0-.37-.69,1.36,1.36,0,0,0-.87-.25,1.58,1.58,0,0,0-1,.22.64.64,0,0,0-.29.52.53.53,0,0,0,.12.34.85.85,0,0,0,.37.26l.85.25a11.94,11.94,0,0,1,1.43.45,1.45,1.45,0,0,1,.64.51,1.42,1.42,0,0,1,.23.83,1.63,1.63,0,0,1-.28.91,1.83,1.83,0,0,1-.81.66,3,3,0,0,1-1.2.23,2.68,2.68,0,0,1-1.7-.46A2.15,2.15,0,0,1,421.54,118.51Z" transform="translate(0)"/><line class="b" x1="356.9" x2="356.9" y2="120.84"/><path class="a" d="M248.25,10.21h-1.73l-.69-1.79h-3.15L242,10.21h-1.69l3.07-7.87h1.68ZM245.32,7.1l-1.08-2.92L243.17,7.1Z" transform="translate(0)"/><path class="a" d="M249.1,10.21V2.34h5.4V3.67h-3.81V5.53H254V6.87h-3.29v3.35Z" transform="translate(0)"/><path class="a" d="M255.83,10.21V2.34h1.59v3.5l3.21-3.5h2.14l-3,3.07,3.13,4.81h-2.06l-2.16-3.7-1.29,1.32v2.38Z" transform="translate(0)"/><path class="a" d="M266.8,2.34h2.91a5.66,5.66,0,0,1,1.5.15,2.63,2.63,0,0,1,1.19.73,3.44,3.44,0,0,1,.75,1.28,5.81,5.81,0,0,1,.26,1.86A5.18,5.18,0,0,1,273.16,8a3.48,3.48,0,0,1-.84,1.39,2.79,2.79,0,0,1-1.12.63,4.83,4.83,0,0,1-1.41.17h-3Zm1.59,1.33V8.88h1.19a4.28,4.28,0,0,0,1-.08,1.46,1.46,0,0,0,.64-.33,1.66,1.66,0,0,0,.42-.76,5.14,5.14,0,0,0,.16-1.44,4.72,4.72,0,0,0-.16-1.4,1.8,1.8,0,0,0-.45-.76,1.51,1.51,0,0,0-.74-.37,7.24,7.24,0,0,0-1.3-.08Z" transform="translate(0)"/><path class="a" d="M274.74,3.73V2.34h1.51v1.4Zm0,6.48V4.51h1.51v5.7Z" transform="translate(0)"/><path class="a" d="M277.27,8.58l1.51-.23a1.11,1.11,0,0,0,.39.67,1.33,1.33,0,0,0,.83.23,1.5,1.5,0,0,0,.88-.21.48.48,0,0,0,.2-.4.4.4,0,0,0-.11-.28,1.19,1.19,0,0,0-.5-.2,8.11,8.11,0,0,1-2.31-.74,1.47,1.47,0,0,1-.68-1.28,1.58,1.58,0,0,1,.59-1.25,2.73,2.73,0,0,1,1.82-.5,3.16,3.16,0,0,1,1.74.38,1.94,1.94,0,0,1,.78,1.13L281,6.15a.87.87,0,0,0-.35-.51,1.26,1.26,0,0,0-.73-.18,1.65,1.65,0,0,0-.85.17.36.36,0,0,0-.17.31.33.33,0,0,0,.15.27,5.64,5.64,0,0,0,1.41.42,4.2,4.2,0,0,1,1.68.67,1.4,1.4,0,0,1,.47,1.12,1.72,1.72,0,0,1-.66,1.35,2.89,2.89,0,0,1-1.94.56,3.18,3.18,0,0,1-1.85-.47A2.18,2.18,0,0,1,277.27,8.58Z" transform="translate(0)"/><path class="a" d="M286.53,4.51v1.2h-1V8a5.76,5.76,0,0,0,0,.81.33.33,0,0,0,.13.19.42.42,0,0,0,.25.07,2,2,0,0,0,.61-.14l.13,1.17a3,3,0,0,1-1.19.23,1.89,1.89,0,0,1-.74-.14,1.08,1.08,0,0,1-.48-.35,1.38,1.38,0,0,1-.21-.59,7.27,7.27,0,0,1,0-1.06V5.71h-.69V4.51H284V3.37l1.52-.88v2Z" transform="translate(0)"/><path class="a" d="M289,10.21h-1.51V4.51h1.4v.81a2.43,2.43,0,0,1,.65-.76,1.19,1.19,0,0,1,.65-.18,1.92,1.92,0,0,1,1,.28L290.74,6a1.33,1.33,0,0,0-.71-.25.84.84,0,0,0-.54.17,1.19,1.19,0,0,0-.35.63A9,9,0,0,0,289,8.45Z" transform="translate(0)"/><path class="a" d="M291.86,3.73V2.34h1.51v1.4Zm0,6.48V4.51h1.51v5.7Z" transform="translate(0)"/><path class="a" d="M294.85,10.21V2.34h1.51V5.17A2.14,2.14,0,0,1,298,4.38a2.23,2.23,0,0,1,1.72.75,3.12,3.12,0,0,1,.68,2.17,3.3,3.3,0,0,1-.7,2.25,2.17,2.17,0,0,1-1.69.79,2.08,2.08,0,0,1-1-.24,2.3,2.3,0,0,1-.82-.72v.84Zm1.5-3a2.42,2.42,0,0,0,.28,1.31,1.19,1.19,0,0,0,1,.6,1.07,1.07,0,0,0,.85-.43,2.1,2.1,0,0,0,.35-1.35A2.23,2.23,0,0,0,298.52,6a1.12,1.12,0,0,0-.91-.43,1.14,1.14,0,0,0-.9.42A1.93,1.93,0,0,0,296.35,7.24Z" transform="translate(0)"/><path class="a" d="M305.39,10.21V9.36a2.19,2.19,0,0,1-.82.72,2.29,2.29,0,0,1-1.07.26,2.1,2.1,0,0,1-1-.25,1.49,1.49,0,0,1-.66-.71,3.15,3.15,0,0,1-.21-1.26V4.51h1.51V7.13a7.27,7.27,0,0,0,.08,1.47.81.81,0,0,0,.3.43.93.93,0,0,0,.56.16,1.19,1.19,0,0,0,.69-.21,1.08,1.08,0,0,0,.42-.53,6.06,6.06,0,0,0,.11-1.54V4.51h1.51v5.7Z" transform="translate(0)"/><path class="a" d="M311,4.51v1.2h-1V8a5.76,5.76,0,0,0,0,.81.34.34,0,0,0,.13.19.43.43,0,0,0,.26.07,2,2,0,0,0,.61-.14l.13,1.17a3,3,0,0,1-1.19.23,1.91,1.91,0,0,1-.74-.14,1.08,1.08,0,0,1-.48-.35,1.42,1.42,0,0,1-.21-.59,7.32,7.32,0,0,1,0-1.06V5.71h-.69V4.51h.69V3.37l1.51-.88v2Z" transform="translate(0)"/><path class="a" d="M312,3.73V2.34h1.51v1.4Zm0,6.48V4.51h1.51v5.7Z" transform="translate(0)"/><path class="a" d="M314.73,7.28a3.1,3.1,0,0,1,.37-1.46,2.56,2.56,0,0,1,1.05-1.07,3.13,3.13,0,0,1,1.52-.37,2.85,2.85,0,0,1,2.12.84,2.91,2.91,0,0,1,.83,2.12,2.94,2.94,0,0,1-.83,2.15,2.82,2.82,0,0,1-2.1.85,3.31,3.31,0,0,1-1.5-.35,2.44,2.44,0,0,1-1.08-1A3.48,3.48,0,0,1,314.73,7.28Zm1.55.08a1.88,1.88,0,0,0,.4,1.3,1.32,1.32,0,0,0,2,0,1.92,1.92,0,0,0,.4-1.31,1.88,1.88,0,0,0-.4-1.29,1.32,1.32,0,0,0-2,0A1.89,1.89,0,0,0,316.27,7.36Z" transform="translate(0)"/><path class="a" d="M327,10.21h-1.51V7.3a4.51,4.51,0,0,0-.1-1.2.84.84,0,0,0-.31-.42.9.9,0,0,0-.52-.15,1.21,1.21,0,0,0-.7.21,1.07,1.07,0,0,0-.43.57,4.92,4.92,0,0,0-.12,1.31v2.58h-1.51V4.51h1.4v.84A2.34,2.34,0,0,1,326,4.56a1.52,1.52,0,0,1,.63.46,1.64,1.64,0,0,1,.29.63,4.64,4.64,0,0,1,.08,1Z" transform="translate(0)"/><path class="a" d="M240.88,28.38a4.28,4.28,0,0,1,1.05-3.07,3.58,3.58,0,0,1,2.72-1.11,3.77,3.77,0,0,1,2,.52,3.4,3.4,0,0,1,1.33,1.45,4.71,4.71,0,0,1,.46,2.11,4.64,4.64,0,0,1-.48,2.14,3.3,3.3,0,0,1-1.37,1.43,3.91,3.91,0,0,1-1.91.49,3.73,3.73,0,0,1-2-.54,3.46,3.46,0,0,1-1.33-1.47A4.44,4.44,0,0,1,240.88,28.38Zm1.07,0a3.16,3.16,0,0,0,.76,2.24,2.67,2.67,0,0,0,3.86,0,3.34,3.34,0,0,0,.76-2.35A4,4,0,0,0,247,26.6a2.49,2.49,0,0,0-1-1.11,2.57,2.57,0,0,0-1.4-.4,2.66,2.66,0,0,0-1.9.76A3.4,3.4,0,0,0,242,28.39Z" transform="translate(0)"/><path class="a" d="M252.68,26.51h1V29a.93.93,0,0,0,.65-.18,3.89,3.89,0,0,0,.54-1,4.09,4.09,0,0,1,.46-.89.88.88,0,0,1,.41-.29,2.63,2.63,0,0,1,.74-.08h.19v.8h-.27a.72.72,0,0,0-.49.11,2.89,2.89,0,0,0-.34.7,3,3,0,0,1-.4.77,1.61,1.61,0,0,1-.56.39,2.33,2.33,0,0,1,1.22,1.16l1.06,1.77h-1.06l-1-1.77a2.41,2.41,0,0,0-.55-.7.94.94,0,0,0-.56-.17v2.64h-1Z" transform="translate(0)"/><path class="a" d="M257.26,29.36a2.94,2.94,0,0,1,.88-2.35,2.66,2.66,0,0,1,1.79-.63,2.56,2.56,0,0,1,1.92.77,2.93,2.93,0,0,1,.75,2.13,3.77,3.77,0,0,1-.33,1.73,2.32,2.32,0,0,1-1,1,2.79,2.79,0,0,1-1.38.35,2.57,2.57,0,0,1-1.94-.77A3.07,3.07,0,0,1,257.26,29.36Zm1,0a2.43,2.43,0,0,0,.48,1.64,1.59,1.59,0,0,0,2.4,0,2.49,2.49,0,0,0,.48-1.67,2.36,2.36,0,0,0-.48-1.6,1.59,1.59,0,0,0-2.4,0A2.42,2.42,0,0,0,258.25,29.36Z" transform="translate(0)"/><path class="a" d="M263.76,26.51h1.5l1.5,4.57,1.66-4.57h1.39v5.7h-1V27.62l-1.69,4.59h-.87l-1.59-4.81v4.81h-.95Z" transform="translate(0)"/><path class="a" d="M271.31,26.51h4.5v5.7h-1v-4.9h-2.57v4.9h-1Z" transform="translate(0)"/><path class="a" d="M281,31.51a3.62,3.62,0,0,1-1,.64,3,3,0,0,1-1.07.19,2.08,2.08,0,0,1-1.45-.46,1.52,1.52,0,0,1-.5-1.17,1.56,1.56,0,0,1,.19-.77,1.6,1.6,0,0,1,.5-.56,2.37,2.37,0,0,1,.7-.32,7.09,7.09,0,0,1,.86-.14,8.81,8.81,0,0,0,1.72-.33c0-.13,0-.22,0-.25a1.07,1.07,0,0,0-.27-.83,1.62,1.62,0,0,0-1.1-.33,1.71,1.71,0,0,0-1,.24,1.46,1.46,0,0,0-.48.85l-.95-.13a2.35,2.35,0,0,1,.42-1,1.87,1.87,0,0,1,.85-.58,3.82,3.82,0,0,1,1.29-.2,3.44,3.44,0,0,1,1.19.17,1.56,1.56,0,0,1,.67.43,1.53,1.53,0,0,1,.3.66,5.56,5.56,0,0,1,0,.89v1.29a13.75,13.75,0,0,0,.06,1.71,2.16,2.16,0,0,0,.24.68h-1A2.08,2.08,0,0,1,281,31.51Zm-.08-2.16a7,7,0,0,1-1.58.37,3.67,3.67,0,0,0-.84.19.84.84,0,0,0-.38.31.85.85,0,0,0,.16,1.1,1.26,1.26,0,0,0,.86.26,2,2,0,0,0,1-.24,1.5,1.5,0,0,0,.64-.67,2.33,2.33,0,0,0,.16-1Z" transform="translate(0)"/><path class="a" d="M283.38,26.51h1v2.37H287V26.51h1v5.7h-1V29.68h-2.68v2.53h-1Z" transform="translate(0)"/><path class="a" d="M289.45,26.51h1v4.35l2.68-4.35h1v5.7h-1V27.89l-2.68,4.32h-1Z" transform="translate(0)"/><path class="a" d="M295.59,26.51h1v4.35l2.68-4.35h1v5.7h-1V27.89l-2.68,4.32h-1Z" transform="translate(0)"/><path class="a" d="M240.4,46.34h1.05L244,51.16l2.25-4.82h1l-3,6.12a6.1,6.1,0,0,1-.91,1.5,1.37,1.37,0,0,1-1,.35,3.34,3.34,0,0,1-1-.19v-.89a1.74,1.74,0,0,0,.89.24,1,1,0,0,0,.66-.24,3.09,3.09,0,0,0,.61-1.12Z" transform="translate(0)"/><path class="a" d="M251,52.12l1,.12a2.47,2.47,0,0,1-.8,1.54,2.32,2.32,0,0,1-1.58.56,2.45,2.45,0,0,1-1.88-.77,3.1,3.1,0,0,1-.71-2.19,4,4,0,0,1,.31-1.62,2.14,2.14,0,0,1,.93-1,2.76,2.76,0,0,1,1.36-.35,2.37,2.37,0,0,1,1.52.47,2.15,2.15,0,0,1,.76,1.33l-.94.15a1.56,1.56,0,0,0-.47-.87,1.23,1.23,0,0,0-.82-.29,1.5,1.5,0,0,0-1.19.52,2.49,2.49,0,0,0-.46,1.66,2.56,2.56,0,0,0,.44,1.67,1.43,1.43,0,0,0,1.15.52,1.35,1.35,0,0,0,1-.35A1.73,1.73,0,0,0,251,52.12Z" transform="translate(0)"/><path class="a" d="M253.3,48.51h4.49v5.7h-1v-4.9h-2.56v2.84a8.25,8.25,0,0,1-.06,1.31,1,1,0,0,1-.36.55,1.29,1.29,0,0,1-.84.24c-.22,0-.48,0-.78,0v-.8h.42a1.08,1.08,0,0,0,.43-.06.32.32,0,0,0,.17-.2,4.71,4.71,0,0,0,0-.88Z" transform="translate(0)"/><path class="a" d="M259,51.36a2.94,2.94,0,0,1,.88-2.35,2.65,2.65,0,0,1,1.79-.63,2.56,2.56,0,0,1,1.92.77,2.93,2.93,0,0,1,.75,2.13A3.77,3.77,0,0,1,264,53a2.33,2.33,0,0,1-1,1,2.8,2.8,0,0,1-1.38.35,2.57,2.57,0,0,1-1.94-.77A3.07,3.07,0,0,1,259,51.36Zm1,0a2.43,2.43,0,0,0,.48,1.64,1.59,1.59,0,0,0,2.4,0,2.49,2.49,0,0,0,.48-1.67,2.36,2.36,0,0,0-.48-1.6,1.59,1.59,0,0,0-2.4,0A2.42,2.42,0,0,0,260,51.36Z" transform="translate(0)"/><path class="a" d="M265.49,48.51h2.23a4.06,4.06,0,0,1,1.22.14,1.47,1.47,0,0,1,.69.5,1.37,1.37,0,0,1,.29.88,1.45,1.45,0,0,1-.17.71,1.39,1.39,0,0,1-.51.51,1.34,1.34,0,0,1,.67.5,1.45,1.45,0,0,1,.27.87,1.53,1.53,0,0,1-.58,1.2,2.53,2.53,0,0,1-1.53.39h-2.57Zm1,2.4h1a3.7,3.7,0,0,0,.85-.06.89.89,0,0,0,.41-.26.67.67,0,0,0,.18-.47.66.66,0,0,0-.32-.63,2.41,2.41,0,0,0-1.09-.18h-1.06Zm0,2.51h1.27a2.32,2.32,0,0,0,1.13-.19.75.75,0,0,0,.32-.66.83.83,0,0,0-.18-.51.77.77,0,0,0-.46-.29,4.79,4.79,0,0,0-.91-.06h-1.17Z" transform="translate(0)"/><path class="a" d="M271.33,48.51h1v4.35L275,48.51h1v5.7h-1V49.89l-2.68,4.32h-1Z" transform="translate(0)"/><path class="a" d="M282,48.51v5.7h-1V52h-.56a1.69,1.69,0,0,0-.76.13A2.84,2.84,0,0,0,279,53l-.84,1.25h-1.2l1-1.54a1.66,1.66,0,0,1,1-.79,1.85,1.85,0,0,1-1.23-.6,1.7,1.7,0,0,1-.4-1.11,1.53,1.53,0,0,1,.52-1.2,2.22,2.22,0,0,1,1.52-.46Zm-1,.8h-1.37a1.58,1.58,0,0,0-1.11.27.89.89,0,0,0-.25.63.83.83,0,0,0,.37.75,2.55,2.55,0,0,0,1.3.24H281Z" transform="translate(0)"/><path class="a" d="M244.79,64.12l1,.12a2.47,2.47,0,0,1-.8,1.54,2.32,2.32,0,0,1-1.58.56,2.45,2.45,0,0,1-1.88-.77,3.1,3.1,0,0,1-.71-2.19,4,4,0,0,1,.31-1.62,2.14,2.14,0,0,1,.93-1,2.76,2.76,0,0,1,1.36-.35,2.37,2.37,0,0,1,1.52.47,2.15,2.15,0,0,1,.76,1.33l-.94.15a1.56,1.56,0,0,0-.47-.87,1.23,1.23,0,0,0-.82-.29,1.5,1.5,0,0,0-1.19.52,2.49,2.49,0,0,0-.46,1.66,2.56,2.56,0,0,0,.44,1.67,1.43,1.43,0,0,0,1.15.52,1.35,1.35,0,0,0,1-.35A1.73,1.73,0,0,0,244.79,64.12Z" transform="translate(0)"/><path class="a" d="M246.34,63.36a2.94,2.94,0,0,1,.88-2.35,2.65,2.65,0,0,1,1.79-.63,2.56,2.56,0,0,1,1.92.77,2.93,2.93,0,0,1,.75,2.13,3.77,3.77,0,0,1-.33,1.73,2.34,2.34,0,0,1-1,1,2.8,2.8,0,0,1-1.38.35,2.56,2.56,0,0,1-1.94-.77A3.07,3.07,0,0,1,246.34,63.36Zm1,0a2.43,2.43,0,0,0,.48,1.64,1.59,1.59,0,0,0,2.4,0,2.48,2.48,0,0,0,.48-1.67,2.36,2.36,0,0,0-.48-1.6,1.59,1.59,0,0,0-2.4,0A2.42,2.42,0,0,0,247.33,63.36Z" transform="translate(0)"/><path class="a" d="M252.05,60.51h4.63v.8h-1.84v4.9h-1v-4.9h-1.84Z" transform="translate(0)"/><path class="a" d="M257.61,68.4V60.51h.88v.74a2.16,2.16,0,0,1,.7-.65,1.93,1.93,0,0,1,1-.22,2.25,2.25,0,0,1,1.29.38,2.31,2.31,0,0,1,.84,1.06,3.88,3.88,0,0,1,.28,1.5,3.82,3.82,0,0,1-.31,1.58,2.38,2.38,0,0,1-.91,1.07,2.34,2.34,0,0,1-1.26.37,1.82,1.82,0,0,1-.87-.2,2,2,0,0,1-.63-.52V68.4Zm.88-5a2.48,2.48,0,0,0,.45,1.63,1.37,1.37,0,0,0,1.08.53,1.4,1.4,0,0,0,1.1-.54,2.58,2.58,0,0,0,.46-1.69,2.52,2.52,0,0,0-.45-1.63,1.35,1.35,0,0,0-1.07-.54,1.39,1.39,0,0,0-1.09.58A2.57,2.57,0,0,0,258.48,63.39Z" transform="translate(0)"/><path class="a" d="M263.56,68.41l-.11-.91a2.14,2.14,0,0,0,.55.09,1.07,1.07,0,0,0,.52-.11.88.88,0,0,0,.32-.3,4.74,4.74,0,0,0,.3-.72l.09-.24-2.17-5.71h1l1.19,3.3c.15.42.29.86.41,1.32a12.74,12.74,0,0,1,.4-1.3l1.22-3.33h1l-2.17,5.8a11.3,11.3,0,0,1-.54,1.29,1.9,1.9,0,0,1-.59.7,1.4,1.4,0,0,1-.79.22A2,2,0,0,1,263.56,68.41Z" transform="translate(0)"/><path class="a" d="M269.5,60.51h4v4.91h.62v2.41h-.79V66.21h-4.49v1.62H268V65.42h.51Q269.54,64,269.5,60.51Zm.81.8a9.41,9.41,0,0,1-.86,4.11h3.07V61.31Z" transform="translate(0)"/><path class="a" d="M275.16,60.51h1v2.37h2.68V60.51h1v5.7h-1V63.68h-2.68v2.53h-1Z" transform="translate(0)"/><path class="a" d="M281.23,60.51h1v4.35l2.68-4.35h1v5.7h-1V61.89l-2.68,4.32h-1Z" transform="translate(0)"/><path class="a" d="M287,60.51h1v1.08a4.29,4.29,0,0,0,.08,1,1,1,0,0,0,.4.55,1.3,1.3,0,0,0,.79.23,4.73,4.73,0,0,0,1.42-.29V60.51h1v5.7h-1v-2.3a5.58,5.58,0,0,1-1.67.28,2,2,0,0,1-1.15-.33,1.66,1.66,0,0,1-.67-.81A3,3,0,0,1,287,62Z" transform="translate(0)"/><path class="a" d="M297,64.37l1,.12a2.43,2.43,0,0,1-.88,1.36,3,3,0,0,1-3.62-.29,3,3,0,0,1-.73-2.16,3.15,3.15,0,0,1,.74-2.23,2.51,2.51,0,0,1,1.92-.79,2.44,2.44,0,0,1,1.87.78,3.1,3.1,0,0,1,.72,2.19q0,.09,0,.26h-4.25a2.19,2.19,0,0,0,.53,1.44,1.58,1.58,0,0,0,1.19.5,1.48,1.48,0,0,0,.91-.28A1.86,1.86,0,0,0,297,64.37Zm-3.17-1.56H297a1.93,1.93,0,0,0-.37-1.08,1.48,1.48,0,0,0-1.2-.56,1.53,1.53,0,0,0-1.12.45A1.76,1.76,0,0,0,293.84,62.81Z" transform="translate(0)"/><path class="a" d="M302.95,64.12l1,.12a2.47,2.47,0,0,1-.8,1.54,2.32,2.32,0,0,1-1.58.56,2.45,2.45,0,0,1-1.88-.77,3.1,3.1,0,0,1-.71-2.19,4,4,0,0,1,.31-1.62,2.13,2.13,0,0,1,.93-1,2.75,2.75,0,0,1,1.36-.35,2.37,2.37,0,0,1,1.52.47,2.16,2.16,0,0,1,.76,1.33l-.94.15a1.56,1.56,0,0,0-.48-.87,1.23,1.23,0,0,0-.82-.29,1.5,1.5,0,0,0-1.19.52,2.49,2.49,0,0,0-.46,1.66,2.57,2.57,0,0,0,.44,1.67,1.43,1.43,0,0,0,1.15.52,1.35,1.35,0,0,0,1-.35A1.73,1.73,0,0,0,302.95,64.12Z" transform="translate(0)"/><path class="a" d="M304.2,60.51h4.64v.8H307v4.9h-1v-4.9H304.2Z" transform="translate(0)"/><path class="a" d="M309.77,60.51H312a4.06,4.06,0,0,1,1.22.14,1.47,1.47,0,0,1,.69.5,1.37,1.37,0,0,1,.29.88,1.45,1.45,0,0,1-.17.71,1.39,1.39,0,0,1-.51.51,1.34,1.34,0,0,1,.67.5,1.45,1.45,0,0,1,.27.87,1.53,1.53,0,0,1-.58,1.2,2.53,2.53,0,0,1-1.53.39h-2.57Zm1,2.4h1a3.7,3.7,0,0,0,.85-.06.89.89,0,0,0,.41-.26.67.67,0,0,0,.18-.47.66.66,0,0,0-.32-.63,2.41,2.41,0,0,0-1.09-.18h-1.06Zm0,2.51H312a2.32,2.32,0,0,0,1.13-.19.75.75,0,0,0,.32-.66.83.83,0,0,0-.18-.51.77.77,0,0,0-.46-.29,4.79,4.79,0,0,0-.91-.06h-1.17Z" transform="translate(0)"/><path class="a" d="M319.21,65.51a3.62,3.62,0,0,1-1,.64,3,3,0,0,1-1.07.19,2.08,2.08,0,0,1-1.45-.46,1.52,1.52,0,0,1-.5-1.17,1.59,1.59,0,0,1,.69-1.32,2.36,2.36,0,0,1,.7-.32,7.05,7.05,0,0,1,.86-.14,8.81,8.81,0,0,0,1.72-.33c0-.13,0-.22,0-.25a1.06,1.06,0,0,0-.27-.83,1.61,1.61,0,0,0-1.1-.33,1.71,1.71,0,0,0-1,.24,1.46,1.46,0,0,0-.48.85l-.95-.13a2.34,2.34,0,0,1,.42-1,1.86,1.86,0,0,1,.85-.58,3.83,3.83,0,0,1,1.29-.2,3.44,3.44,0,0,1,1.19.17,1.56,1.56,0,0,1,.67.43,1.52,1.52,0,0,1,.3.66,5.44,5.44,0,0,1,0,.89v1.29a13.67,13.67,0,0,0,.06,1.71,2.16,2.16,0,0,0,.24.68h-1A2.08,2.08,0,0,1,319.21,65.51Zm-.08-2.16a7.05,7.05,0,0,1-1.58.37,3.7,3.7,0,0,0-.84.19.85.85,0,0,0-.38.31.85.85,0,0,0,.16,1.1,1.26,1.26,0,0,0,.86.26,2,2,0,0,0,1-.24,1.52,1.52,0,0,0,.64-.67,2.34,2.34,0,0,0,.16-1Z" transform="translate(0)"/><path class="a" d="M241.21,80.34h1v3.45a1.44,1.44,0,0,0,1-.28,4.62,4.62,0,0,0,.74-1.33,7.29,7.29,0,0,1,.54-1.09,1.69,1.69,0,0,1,.6-.54,1.76,1.76,0,0,1,.87-.22h.63v.9h-.42a1,1,0,0,0-.74.24,3.28,3.28,0,0,0-.56,1,4.06,4.06,0,0,1-.67,1.26,2.06,2.06,0,0,1-.66.42,2.9,2.9,0,0,1,1.5,1.41l1.62,2.62h-1.29l-1.32-2.14a5.93,5.93,0,0,0-.91-1.22,1.36,1.36,0,0,0-.95-.33v3.68h-1Z" transform="translate(0)"/><path class="a" d="M247.12,85.36A2.94,2.94,0,0,1,248,83a2.66,2.66,0,0,1,1.79-.63,2.56,2.56,0,0,1,1.92.77,2.93,2.93,0,0,1,.75,2.13,3.77,3.77,0,0,1-.33,1.73,2.32,2.32,0,0,1-1,1,2.79,2.79,0,0,1-1.38.35,2.57,2.57,0,0,1-1.94-.77A3.07,3.07,0,0,1,247.12,85.36Zm1,0a2.43,2.43,0,0,0,.48,1.64,1.59,1.59,0,0,0,2.4,0,2.49,2.49,0,0,0,.48-1.67,2.36,2.36,0,0,0-.48-1.6,1.59,1.59,0,0,0-2.4,0A2.42,2.42,0,0,0,248.11,85.36Z" transform="translate(0)"/><path class="a" d="M253.6,82.51h1v2.37h2.68V82.51h1v5.7h-1V85.68h-2.68v2.53h-1Z" transform="translate(0)"/><path class="a" d="M259.15,82.51h4.64v.8h-1.84v4.9h-1v-4.9h-1.84Z" transform="translate(0)"/><path class="a" d="M268.31,87.51a3.62,3.62,0,0,1-1,.64,3,3,0,0,1-1.07.19,2.08,2.08,0,0,1-1.45-.46,1.52,1.52,0,0,1-.5-1.17,1.59,1.59,0,0,1,.69-1.32,2.36,2.36,0,0,1,.7-.32,7.05,7.05,0,0,1,.86-.14,8.81,8.81,0,0,0,1.72-.33c0-.13,0-.22,0-.25a1.06,1.06,0,0,0-.27-.83,1.61,1.61,0,0,0-1.1-.33,1.71,1.71,0,0,0-1,.24,1.46,1.46,0,0,0-.48.85l-.95-.13a2.34,2.34,0,0,1,.42-1,1.86,1.86,0,0,1,.85-.58,3.83,3.83,0,0,1,1.29-.2,3.44,3.44,0,0,1,1.19.17,1.56,1.56,0,0,1,.67.43,1.52,1.52,0,0,1,.3.66,5.44,5.44,0,0,1,0,.89v1.29a13.67,13.67,0,0,0,.06,1.71,2.16,2.16,0,0,0,.24.68h-1A2.08,2.08,0,0,1,268.31,87.51Zm-.08-2.16a7.05,7.05,0,0,1-1.58.37,3.7,3.7,0,0,0-.84.19.85.85,0,0,0-.38.31.85.85,0,0,0,.16,1.1,1.26,1.26,0,0,0,.86.26,2,2,0,0,0,1-.24,1.52,1.52,0,0,0,.64-.67,2.34,2.34,0,0,0,.16-1Z" transform="translate(0)"/><path class="a" d="M270.7,82.51h1V85a.93.93,0,0,0,.65-.18,3.86,3.86,0,0,0,.54-1,4.08,4.08,0,0,1,.46-.89.87.87,0,0,1,.41-.29,2.62,2.62,0,0,1,.74-.08h.19v.8h-.27a.72.72,0,0,0-.49.11,2.82,2.82,0,0,0-.34.7,3,3,0,0,1-.4.77,1.6,1.6,0,0,1-.56.39,2.34,2.34,0,0,1,1.22,1.16l1.06,1.77h-1.06l-1-1.77a2.42,2.42,0,0,0-.55-.7.94.94,0,0,0-.56-.17v2.64h-1Z" transform="translate(0)"/><path class="a" d="M275.12,82.51h4.63v.8h-1.84v4.9h-1v-4.9h-1.84Z" transform="translate(0)"/><path class="a" d="M280.7,82.51h1v2.23h1.22a3.13,3.13,0,0,1,1.85.46,1.49,1.49,0,0,1,.65,1.28,1.62,1.62,0,0,1-.54,1.22,2.46,2.46,0,0,1-1.73.51H280.7Zm1,4.91h1a2.79,2.79,0,0,0,1.31-.23.75.75,0,0,0,.39-.7.91.91,0,0,0-.29-.66,1.93,1.93,0,0,0-1.28-.29h-1.14Zm4.44-4.91h1v5.7h-1Z" transform="translate(0)"/><path class="a" d="M241.21,102.34h1v3.45a1.44,1.44,0,0,0,1-.28,4.62,4.62,0,0,0,.74-1.33,7.29,7.29,0,0,1,.54-1.09,1.69,1.69,0,0,1,.6-.54,1.76,1.76,0,0,1,.87-.22h.63v.9h-.42a1,1,0,0,0-.74.24,3.28,3.28,0,0,0-.56,1,4.06,4.06,0,0,1-.67,1.26,2.06,2.06,0,0,1-.66.42,2.9,2.9,0,0,1,1.5,1.41l1.62,2.62h-1.29l-1.32-2.14a5.93,5.93,0,0,0-.91-1.22,1.36,1.36,0,0,0-.95-.33v3.68h-1Z" transform="translate(0)"/><path class="a" d="M251.2,109.51a3.62,3.62,0,0,1-1,.64,3,3,0,0,1-1.07.19,2.08,2.08,0,0,1-1.45-.46,1.52,1.52,0,0,1-.5-1.17,1.56,1.56,0,0,1,.19-.77,1.6,1.6,0,0,1,.5-.56,2.37,2.37,0,0,1,.7-.32,7.09,7.09,0,0,1,.86-.14,8.81,8.81,0,0,0,1.72-.33c0-.13,0-.22,0-.25a1.07,1.07,0,0,0-.27-.83,1.62,1.62,0,0,0-1.1-.33,1.71,1.71,0,0,0-1,.24,1.46,1.46,0,0,0-.48.85l-.95-.13a2.35,2.35,0,0,1,.42-1,1.87,1.87,0,0,1,.85-.58,3.82,3.82,0,0,1,1.29-.2,3.44,3.44,0,0,1,1.19.17,1.56,1.56,0,0,1,.67.43,1.53,1.53,0,0,1,.3.66,5.56,5.56,0,0,1,0,.89v1.29a13.75,13.75,0,0,0,.06,1.71,2.16,2.16,0,0,0,.24.68h-1A2.08,2.08,0,0,1,251.2,109.51Zm-.08-2.16a7,7,0,0,1-1.58.37,3.67,3.67,0,0,0-.84.19.84.84,0,0,0-.38.31.85.85,0,0,0,.16,1.1,1.26,1.26,0,0,0,.86.26,2,2,0,0,0,1-.24,1.5,1.5,0,0,0,.64-.67,2.33,2.33,0,0,0,.16-1Z" transform="translate(0)"/><path class="a" d="M257.78,102.15h.85a1.48,1.48,0,0,1-.25.8.89.89,0,0,1-.5.29,7.24,7.24,0,0,1-1.21.06,3.92,3.92,0,0,0-1.63.23,1.33,1.33,0,0,0-.62.74,4.1,4.1,0,0,0-.21,1.31,2.52,2.52,0,0,1,.85-.81,2.23,2.23,0,0,1,1.1-.27,2.46,2.46,0,0,1,1.86.77,2.9,2.9,0,0,1,.74,2.09,3.24,3.24,0,0,1-.37,1.64,3,3,0,0,1-.88,1,2.91,2.91,0,0,1-3-.12,3,3,0,0,1-.86-1.19,7.32,7.32,0,0,1-.3-2.52,4.45,4.45,0,0,1,.76-3,3.16,3.16,0,0,1,2.36-.78,9.38,9.38,0,0,0,1.12,0A.22.22,0,0,0,257.78,102.15Zm0,5.19a2.39,2.39,0,0,0-.42-1.46,1.39,1.39,0,0,0-1.19-.57,1.43,1.43,0,0,0-1.24.6,2.69,2.69,0,0,0-.44,1.61,2.18,2.18,0,0,0,.48,1.52,1.54,1.54,0,0,0,1.18.53,1.39,1.39,0,0,0,1.17-.61A2.66,2.66,0,0,0,257.73,107.34Z" transform="translate(0)"/><path class="a" d="M259.9,104.51h1v4.35l2.68-4.35h1v5.7h-1v-4.32l-2.68,4.32h-1Z" transform="translate(0)"/><path class="a" d="M266,104.51h1v2.37h2.68v-2.37h1v5.7h-1v-2.53H267v2.53h-1Z" transform="translate(0)"/><path class="a" d="M276,108.37l1,.12a2.43,2.43,0,0,1-.88,1.36,3,3,0,0,1-3.62-.29,3,3,0,0,1-.73-2.16,3.15,3.15,0,0,1,.74-2.23,2.51,2.51,0,0,1,1.92-.79,2.44,2.44,0,0,1,1.87.78,3.1,3.1,0,0,1,.72,2.19q0,.09,0,.26h-4.25a2.19,2.19,0,0,0,.53,1.44,1.58,1.58,0,0,0,1.19.5,1.48,1.48,0,0,0,.91-.28A1.86,1.86,0,0,0,276,108.37Zm-3.17-1.56H276a1.93,1.93,0,0,0-.37-1.08,1.48,1.48,0,0,0-1.2-.56,1.53,1.53,0,0,0-1.12.45A1.76,1.76,0,0,0,272.85,106.81Z" transform="translate(0)"/><path class="a" d="M277.35,104.51H282v.8h-1.84v4.9h-1v-4.9h-1.84Z" transform="translate(0)"/><line class="b" x1="231.18" x2="231.18" y2="120.84"/><path class="d" d="M14.94,45.09a3.18,3.18,0,0,1-.11.74,4.94,4.94,0,0,1-.23.72,2.8,2.8,0,0,1-1.29,1.14,4.1,4.1,0,0,1-2,.53,4.29,4.29,0,0,1-.57,0,4,4,0,0,1-.61-.13l-.49-.15-1.12-.4a10,10,0,0,1-1.84-.89A16.31,16.31,0,0,1,3.9,44.33a14.4,14.4,0,0,1-2.28-2.81,9.19,9.19,0,0,1-.87-1.84l-.19-.53a6.29,6.29,0,0,0-.23-.59,2.34,2.34,0,0,1-.15-.49L0,37.45a2,2,0,0,1,0-.55,4,4,0,0,1,.55-2,2.72,2.72,0,0,1,1.12-1.29,5,5,0,0,1,.72-.23,3.2,3.2,0,0,1,.74-.11.55.55,0,0,1,.23,0q.19.06.57.8l.3.59a6.13,6.13,0,0,0,.38.67,4.43,4.43,0,0,1,.32.57l.19.27a3.63,3.63,0,0,1,.23.38.69.69,0,0,1,.08.3.83.83,0,0,1-.3.51,7.72,7.72,0,0,1-.67.59,7.35,7.35,0,0,0-.65.57.91.91,0,0,0-.3.48.75.75,0,0,0,.06.25l.08.21a1.69,1.69,0,0,0,.15.27c.09.14.13.2.13.19a10.87,10.87,0,0,0,1.84,2.51,11,11,0,0,0,2.49,1.84l.19.11a1.53,1.53,0,0,0,.27.15l.21.1a.41.41,0,0,0,.25,0q.19,0,.48-.3t.57-.65c.19-.23.39-.45.59-.67s.38-.32.53-.3a.65.65,0,0,1,.29.08,3.63,3.63,0,0,1,.38.23l.27.19,1.82,1q.74.36.8.55A.55.55,0,0,1,14.94,45.09Z" transform="translate(0)"/><path class="d" d="M27.2,45.55V42.76H24.38V40.83H27.2V38h1.88v2.79h2.82v1.93H29.07v2.79Z" transform="translate(0)"/><path class="d" d="M33.46,44.24l2-.24A1.88,1.88,0,0,0,36,45.17a1.41,1.41,0,0,0,1,.4A1.39,1.39,0,0,0,38,45.08a1.87,1.87,0,0,0,.44-1.3,1.75,1.75,0,0,0-.42-1.23,1.33,1.33,0,0,0-1-.45,3.58,3.58,0,0,0-.94.15l.23-1.68a1.8,1.8,0,0,0,1.27-.36,1.29,1.29,0,0,0,.44-1A1.11,1.11,0,0,0,36.87,38a1.24,1.24,0,0,0-.9.37,1.72,1.72,0,0,0-.45,1.07l-1.9-.32a4.24,4.24,0,0,1,.6-1.56,2.7,2.7,0,0,1,1.11-.92,3.75,3.75,0,0,1,1.6-.33,3.19,3.19,0,0,1,2.43,1,2.45,2.45,0,0,1-.79,4,2.5,2.5,0,0,1,1.48.89,2.57,2.57,0,0,1,.55,1.66,3.22,3.22,0,0,1-1,2.41,3.86,3.86,0,0,1-5,.16A3.29,3.29,0,0,1,33.46,44.24Z" transform="translate(0)"/><path class="d" d="M44,41.3a2.3,2.3,0,0,1-1.52-2.22,2.6,2.6,0,0,1,.84-2,4,4,0,0,1,4.76,0,2.59,2.59,0,0,1,.85,2,2.34,2.34,0,0,1-.39,1.33,2.45,2.45,0,0,1-1.09.89,2.87,2.87,0,0,1,1.36,1,2.77,2.77,0,0,1,.46,1.59,3.23,3.23,0,0,1-.95,2.42,3.45,3.45,0,0,1-2.52.93,3.81,3.81,0,0,1-2.44-.77A3,3,0,0,1,42.22,44a3.08,3.08,0,0,1,.43-1.6A2.78,2.78,0,0,1,44,41.3Zm.23,2.53a1.89,1.89,0,0,0,.44,1.33,1.42,1.42,0,0,0,1.09.48,1.36,1.36,0,0,0,1.05-.46,1.9,1.9,0,0,0,.42-1.32,1.71,1.71,0,0,0-.43-1.21,1.41,1.41,0,0,0-1.08-.46,1.29,1.29,0,0,0-1.12.52A1.9,1.9,0,0,0,44.25,43.83Zm.19-4.6a1.29,1.29,0,0,0,.35,1,1.26,1.26,0,0,0,.93.34,1.28,1.28,0,0,0,.94-.35,1.3,1.3,0,0,0,.35-1,1.2,1.2,0,0,0-1.27-1.27,1.28,1.28,0,0,0-.94.35A1.26,1.26,0,0,0,44.44,39.23Z" transform="translate(0)"/><path class="d" d="M54.45,36.31a2.93,2.93,0,0,1,2.44,1.11,7.11,7.11,0,0,1,1,4.37,7.12,7.12,0,0,1-1.05,4.38,2.93,2.93,0,0,1-2.43,1.1,3.07,3.07,0,0,1-2.53-1.2q-1-1.21-1-4.3A7.09,7.09,0,0,1,52,37.41,2.93,2.93,0,0,1,54.45,36.31Zm0,1.71a1,1,0,0,0-.67.24,1.59,1.59,0,0,0-.45.85,11.7,11.7,0,0,0-.21,2.69,11.68,11.68,0,0,0,.19,2.6,1.83,1.83,0,0,0,.48.94,1.05,1.05,0,0,0,1.33,0,1.6,1.6,0,0,0,.45-.85,11.66,11.66,0,0,0,.21-2.68,11.67,11.67,0,0,0-.19-2.6,1.86,1.86,0,0,0-.48-.95A1,1,0,0,0,54.45,38Z" transform="translate(0)"/><path class="d" d="M68.08,50.25H66.67A14.24,14.24,0,0,1,65,46.73a11.52,11.52,0,0,1-.59-3.53,11.08,11.08,0,0,1,.73-4,14.06,14.06,0,0,1,1.6-3H68.1a22.25,22.25,0,0,0-1.38,3.78,14.19,14.19,0,0,0-.15,5.76,16,16,0,0,0,.61,2.4Q67.43,48.85,68.08,50.25Z" transform="translate(0)"/><path class="d" d="M73.63,47.09V44.93H69.24v-1.8l4.66-6.82h1.73v6.81H77v1.81H75.62v2.16Zm0-4V39.45l-2.47,3.67Z" transform="translate(0)"/><path class="d" d="M82.35,47.09V44.93H78v-1.8l4.66-6.82h1.73v6.81h1.33v1.81H84.34v2.16Zm0-4V39.45l-2.47,3.67Z" transform="translate(0)"/><path class="d" d="M86.9,50.25q.61-1.3.86-2a15,15,0,0,0,.46-1.6,17,17,0,0,0,.31-1.72,13.42,13.42,0,0,0,.1-1.67,14,14,0,0,0-.37-3.3,21.86,21.86,0,0,0-1.38-3.78h1.4A13.47,13.47,0,0,1,90,39.51a10.89,10.89,0,0,1,.61,3.58,12.36,12.36,0,0,1-.48,3.28,13.81,13.81,0,0,1-1.81,3.87Z" transform="translate(0)"/><path class="d" d="M101,47.09V44.93H96.58v-1.8l4.66-6.82H103v6.81h1.33v1.81H103v2.16Zm0-4V39.45l-2.47,3.67Z" transform="translate(0)"/><path class="d" d="M109.14,36.31a2.93,2.93,0,0,1,2.44,1.11,7.11,7.11,0,0,1,1,4.37,7.12,7.12,0,0,1-1.05,4.38,2.93,2.93,0,0,1-2.43,1.1,3.07,3.07,0,0,1-2.53-1.2q-1-1.21-1-4.3a7.09,7.09,0,0,1,1.05-4.37A2.93,2.93,0,0,1,109.14,36.31Zm0,1.71a1,1,0,0,0-.67.24,1.59,1.59,0,0,0-.45.85,11.7,11.7,0,0,0-.21,2.69,11.68,11.68,0,0,0,.19,2.6,1.83,1.83,0,0,0,.48.94,1.05,1.05,0,0,0,1.33,0,1.6,1.6,0,0,0,.45-.85,11.66,11.66,0,0,0,.21-2.68,11.67,11.67,0,0,0-.19-2.6,1.86,1.86,0,0,0-.48-.95A1,1,0,0,0,109.14,38Z" transform="translate(0)"/><path class="d" d="M121.35,39l-2,.22a1.45,1.45,0,0,0-.38-.91,1.11,1.11,0,0,0-.8-.29,1.35,1.35,0,0,0-1.1.59,4.94,4.94,0,0,0-.57,2.44,2.41,2.41,0,0,1,1.91-.91,2.92,2.92,0,0,1,2.21,1,3.56,3.56,0,0,1,.92,2.53,3.63,3.63,0,0,1-1,2.64,3.52,3.52,0,0,1-5.16-.27,6.5,6.5,0,0,1-1-4.14,6.62,6.62,0,0,1,1.09-4.25,3.52,3.52,0,0,1,2.83-1.3,3,3,0,0,1,2,.68A3.21,3.21,0,0,1,121.35,39Zm-4.67,4.49a2.33,2.33,0,0,0,.46,1.55,1.35,1.35,0,0,0,1.05.55,1.2,1.2,0,0,0,1-.45,2.25,2.25,0,0,0,.38-1.46,2.36,2.36,0,0,0-.41-1.53,1.32,1.32,0,0,0-2,0A2,2,0,0,0,116.68,43.47Z" transform="translate(0)"/><path class="d" d="M123.3,44.23V42.17h4v2.06Z" transform="translate(0)"/><path class="d" d="M135.44,39l-2,.22a1.45,1.45,0,0,0-.38-.91,1.11,1.11,0,0,0-.8-.29,1.35,1.35,0,0,0-1.1.59,4.94,4.94,0,0,0-.57,2.44,2.41,2.41,0,0,1,1.91-.91,2.92,2.92,0,0,1,2.21,1,3.56,3.56,0,0,1,.92,2.53,3.63,3.63,0,0,1-1,2.64,3.52,3.52,0,0,1-5.16-.27,6.5,6.5,0,0,1-1-4.14,6.62,6.62,0,0,1,1.09-4.25,3.52,3.52,0,0,1,2.83-1.3,3,3,0,0,1,2,.68A3.21,3.21,0,0,1,135.44,39Zm-4.67,4.49a2.33,2.33,0,0,0,.46,1.55,1.35,1.35,0,0,0,1.05.55,1.2,1.2,0,0,0,1-.45,2.25,2.25,0,0,0,.38-1.46,2.36,2.36,0,0,0-.41-1.53,1.32,1.32,0,0,0-2,0A2,2,0,0,0,130.77,43.47Z" transform="translate(0)"/><path class="d" d="M140.66,36.31a2.93,2.93,0,0,1,2.44,1.11,7.11,7.11,0,0,1,1,4.37,7.12,7.12,0,0,1-1.05,4.38,2.93,2.93,0,0,1-2.43,1.1,3.07,3.07,0,0,1-2.53-1.2q-1-1.21-1-4.3a7.09,7.09,0,0,1,1.05-4.37A2.93,2.93,0,0,1,140.66,36.31Zm0,1.71a1,1,0,0,0-.67.24,1.59,1.59,0,0,0-.45.85,11.7,11.7,0,0,0-.21,2.69,11.68,11.68,0,0,0,.19,2.6,1.83,1.83,0,0,0,.48.94,1.05,1.05,0,0,0,1.33,0,1.6,1.6,0,0,0,.45-.85A11.66,11.66,0,0,0,142,41.8a11.67,11.67,0,0,0-.19-2.6,1.86,1.86,0,0,0-.48-.95A1,1,0,0,0,140.66,38Z" transform="translate(0)"/><path class="d" d="M146.1,44.23V42.17h4v2.06Z" transform="translate(0)"/><path class="d" d="M151.31,44.61l2-.22a1.44,1.44,0,0,0,.38.9,1.13,1.13,0,0,0,.81.29,1.33,1.33,0,0,0,1.08-.59,5,5,0,0,0,.57-2.43,2.46,2.46,0,0,1-1.94.9,2.9,2.9,0,0,1-2.19-1,3.56,3.56,0,0,1-.92-2.54,3.62,3.62,0,0,1,1-2.63,3.3,3.3,0,0,1,2.47-1,3.33,3.33,0,0,1,2.68,1.26,6.53,6.53,0,0,1,1,4.16A6.61,6.61,0,0,1,157.19,46a3.53,3.53,0,0,1-2.84,1.3,3,3,0,0,1-2-.67A3.23,3.23,0,0,1,151.31,44.61Zm4.66-4.5a2.35,2.35,0,0,0-.46-1.54,1.35,1.35,0,0,0-1.06-.55,1.18,1.18,0,0,0-.95.45,2.29,2.29,0,0,0-.38,1.48,2.34,2.34,0,0,0,.41,1.53,1.29,1.29,0,0,0,1,.49,1.27,1.27,0,0,0,1-.47A2,2,0,0,0,156,40.11Z" transform="translate(0)"/><path class="d" d="M161.75,41.3a2.3,2.3,0,0,1-1.52-2.22,2.6,2.6,0,0,1,.84-2,4,4,0,0,1,4.76,0,2.59,2.59,0,0,1,.85,2,2.34,2.34,0,0,1-.39,1.33,2.45,2.45,0,0,1-1.09.89,2.87,2.87,0,0,1,1.36,1,2.77,2.77,0,0,1,.46,1.59,3.23,3.23,0,0,1-.95,2.42,3.45,3.45,0,0,1-2.52.93,3.81,3.81,0,0,1-2.44-.77A3,3,0,0,1,160,44a3.08,3.08,0,0,1,.43-1.6A2.78,2.78,0,0,1,161.75,41.3Zm.23,2.53a1.89,1.89,0,0,0,.44,1.33,1.42,1.42,0,0,0,1.09.48,1.36,1.36,0,0,0,1.05-.46,1.9,1.9,0,0,0,.42-1.32,1.71,1.71,0,0,0-.43-1.21,1.41,1.41,0,0,0-1.08-.46,1.29,1.29,0,0,0-1.12.52A1.9,1.9,0,0,0,162,43.83Zm.19-4.6a1.29,1.29,0,0,0,.35,1,1.26,1.26,0,0,0,.93.34,1.28,1.28,0,0,0,.94-.35,1.3,1.3,0,0,0,.35-1,1.2,1.2,0,0,0-1.27-1.27,1.28,1.28,0,0,0-.94.35A1.26,1.26,0,0,0,162.18,39.23Z" transform="translate(0)"/><path class="d" d="M18,8.67v8a1.55,1.55,0,0,1-.47,1.13,1.61,1.61,0,0,1-1.13.49H1.61a1.55,1.55,0,0,1-1.13-.49A1.49,1.49,0,0,1,0,16.64v-8a6.57,6.57,0,0,0,1,.88Q4.65,12,6,13l.92.67a5.33,5.33,0,0,0,1,.49,2.63,2.63,0,0,0,1.1.23H9a3,3,0,0,0,1.1-.23,4.66,4.66,0,0,0,1-.49L12,13q1.71-1.22,5-3.46A5.49,5.49,0,0,0,18,8.67Zm0-3a2.66,2.66,0,0,1-.49,1.51,4.78,4.78,0,0,1-1.22,1.24q-3.78,2.63-4.72,3.26l-1,.7a4.06,4.06,0,0,1-.52.32,6.13,6.13,0,0,1-.57.27,1.14,1.14,0,0,1-.51.09H9A1.54,1.54,0,0,1,8.5,13a3.19,3.19,0,0,1-.58-.27l-.54-.32a5.06,5.06,0,0,1-.54-.4,2.9,2.9,0,0,0-.41-.31L3.79,9.91Q2.06,8.72,1.73,8.47A4.59,4.59,0,0,1,.56,7.32,2.51,2.51,0,0,1,0,5.93a2,2,0,0,1,.41-1.3,1.43,1.43,0,0,1,1.19-.52H16.4a1.59,1.59,0,0,1,1.13.47A1.45,1.45,0,0,1,18,5.71Z" transform="translate(0)"/><path class="d" d="M24.82,7V5.1h2.06V7Zm0,8.83V8.06h2.06v7.78Z" transform="translate(0)"/><path class="d" d="M36.66,15.84H34.6v-4a6.14,6.14,0,0,0-.13-1.63A1.14,1.14,0,0,0,34,9.67a1.22,1.22,0,0,0-.71-.21,1.65,1.65,0,0,0-1,.29,1.48,1.48,0,0,0-.58.78,6.79,6.79,0,0,0-.16,1.79v3.52H29.57V8.06h1.91V9.2a3.19,3.19,0,0,1,3.81-1.07,2.1,2.1,0,0,1,.85.63,2.3,2.3,0,0,1,.4.86A6.4,6.4,0,0,1,36.66,11Z" transform="translate(0)"/><path class="d" d="M38.45,8.06h1.14V7.47A3.9,3.9,0,0,1,39.8,6a1.65,1.65,0,0,1,.77-.79A3,3,0,0,1,42,4.92a5.74,5.74,0,0,1,1.72.26l-.28,1.44a4.06,4.06,0,0,0-.95-.12.85.85,0,0,0-.64.21,1.22,1.22,0,0,0-.19.8v.55h1.54V9.68H41.65v6.16H39.59V9.68H38.45Z" transform="translate(0)"/><path class="d" d="M44.47,11.84a4.22,4.22,0,0,1,.5-2,3.47,3.47,0,0,1,1.43-1.46,4.25,4.25,0,0,1,2.07-.51A3.89,3.89,0,0,1,51.37,9a4,4,0,0,1,1.13,2.9,4,4,0,0,1-1.14,2.93A3.85,3.85,0,0,1,48.49,16a4.51,4.51,0,0,1-2-.48A3.33,3.33,0,0,1,45,14.12,4.74,4.74,0,0,1,44.47,11.84Zm2.11.11a2.57,2.57,0,0,0,.55,1.77,1.8,1.8,0,0,0,2.71,0,2.61,2.61,0,0,0,.54-1.79,2.57,2.57,0,0,0-.54-1.76,1.8,1.8,0,0,0-2.71,0A2.57,2.57,0,0,0,46.58,12Z" transform="translate(0)"/><path class="d" d="M66.65,15.7h1.56A5.3,5.3,0,0,1,66,18a8.58,8.58,0,0,1-4.23,1,9.85,9.85,0,0,1-4.18-.82,5.5,5.5,0,0,1-2.62-2.41,7.22,7.22,0,0,1-.86-3.47,7.86,7.86,0,0,1,1-3.83A6.42,6.42,0,0,1,57.72,5.8a8.21,8.21,0,0,1,3.87-.89,7.24,7.24,0,0,1,3.28.72,5.07,5.07,0,0,1,2.19,2,5.7,5.7,0,0,1,.76,2.89,5.44,5.44,0,0,1-1.15,3.38,4.45,4.45,0,0,1-3.7,1.9,1.61,1.61,0,0,1-.92-.21,1,1,0,0,1-.41-.62,2.78,2.78,0,0,1-2,.84,2.67,2.67,0,0,1-2-.84,3.09,3.09,0,0,1-.8-2.23,5.46,5.46,0,0,1,1-3.14,3.51,3.51,0,0,1,3-1.73,2.11,2.11,0,0,1,1.93,1l.18-.81h1.93l-1.11,5.25a4.33,4.33,0,0,0-.1.64.4.4,0,0,0,.08.28.27.27,0,0,0,.2.09,1.68,1.68,0,0,0,.91-.43A4,4,0,0,0,66,12.43a4.33,4.33,0,0,0,.46-1.94,4,4,0,0,0-1.3-3,5.15,5.15,0,0,0-3.64-1.21,6.55,6.55,0,0,0-3.37.81,5.15,5.15,0,0,0-2.08,2.28,7,7,0,0,0-.7,3.06,5.26,5.26,0,0,0,.78,2.81,4.54,4.54,0,0,0,2.19,1.85,9.39,9.39,0,0,0,6.24.1A4.69,4.69,0,0,0,66.65,15.7Zm-7.92-3a2.07,2.07,0,0,0,.38,1.37,1.18,1.18,0,0,0,.93.44,1.57,1.57,0,0,0,.78-.21,1.94,1.94,0,0,0,.55-.46,3.84,3.84,0,0,0,.67-1.3,5.15,5.15,0,0,0,.28-1.6,1.88,1.88,0,0,0-.38-1.27,1.23,1.23,0,0,0-1-.44,1.7,1.7,0,0,0-1.16.49,3,3,0,0,0-.8,1.39A5.59,5.59,0,0,0,58.73,12.69Z" transform="translate(0)"/><path class="d" d="M71.47,10.43l-1.87-.34a2.9,2.9,0,0,1,1.08-1.67A4,4,0,0,1,73,7.88,4.93,4.93,0,0,1,75,8.21,2,2,0,0,1,76,9a4.23,4.23,0,0,1,.28,1.84l0,2.4a8.49,8.49,0,0,0,.1,1.51,4.39,4.39,0,0,0,.37,1h-2c-.05-.14-.12-.34-.2-.61s-.06-.2-.07-.24a3.7,3.7,0,0,1-1.13.77A3.23,3.23,0,0,1,72,16a2.66,2.66,0,0,1-1.89-.65,2.17,2.17,0,0,1-.69-1.65,2.23,2.23,0,0,1,.31-1.18,2.07,2.07,0,0,1,.88-.79,7,7,0,0,1,1.64-.48,11.27,11.27,0,0,0,2-.51v-.21a1.06,1.06,0,0,0-.29-.85,1.76,1.76,0,0,0-1.11-.25,1.48,1.48,0,0,0-.86.22A1.5,1.5,0,0,0,71.47,10.43Zm2.75,1.67a12.89,12.89,0,0,1-1.25.32,3.77,3.77,0,0,0-1.12.36.86.86,0,0,0-.4.73,1,1,0,0,0,.32.75,1.12,1.12,0,0,0,.82.31,1.77,1.77,0,0,0,1.06-.37,1.29,1.29,0,0,0,.49-.68,4.12,4.12,0,0,0,.08-1Z" transform="translate(0)"/><path class="d" d="M78,8.06h1.14V7.47A3.9,3.9,0,0,1,79.33,6a1.65,1.65,0,0,1,.77-.79,3,3,0,0,1,1.42-.3,5.74,5.74,0,0,1,1.72.26L83,6.62A4.06,4.06,0,0,0,82,6.5a.85.85,0,0,0-.64.21,1.22,1.22,0,0,0-.19.8v.55h1.54V9.68H81.18v6.16H79.12V9.68H78Z" transform="translate(0)"/><path class="d" d="M84.4,15.84V5.1h2.06v5.7l2.41-2.74H91.4L88.74,10.9l2.85,4.94H89.37l-2-3.49-1,1v2.49Z" transform="translate(0)"/><path class="d" d="M93.41,15.84V13.78h2.06v2.06Z" transform="translate(0)"/><path class="d" d="M98.11,15.84V5.1h2.06v5.7l2.41-2.74h2.54l-2.66,2.84,2.85,4.94h-2.22l-2-3.49-1,1v2.49Z" transform="translate(0)"/><path class="d" d="M107.12,7V5.1h2.06V7Zm0,8.83V8.06h2.06v7.78Z" transform="translate(0)"/><path class="d" d="M116.4,13.36l2.05.34a3.36,3.36,0,0,1-1.25,1.72,3.67,3.67,0,0,1-2.13.59,3.48,3.48,0,0,1-3-1.33,4.45,4.45,0,0,1-.77-2.68,4.29,4.29,0,0,1,1-3,3.33,3.33,0,0,1,2.56-1.1A3.46,3.46,0,0,1,117.6,9a5.08,5.08,0,0,1,1,3.51H113.4a2.08,2.08,0,0,0,.5,1.43,1.56,1.56,0,0,0,1.19.51,1.27,1.27,0,0,0,.81-.26A1.64,1.64,0,0,0,116.4,13.36Zm.12-2.08a2,2,0,0,0-.46-1.36,1.48,1.48,0,0,0-2.18,0,1.89,1.89,0,0,0-.43,1.33Z" transform="translate(0)"/><path class="d" d="M123,15.84l-3.13-7.78H122l1.46,4,.42,1.33c.11-.34.18-.56.21-.67s.14-.44.22-.66l1.48-4h2.12l-3.09,7.78Z" transform="translate(0)"/><path class="d" d="M128.66,15.84V13.78h2.06v2.06Z" transform="translate(0)"/><path class="d" d="M138.55,15.84V14.67a3,3,0,0,1-1.12,1A3.13,3.13,0,0,1,136,16a2.86,2.86,0,0,1-1.41-.34,2,2,0,0,1-.9-1,4.32,4.32,0,0,1-.28-1.72V8.06h2.06v3.57a10.06,10.06,0,0,0,.11,2,1.11,1.11,0,0,0,.41.59,1.28,1.28,0,0,0,.76.21,1.62,1.62,0,0,0,.95-.29,1.47,1.47,0,0,0,.57-.72,8.43,8.43,0,0,0,.15-2.1V8.06h2.06v7.78Z" transform="translate(0)"/><path class="d" d="M144.73,10.43l-1.87-.34a2.9,2.9,0,0,1,1.08-1.67,4,4,0,0,1,2.29-.54,4.93,4.93,0,0,1,2.05.33,2,2,0,0,1,.95.83,4.23,4.23,0,0,1,.28,1.84l0,2.4a8.49,8.49,0,0,0,.1,1.51,4.39,4.39,0,0,0,.37,1h-2c-.05-.14-.12-.34-.2-.61s-.06-.2-.07-.24a3.7,3.7,0,0,1-1.13.77,3.23,3.23,0,0,1-1.28.26,2.66,2.66,0,0,1-1.89-.65,2.17,2.17,0,0,1-.69-1.65,2.23,2.23,0,0,1,.31-1.18,2.07,2.07,0,0,1,.88-.79,7,7,0,0,1,1.64-.48,11.27,11.27,0,0,0,2-.51v-.21a1.06,1.06,0,0,0-.29-.85,1.76,1.76,0,0,0-1.11-.25,1.48,1.48,0,0,0-.86.22A1.5,1.5,0,0,0,144.73,10.43Zm2.75,1.67a12.89,12.89,0,0,1-1.25.32,3.77,3.77,0,0,0-1.12.36.86.86,0,0,0-.4.73,1,1,0,0,0,.32.75,1.12,1.12,0,0,0,.82.31,1.77,1.77,0,0,0,1.06-.37,1.29,1.29,0,0,0,.49-.68,4.12,4.12,0,0,0,.08-1Z" transform="translate(0)"/><path class="d" d="M23.74,18.22V16.64H151.06v1.58Z" transform="translate(0)"/><path class="d" d="M13.54,64.09a9.13,9.13,0,0,1,3.24,3.24,9,9,0,0,1,0,9.07,9.12,9.12,0,0,1-3.24,3.24A8.82,8.82,0,0,1,9,80.86a8.82,8.82,0,0,1-4.54-1.22A9.12,9.12,0,0,1,1.23,76.4a9,9,0,0,1,0-9.07,9.13,9.13,0,0,1,3.24-3.24A8.82,8.82,0,0,1,9,62.86,8.82,8.82,0,0,1,13.54,64.09ZM12.41,77.7a6.75,6.75,0,0,0,2.43-2.43,6.76,6.76,0,0,0,0-6.8A6.76,6.76,0,0,0,12.41,66a6.76,6.76,0,0,0-6.8,0,6.75,6.75,0,0,0-2.43,2.43,6.76,6.76,0,0,0,0,6.8A6.74,6.74,0,0,0,5.6,77.7a6.76,6.76,0,0,0,6.8,0Zm0-7V73H7.89V67.36h2.25v3.37Z" transform="translate(0)"/><path class="d" d="M24.87,66.43H33.4V77.16H31.24V68.23H27v8.94H24.87Z" transform="translate(0)"/><path class="d" d="M35.52,69.39h2.06v2.85h2.94V69.39h2.07v7.78H40.52V73.9H37.58v3.27H35.52Z" transform="translate(0)"/><path class="d" d="M44.43,74.3V72.24h4V74.3Z" transform="translate(0)"/><path class="d" d="M49.7,66.43h8.54V77.16H56.07V68.23h-4.2v8.94H49.7Z" transform="translate(0)"/><path class="d" d="M59.52,69.39h7V71H64.06v6.12H62V71H59.52Z" transform="translate(0)"/><path class="d" d="M66.61,75.11h2.06v1.47A5.1,5.1,0,0,1,68.51,78a2.1,2.1,0,0,1-.58.93,3,3,0,0,1-1.09.64l-.4-.85a1.74,1.74,0,0,0,.89-.56,1.7,1.7,0,0,0,.28-1h-1Z" transform="translate(0)"/><path class="d" d="M78.77,74.68l2-.22a1.44,1.44,0,0,0,.38.9,1.13,1.13,0,0,0,.81.29A1.32,1.32,0,0,0,83,75.07a5,5,0,0,0,.57-2.43,2.46,2.46,0,0,1-1.94.9,2.89,2.89,0,0,1-2.19-1A3.56,3.56,0,0,1,78.56,70a3.62,3.62,0,0,1,1-2.63,3.29,3.29,0,0,1,2.47-1,3.33,3.33,0,0,1,2.68,1.26,6.53,6.53,0,0,1,1,4.16,6.6,6.6,0,0,1-1.09,4.25,3.53,3.53,0,0,1-2.84,1.3,3,3,0,0,1-2-.67A3.24,3.24,0,0,1,78.77,74.68Zm4.66-4.5A2.35,2.35,0,0,0,83,68.64a1.35,1.35,0,0,0-1.06-.55,1.19,1.19,0,0,0-.95.45A2.29,2.29,0,0,0,80.58,70,2.34,2.34,0,0,0,81,71.54a1.31,1.31,0,0,0,2,0A2,2,0,0,0,83.42,70.18Z" transform="translate(0)"/><path class="d" d="M87.9,71.44V69.39H90v2.06Zm0,5.72V75.11H90v2.06Z" transform="translate(0)"/><path class="d" d="M95.54,66.38A2.93,2.93,0,0,1,98,67.5a7.12,7.12,0,0,1,1,4.37A7.12,7.12,0,0,1,98,76.25a2.93,2.93,0,0,1-2.43,1.1A3.07,3.07,0,0,1,93,76.14q-1-1.2-1-4.3a7.09,7.09,0,0,1,1.05-4.37A2.93,2.93,0,0,1,95.54,66.38Zm0,1.71a1,1,0,0,0-.67.24,1.59,1.59,0,0,0-.45.85,11.71,11.71,0,0,0-.21,2.69,11.69,11.69,0,0,0,.19,2.6,1.82,1.82,0,0,0,.48.94,1.05,1.05,0,0,0,1.33,0,1.61,1.61,0,0,0,.45-.85,11.71,11.71,0,0,0,.21-2.68,11.67,11.67,0,0,0-.19-2.6,1.87,1.87,0,0,0-.48-.95A1,1,0,0,0,95.54,68.09Z" transform="translate(0)"/><path class="d" d="M103.88,66.38a2.93,2.93,0,0,1,2.44,1.11,7.1,7.1,0,0,1,1,4.37,7.12,7.12,0,0,1-1.05,4.38,2.93,2.93,0,0,1-2.43,1.1,3.07,3.07,0,0,1-2.53-1.21q-1-1.2-1-4.3a7.09,7.09,0,0,1,1.05-4.37A2.93,2.93,0,0,1,103.88,66.38Zm0,1.71a1,1,0,0,0-.67.24,1.6,1.6,0,0,0-.45.85,11.71,11.71,0,0,0-.21,2.69,11.65,11.65,0,0,0,.19,2.6,1.84,1.84,0,0,0,.48.94,1.05,1.05,0,0,0,1.33,0,1.59,1.59,0,0,0,.45-.85,11.6,11.6,0,0,0,.21-2.68,11.71,11.71,0,0,0-.19-2.6,1.85,1.85,0,0,0-.48-.95A1,1,0,0,0,103.88,68.09Z" transform="translate(0)"/><path class="d" d="M108.95,74.3V72.24h4V74.3Z" transform="translate(0)"/><path class="d" d="M119,77.16h-2.06V69.41A7.11,7.11,0,0,1,114.29,71V69.1a6,6,0,0,0,1.75-1,3.81,3.81,0,0,0,1.29-1.72H119Z" transform="translate(0)"/><path class="d" d="M122.13,74.68l2-.22a1.44,1.44,0,0,0,.38.9,1.13,1.13,0,0,0,.81.29,1.32,1.32,0,0,0,1.08-.59,5,5,0,0,0,.57-2.43,2.46,2.46,0,0,1-1.94.9,2.89,2.89,0,0,1-2.19-1,3.56,3.56,0,0,1-.92-2.54,3.62,3.62,0,0,1,1-2.63,3.29,3.29,0,0,1,2.47-1A3.33,3.33,0,0,1,128,67.65a6.53,6.53,0,0,1,1,4.16A6.6,6.6,0,0,1,128,76.05a3.53,3.53,0,0,1-2.84,1.3,3,3,0,0,1-2-.67A3.24,3.24,0,0,1,122.13,74.68Zm4.66-4.5a2.35,2.35,0,0,0-.46-1.55,1.35,1.35,0,0,0-1.06-.55,1.19,1.19,0,0,0-.95.45,2.29,2.29,0,0,0-.38,1.48,2.34,2.34,0,0,0,.41,1.53,1.31,1.31,0,0,0,2,0A2,2,0,0,0,126.78,70.18Z" transform="translate(0)"/><path class="d" d="M131.26,71.44V69.39h2.06v2.06Zm0,5.72V75.11h2.06v2.06Z" transform="translate(0)"/><path class="d" d="M138.9,66.38a2.93,2.93,0,0,1,2.44,1.11,7.12,7.12,0,0,1,1,4.37,7.12,7.12,0,0,1-1.05,4.38,2.93,2.93,0,0,1-2.43,1.1,3.07,3.07,0,0,1-2.53-1.21q-1-1.2-1-4.3a7.09,7.09,0,0,1,1.05-4.37A2.93,2.93,0,0,1,138.9,66.38Zm0,1.71a1,1,0,0,0-.67.24,1.59,1.59,0,0,0-.45.85,11.71,11.71,0,0,0-.21,2.69,11.69,11.69,0,0,0,.19,2.6,1.82,1.82,0,0,0,.48.94,1.05,1.05,0,0,0,1.33,0,1.61,1.61,0,0,0,.45-.85,11.71,11.71,0,0,0,.21-2.68,11.67,11.67,0,0,0-.19-2.6,1.87,1.87,0,0,0-.48-.95A1,1,0,0,0,138.9,68.09Z" transform="translate(0)"/><path class="d" d="M147.24,66.38a2.93,2.93,0,0,1,2.44,1.11,7.1,7.1,0,0,1,1,4.37,7.12,7.12,0,0,1-1.05,4.38,2.93,2.93,0,0,1-2.43,1.1,3.07,3.07,0,0,1-2.53-1.21q-1-1.2-1-4.3a7.09,7.09,0,0,1,1.05-4.37A2.93,2.93,0,0,1,147.24,66.38Zm0,1.71a1,1,0,0,0-.67.24,1.6,1.6,0,0,0-.45.85,11.71,11.71,0,0,0-.21,2.69,11.65,11.65,0,0,0,.19,2.6,1.84,1.84,0,0,0,.48.94,1.05,1.05,0,0,0,1.33,0,1.59,1.59,0,0,0,.45-.85,11.6,11.6,0,0,0,.21-2.68,11.71,11.71,0,0,0-.19-2.6,1.85,1.85,0,0,0-.48-.95A1,1,0,0,0,147.24,68.09Z" transform="translate(0)"/></svg>