<svg xmlns="http://www.w3.org/2000/svg" viewBox="0 0 31.05 22"><defs><style>.a{fill:#fff;}</style></defs><title>list</title><path class="a" d="M0,22.59V2.66H13.4v22L6.71,18,0,24.66Z" transform="translate(0 -2.66)"/><path class="a" d="M31,8V9.16a.62.62,0,0,1-.17.43.57.57,0,0,1-.44.19H17.09a.55.55,0,0,1-.43-.19.69.69,0,0,1-.19-.43V8a.61.61,0,0,1,.19-.44.53.53,0,0,1,.43-.17H30.43a.64.64,0,0,1,.44.17A.53.53,0,0,1,31,8Zm0,4.85V14a.62.62,0,0,1-.17.42.52.52,0,0,1-.44.17H17.09a.58.58,0,0,1-.43-.17.64.64,0,0,1-.19-.42V12.8a.59.59,0,0,1,.19-.42.53.53,0,0,1,.43-.17H30.43a.64.64,0,0,1,.44.17A.5.5,0,0,1,31,12.8Zm0,4.86v1.21a.58.58,0,0,1-.17.43.67.67,0,0,1-.44.19H17.09a.55.55,0,0,1-.43-.19.69.69,0,0,1-.19-.43V17.66a.55.55,0,0,1,.19-.42.69.69,0,0,1,.43-.19H30.43a.61.61,0,0,1,.44.19A.53.53,0,0,1,31,17.66Z" transform="translate(0 -2.66)"/></svg>