<svg xmlns="http://www.w3.org/2000/svg" viewBox="0 0 23 23"><defs><style>.a{fill:#fff;}</style></defs><title>man</title><path class="a" d="M0,23.69V20.1q0-.55,1.33-1.33A23.29,23.29,0,0,1,5,17.14a8.69,8.69,0,0,0,3.15-1.68A3.06,3.06,0,0,0,9,13.13a3.33,3.33,0,0,0-.62-1.66,7.43,7.43,0,0,1-.74-1.36A23.41,23.41,0,0,1,7,7q-.23-1.2-.32-2.14a3.16,3.16,0,0,1,.14-1.15,5.45,5.45,0,0,1,.64-1.38A3.22,3.22,0,0,1,9,1.15,6.42,6.42,0,0,1,11.5.69,6.42,6.42,0,0,1,14,1.15a3.23,3.23,0,0,1,1.54,1.2,5.52,5.52,0,0,1,.64,1.38,3.2,3.2,0,0,1,.14,1.15Q16.26,5.82,16,7a23.75,23.75,0,0,1-.67,3.1,10.3,10.3,0,0,1-.74,1.36A3.67,3.67,0,0,0,14,13.13a3.14,3.14,0,0,0,.85,2.32A8.88,8.88,0,0,0,18,17.14q5,1.84,5,3v3.59Z" transform="translate(0 -0.69)"/></svg>