<svg xmlns="http://www.w3.org/2000/svg" viewBox="0 0 177.38 119.06"><defs><style>.a{fill:#fff;}.b{fill:#ffdb96;}.c{fill:#ffb819;stroke:#ffb819;stroke-miterlimit:10;stroke-width:0.29px;}</style></defs><title>obmen</title><path class="a" d="M120,78.5a249.94,249.94,0,0,1-30.48-1.88A7.75,7.75,0,0,1,84,72.55c-1.42-2.68-4.56-31.74-.69-63a7.7,7.7,0,0,1,6.19-6.18,248.11,248.11,0,0,1,61,0,7.7,7.7,0,0,1,6.19,6.18c3.62,29.28,1,59.86-.69,63a7.75,7.75,0,0,1-5.5,4.07A249.93,249.93,0,0,1,120,78.5Z" transform="translate(-30.81)"/><path class="b" d="M120,3a248.4,248.4,0,0,1,30.29,1.87,6.26,6.26,0,0,1,4.88,4.88c3.69,29.85.79,59.17-.53,62.1a6.29,6.29,0,0,1-4.36,3.28A248.49,248.49,0,0,1,120,77a248.48,248.48,0,0,1-30.29-1.87,6.26,6.26,0,0,1-4.33-3.24C84,68.77,81.1,40,84.84,9.74a6.26,6.26,0,0,1,4.88-4.88A248.45,248.45,0,0,1,120,3h0m0-3A250.32,250.32,0,0,0,89.36,1.89a9.23,9.23,0,0,0-7.49,7.49c-3.8,30.74-.88,60.6.86,63.88a9.29,9.29,0,0,0,6.64,4.85A250.28,250.28,0,0,0,120,80a250.36,250.36,0,0,0,30.66-1.89,9.3,9.3,0,0,0,6.64-4.85c1.85-3.48,4.52-34.22.86-63.88a9.22,9.22,0,0,0-7.49-7.49A250.23,250.23,0,0,0,120,0Z" transform="translate(-30.81)"/><path class="c" d="M118.38,36a.76.76,0,0,1-.25.54L117,37.75a.68.68,0,0,1-.5.21.83.83,0,0,1-.54-.21l-9.18-9.18-9.14,9.18A.73.73,0,0,1,97,38a.6.6,0,0,1-.5-.21l-1.17-1.17a.71.71,0,0,1,0-1.09l10.85-10.85a.63.63,0,0,1,.5-.25.76.76,0,0,1,.54.25l10.85,10.85A.76.76,0,0,1,118.38,36Zm0,8.93a.76.76,0,0,1-.25.54L117,46.68a.68.68,0,0,1-.5.21.83.83,0,0,1-.54-.21l-9.18-9.14-9.14,9.14a.73.73,0,0,1-.54.21.6.6,0,0,1-.5-.21l-1.17-1.17a.71.71,0,0,1,0-1.08l10.85-10.85a.68.68,0,0,1,.5-.21.83.83,0,0,1,.54.21l10.85,10.85A.76.76,0,0,1,118.38,45Z" transform="translate(-30.81)"/><path class="c" d="M144.34,33.72a.76.76,0,0,1-.25.54L133.24,45.11a.73.73,0,0,1-.54.21.6.6,0,0,1-.5-.21L121.34,34.26a.71.71,0,0,1,0-1.08L122.51,32a.63.63,0,0,1,.5-.25.76.76,0,0,1,.54.25l9.14,9.14L141.88,32a.67.67,0,0,1,.54-.25.56.56,0,0,1,.5.25l1.17,1.17A.76.76,0,0,1,144.34,33.72Zm0,8.93a.76.76,0,0,1-.25.54L133.24,54a.67.67,0,0,1-.54.25.56.56,0,0,1-.5-.25L121.34,43.19a.71.71,0,0,1,0-1.08l1.17-1.17a.68.68,0,0,1,.5-.21.84.84,0,0,1,.54.21l9.14,9.18,9.18-9.18a.73.73,0,0,1,.54-.21.6.6,0,0,1,.5.21l1.17,1.17A.76.76,0,0,1,144.34,42.65Z" transform="translate(-30.81)"/><path class="a" d="M30.81,110a6.66,6.66,0,0,1,2-4.9,6.91,6.91,0,0,1,5.11-2A7.13,7.13,0,0,1,43,105,7.18,7.18,0,0,1,43,115a7,7,0,0,1-5.05,1.94A7.13,7.13,0,0,1,32.84,115a6.55,6.55,0,0,1-2-5Zm3.23,0a4,4,0,0,0,1.12,2.88,3.91,3.91,0,0,0,5.55,0,4.29,4.29,0,0,0,1-2.91,4,4,0,0,0-1.1-2.91,3.94,3.94,0,0,0-5.49,0A4,4,0,0,0,34,110Z" transform="translate(-30.81)"/><path class="a" d="M50.45,108.4a7.74,7.74,0,0,1,1.52-.11,4.44,4.44,0,0,1,3.13,1.12,3.87,3.87,0,0,1,1.2,3A4.09,4.09,0,0,1,55,115.62a5.62,5.62,0,0,1-3.82,1.18l-1.42,0-1.43-.06a.88.88,0,0,1-.63-.29.85.85,0,0,1-.25-.63V104.27a.91.91,0,0,1,.89-.89h6.27a.87.87,0,0,1,.89.87v1.1a.84.84,0,0,1-.87.87h-4.1v2.11Zm0,5.51.7.07.44,0q1.65,0,1.65-1.37a1.6,1.6,0,0,0-.36-1.08,1.43,1.43,0,0,0-1.14-.42,7.8,7.8,0,0,0-1.27.11Z" transform="translate(-30.81)"/><path class="a" d="M62.12,115.87a.85.85,0,0,1-.87.87H60a.88.88,0,0,1-.87-.89V104.29a.91.91,0,0,1,.89-.89h1.6a1.2,1.2,0,0,1,1,.53L66.26,109l3.5-5.05a1.14,1.14,0,0,1,1-.55h1.42a.87.87,0,0,1,.89.87v11.55a.85.85,0,0,1-.87.87H70.88a.88.88,0,0,1-.87-.89v-7.6l-2.75,3.88a1.31,1.31,0,0,1-2.28,0l-2.75-3.82Z" transform="translate(-30.81)"/><path class="a" d="M84.48,115.85a.85.85,0,0,1-.87.87H77.29a.87.87,0,0,1-.87-.89V104.27a.86.86,0,0,1,.26-.63.85.85,0,0,1,.62-.27h6.12a.87.87,0,0,1,.89.87v1.1a.84.84,0,0,1-.87.87h-4v2.34h3.4a.85.85,0,0,1,.63.25.86.86,0,0,1,.27.63v1.1a.84.84,0,0,1-.87.87H79.5v2.41h4.16a.85.85,0,0,1,.63.25.86.86,0,0,1,.27.63Z" transform="translate(-30.81)"/><path class="a" d="M98.27,115.88a.85.85,0,0,1-.87.87H96.11a.88.88,0,0,1-.87-.89v-4.48H90.39v4.48a.85.85,0,0,1-.87.87H88.22a.86.86,0,0,1-.63-.27.85.85,0,0,1-.25-.63V104.29a.91.91,0,0,1,.89-.89h1.29a.87.87,0,0,1,.89.87v4.22h4.84v-4.22a.91.91,0,0,1,.89-.89h1.29a.87.87,0,0,1,.89.87Z" transform="translate(-30.81)"/><path class="a" d="M106.82,118.18a.85.85,0,0,1-.87.87h-1.1a.86.86,0,0,1-.63-.27.85.85,0,0,1-.25-.63v-3.38a.91.91,0,0,1,.89-.89h.55a9.38,9.38,0,0,0,1.18-2.81,22,22,0,0,0,.76-5l.08-1.79a.93.93,0,0,1,.28-.63.86.86,0,0,1,.63-.27h6.92a.85.85,0,0,1,.63.25.86.86,0,0,1,.27.63v9.58h.93a.85.85,0,0,1,.63.25.86.86,0,0,1,.27.63v3.38a.85.85,0,0,1-.87.87H116a.88.88,0,0,1-.87-.89v-1.41H106.9Zm6.25-11.86h-2.7l-.21,2.24a17.14,17.14,0,0,1-.61,3.25,7,7,0,0,1-.82,2.11h4.34Z" transform="translate(-30.81)"/><path class="a" d="M122.46,113.89l-.85,2.17a.93.93,0,0,1-.91.63h-1.16a.74.74,0,0,1-.57-.25.81.81,0,0,1-.23-.57.91.91,0,0,1,.06-.32L123.58,104a1,1,0,0,1,.93-.63h1.39a1,1,0,0,1,.93.63l4.79,11.53a.91.91,0,0,1,.06.32.82.82,0,0,1-.23.57.74.74,0,0,1-.57.25h-1.35a.91.91,0,0,1-.91-.63l-.86-2.17ZM123.6,111h3l-1.48-3.76Z" transform="translate(-30.81)"/><path class="a" d="M144.63,115.88a.85.85,0,0,1-.87.87h-1.29a.88.88,0,0,1-.87-.89v-4.48h-4.84v4.48a.85.85,0,0,1-.87.87h-1.29a.86.86,0,0,1-.63-.27.85.85,0,0,1-.25-.63V104.29a.91.91,0,0,1,.89-.89h1.29a.87.87,0,0,1,.89.87v4.22h4.84v-4.22a.91.91,0,0,1,.89-.89h1.29a.87.87,0,0,1,.89.87Z" transform="translate(-30.81)"/><path class="a" d="M159,115.88a.85.85,0,0,1-.87.87h-1.29a.88.88,0,0,1-.87-.89v-4.48h-4.84v4.48a.85.85,0,0,1-.87.87h-1.29a.86.86,0,0,1-.63-.27.85.85,0,0,1-.25-.63V104.29a.91.91,0,0,1,.89-.89h1.29a.87.87,0,0,1,.89.87v4.22H156v-4.22a.91.91,0,0,1,.89-.89h1.29a.87.87,0,0,1,.89.87Z" transform="translate(-30.81)"/><path class="a" d="M162.4,104.31a.91.91,0,0,1,.89-.89h1.29a.85.85,0,0,1,.63.25.86.86,0,0,1,.27.63v3.29l.62-.06.56,0a5,5,0,0,1,3.63,1.2,4.36,4.36,0,0,1,1.24,3.29,4.47,4.47,0,0,1-1.44,3.48,5.85,5.85,0,0,1-4,1.31h-1.23l-1.46,0a.88.88,0,0,1-.87-.89Zm3.1,9.54.57.06.32,0a1.66,1.66,0,0,0,1.9-1.84,1.6,1.6,0,0,0-.51-1.29,2.11,2.11,0,0,0-1.39-.44l-.37,0-.54.07Zm10.34,2a.85.85,0,0,1-.87.87h-1.29a.88.88,0,0,1-.87-.89V104.27a.91.91,0,0,1,.89-.89H175a.88.88,0,0,1,.89.87Z" transform="translate(-30.81)"/><path class="a" d="M182.23,115.87a.85.85,0,0,1-.87.87h-1.29a.88.88,0,0,1-.87-.89V104.29a.91.91,0,0,1,.89-.89h1.6a1.2,1.2,0,0,1,1,.53l3.71,5.07,3.5-5.05a1.14,1.14,0,0,1,1-.55h1.42a.87.87,0,0,1,.89.87v11.55a.85.85,0,0,1-.87.87H191a.88.88,0,0,1-.87-.89v-7.6l-2.75,3.88a1.31,1.31,0,0,1-2.28,0l-2.75-3.82Z" transform="translate(-30.81)"/><path class="a" d="M206,116.74a.87.87,0,0,1-.87-.89v-7.39l-5.51,7.71a1.15,1.15,0,0,1-1,.55h-1.18a.88.88,0,0,1-.87-.89V104.27a.91.91,0,0,1,.89-.89h1.29a.88.88,0,0,1,.89.87v7.39l5.51-7.71a1.14,1.14,0,0,1,1-.55h1.17a.84.84,0,0,1,.62.25.86.86,0,0,1,.26.63v11.55a.85.85,0,0,1-.25.63.84.84,0,0,1-.62.25Z" transform="translate(-30.81)"/></svg>