<svg xmlns="http://www.w3.org/2000/svg" viewBox="0 0 55 51"><defs><style>.a{fill:none;}.b{fill:#fff;}</style></defs><title>search</title><rect class="a" width="55" height="51"/><path class="b" d="M15,35.43a2.06,2.06,0,0,1,.62-1.52l3.82-3.82a10.94,10.94,0,0,1-1.17-2.55,9.92,9.92,0,0,1,.94-8,10.09,10.09,0,0,1,17.41,0A10.12,10.12,0,0,1,33,33.38a9.85,9.85,0,0,1-5.08,1.38,9.63,9.63,0,0,1-2.87-.44,9.42,9.42,0,0,1-2.55-1.17L18.68,37a2.06,2.06,0,0,1-1.52.62A2.12,2.12,0,0,1,15,35.43Zm9.29-17A6.92,6.92,0,0,0,21.72,21a7.17,7.17,0,0,0,0,7.27,6.92,6.92,0,0,0,2.58,2.58,7.17,7.17,0,0,0,7.27,0,6.91,6.91,0,0,0,2.58-2.58,7.17,7.17,0,0,0,0-7.27,6.92,6.92,0,0,0-2.58-2.58,7.17,7.17,0,0,0-7.27,0Z"/></svg>