<svg xmlns="http://www.w3.org/2000/svg" viewBox="0 0 24.79 25"><defs><style>.a{fill:#fff;}</style></defs><title>trash</title><path class="a" d="M6.81,6.26H23.2a1.61,1.61,0,0,1,1.19.41,1.41,1.41,0,0,1,.41,1v6.76a1.4,1.4,0,0,1-.38,1,1.45,1.45,0,0,1-1,.46L8.82,17.57a1,1,0,0,0-.83.48.73.73,0,0,0,0,.81,1,1,0,0,0,.91.39H22.76a1.12,1.12,0,0,1,.87.35,1.27,1.27,0,0,1,0,1.68,1.12,1.12,0,0,1-.87.35H8.61a3.44,3.44,0,0,1-2-.58,2.87,2.87,0,0,1-1.09-1.42,2.7,2.7,0,0,1,0-1.77,3.32,3.32,0,0,1,1.22-1.6l1.25-1L3.48,5.48H1.28a1.17,1.17,0,0,1-.94-.39,1.42,1.42,0,0,1,0-1.83,1.17,1.17,0,0,1,.94-.39H3.86a1.93,1.93,0,0,1,1.36.44,3.59,3.59,0,0,1,.7,1.13ZM5.31,23.32A2.29,2.29,0,0,1,6.95,27.2a2.17,2.17,0,0,1-1.61.67,2.21,2.21,0,0,1-1.62-.67,2.28,2.28,0,0,1,1.6-3.89Zm2.46-15L8.9,10.76h3.65l-.81-2.46Zm3.16,7,2.9-.29-1-2.93H9.42Zm5.89-7H13l.78,2.46H17.4Zm-1.74,6.55,3.28-.32-.72-2.46H14.18Zm7.74-4.09V8.29h-4.7l.55,2.46ZM20.68,23.32a2.12,2.12,0,0,1,1.59.67,2.27,2.27,0,0,1,.64,1.62,2.21,2.21,0,0,1-.64,1.61,2.14,2.14,0,0,1-1.59.65,2.28,2.28,0,1,1,0-4.55ZM22.82,14V12.06H19l.58,2.26Z" transform="translate(0 -2.87)"/></svg>